<svg id="Layer_1" data-name="Layer 1" xmlns="http://www.w3.org/2000/svg" xmlns:xlink="http://www.w3.org/1999/xlink" viewBox="0 0 1920 1080"><defs><style>.cls-1{fill:none;}.cls-2{clip-path:url(#clip-path);}.cls-3{fill:#474747;}.cls-4{fill:#32cc1d;}.cls-5{fill:#fff;}.cls-6{fill:#32a01d;}.cls-7{clip-path:url(#clip-path-2);}.cls-8{fill:#ffa72b;stroke:#ff2b18;stroke-miterlimit:10;}</style><clipPath id="clip-path"><rect class="cls-1" x="-1940.1" y="-1098" width="1920" height="1080"/></clipPath><clipPath id="clip-path-2"><rect class="cls-1" x="661.11" y="1100" width="610" height="1080"/></clipPath></defs><title>alien</title><g class="cls-2"><image width="793" height="1146" transform="translate(-393 -1131)" xlink:href="alien1.png"/><rect class="cls-3" x="-281.26" y="-169.82" width="326" height="110" rx="12" transform="translate(-116.47 -279.64) rotate(-133.53)"/></g><path class="cls-4" d="M1045.5,512.79c0,20.69-7.86,39.27-19.64,54.41-68.94,88.61-77.14,33.25-65.36,30.69,22.94-5,6.66,64.07-60.1-24.93-13.07-17.41-24.9-36.67-24.9-60.17a85,85,0,1,1,170,0Z"/><path d="M956.85,507.16c-.58,11.72-14.31,25.85-31.11,25.64-16.78,0-30.49-14.09-31.16-25.55s13-16.05,31.12-16.28S957.51,495.26,956.85,507.16Z"/><path d="M1031.61,507.16c-.59,11.72-14.31,25.85-31.11,25.64-16.79,0-30.49-14.09-31.17-25.55s13-16.05,31.13-16.28S1032.27,495.26,1031.61,507.16Z"/><path d="M1008.43,556.5c1.89,0,1.27,8.2-6.69,17.09a56.45,56.45,0,0,1-82.41-.05c-8-8.89-8.61-17.11-6.76-17,3.93-.11,20.79,23.84,47.89,22.79C987.56,580.27,1004.39,556.34,1008.43,556.5Z"/><ellipse class="cls-5" cx="908.78" cy="499.98" rx="8.19" ry="5.64"/><ellipse class="cls-5" cx="982.52" cy="499.98" rx="8.19" ry="5.64"/><path class="cls-6" d="M914.43,445.18c-5-4.33-8.89-8.75-14.62-10.58-19.09-4.25-11.6-5.11-10-6.42,1.26-1,10.34,0,19.57,5.45A47.61,47.61,0,0,1,920.88,443c4.26,4.8,6.22,9.77,8.2,13.72,5.16,12.75,1.27,10.43.89,10.52-1.73.08-.52,4.93-6.55-11.27C921.63,452.56,919.92,450.24,914.43,445.18Z"/><path class="cls-6" d="M896.9,425c.46,2.85-4.7,6-11.17,8.58s-12.66,3.69-14.24,1.28,2.87-8,10.5-10.95S896.46,422.17,896.9,425Z"/><path class="cls-6" d="M1011.1,443.53c4.43-3.76,7.94-7.6,13-9.13,17-3.42,10.35-4.28,9-5.47-1.11-.89-9.19-.16-17.42,4.51a41.63,41.63,0,0,0-10.28,8.14c-3.8,4.19-5.56,8.56-7.32,12-4.59,11.2-1.13,9.16-.81,9.24,1.53.08.41,4.33,5.79-9.88C1004.68,450,1006.21,447.93,1011.1,443.53Z"/><path class="cls-6" d="M1047.53,435.1c-1.38,2.12-6.77,1.06-12.45-1.08s-10.2-5-9.81-7.47,6.36-3.6,13.06-1S1048.93,433,1047.53,435.1Z"/><g class="cls-7"><ellipse class="cls-8" cx="1104.49" cy="1335.13" rx="290.88" ry="301.5"/></g></svg>
