<svg id="Layer_1" data-name="Layer 1" xmlns="http://www.w3.org/2000/svg" xmlns:xlink="http://www.w3.org/1999/xlink" viewBox="0 0 1920 1080"><defs><style>.cls-1{fill:none;}.cls-2{clip-path:url(#clip-path);}.cls-10,.cls-3{stroke:#000;stroke-miterlimit:10;}.cls-3{fill:url(#linear-gradient);}.cls-4{fill:#005eff;}.cls-5{fill:#04d900;}.cls-10,.cls-6{fill:#fff;}.cls-7{fill:#dbe6ff;}.cls-8{fill:#ffa792;}.cls-9{fill:#ff6046;}</style><clipPath id="clip-path"><rect class="cls-1" x="2.5" y="0.5" width="1920" height="1080"/></clipPath><linearGradient id="linear-gradient" x1="1921.46" y1="529.97" x2="-682.8" y2="558.57" gradientUnits="userSpaceOnUse"><stop offset="0" stop-color="#fff"/><stop offset="0.01" stop-color="#f6f6f6"/><stop offset="0.05" stop-color="#c8c8c8"/><stop offset="0.09" stop-color="#9d9d9d"/><stop offset="0.14" stop-color="#777"/><stop offset="0.2" stop-color="#575757"/><stop offset="0.25" stop-color="#3b3b3b"/><stop offset="0.32" stop-color="#252525"/><stop offset="0.4" stop-color="#141414"/><stop offset="0.49" stop-color="#090909"/><stop offset="0.63" stop-color="#020202"/><stop offset="1"/></linearGradient></defs><title>baggrund_complete</title><g class="cls-2"><rect class="cls-3" x="2.5" y="0.5" width="1920" height="1080"/><circle class="cls-4" cx="707.5" cy="540" r="152"/><path class="cls-5" d="M786,558c-119.06-41.72-47.9,76.63-32.13,71.67C815.22,610.39,684.86,678,690,654c12-56-71.51-3.07-61.26-22.08C736,433,621.53,569.24,594,558c-49-20,5.55-77.59,28.12-67.88C666,509,663.49,462,690,462c31.13,0,7,76,76.34,37.79C784.14,490,806.66,565.24,786,558Z"/><path class="cls-6" d="M807.5,461.5c0,8.2-2.12,27.33-7.35,21.8C780,462,779.5,495.5,770,492c-9.33-3.44-10.5-18.5-24-5-6.51,6.51-19.5-21.16-10.54-25.46C772,444,715,467,744.44,437.76c7.09-7.05,24-22.6,27.06-12.26C787,478,793,430.78,799.62,439A35.84,35.84,0,0,1,807.5,461.5Z"/><path class="cls-5" d="M855.5,533.5c7.25,3.19-.79,27.88-1.65,21.58C851,534,848.39,575.17,844.5,574.5c-14.5-2.5-7.87-8.82-9.72-21.77C834,547,849,549,833.5,533.5c-6.44-6.44-1.73-30.09,2.15-24.33C849,529,840.87,492.5,844.5,492.5c4.21,0,7.87,8.83,9.72,21.79C855,520,843,528,855.5,533.5Z"/><circle class="cls-7" cx="1403" cy="523" r="59"/><circle class="cls-8" cx="1112" cy="523" r="121"/><circle class="cls-9" cx="-71" cy="556" r="433"/></g><circle class="cls-10" cx="1552" cy="128" r="5.5"/><circle class="cls-10" cx="1597" cy="213" r="5.5"/><circle class="cls-10" cx="813" cy="711" r="5.5"/><circle class="cls-10" cx="1040" cy="821" r="5.5"/><circle class="cls-10" cx="1325" cy="852" r="5.5"/><circle class="cls-10" cx="1408" cy="815" r="5.5"/><circle class="cls-10" cx="1171" cy="110" r="5.5"/><circle class="cls-10" cx="1655" cy="327" r="5.5"/><circle class="cls-10" cx="1762" cy="247" r="5.5"/><circle class="cls-10" cx="1869" cy="327" r="5.5"/><circle class="cls-10" cx="1801" cy="458" r="5.5"/><circle class="cls-10" cx="1778" cy="894" r="5.5"/><circle class="cls-10" cx="903" cy="599" r="5.5"/><circle class="cls-10" cx="891" cy="495" r="5.5"/><circle class="cls-10" cx="1320" cy="321" r="5.5"/><circle class="cls-10" cx="813" cy="296" r="5.5"/><circle class="cls-10" cx="661" cy="94" r="5.5"/><circle class="cls-10" cx="166" cy="1026" r="5.5"/><circle class="cls-10" cx="982" cy="296" r="5.5"/><circle class="cls-10" cx="656" cy="976" r="5.5"/><circle class="cls-10" cx="212" cy="94" r="5.5"/><circle class="cls-10" cx="414" cy="105" r="5.5"/><circle class="cls-10" cx="439" cy="846" r="5.5"/><circle class="cls-10" cx="414" cy="534" r="5.5"/><circle class="cls-10" cx="1276" cy="905" r="5.5"/></svg>
