<svg id="Layer_1" data-name="Layer 1" xmlns="http://www.w3.org/2000/svg" viewBox="0 0 1920 1080"><defs><style>.cls-1{fill:#474747;}.cls-2{fill:#545352;}.cls-3{fill:#fff;}</style></defs><title>cannons</title><path class="cls-1" d="M327.4,766.18,117.85,987.36a12.09,12.09,0,0,1-17.09.44L38,928a12.17,12.17,0,0,1-.44-17.14L247.06,689.65a12.11,12.11,0,0,1,17.09-.44L327,749.05A12.17,12.17,0,0,1,327.4,766.18Z"/><path class="cls-2" d="M310.11,723.94l70.78-74.71a12.18,12.18,0,0,0-.44-17.14l-8-7.65a12.11,12.11,0,0,0-17.09.44l-70.77,74.7a12.17,12.17,0,0,0,.44,17.14l8,7.65A12.1,12.1,0,0,0,310.11,723.94Z"/><path class="cls-3" d="M320.77,753.66,187.78,894a3.7,3.7,0,0,1-5.23.13h0a3.72,3.72,0,0,1-.13-5.23l133-140.38a3.7,3.7,0,0,1,5.22-.13h0A3.72,3.72,0,0,1,320.77,753.66Z"/><ellipse cx="371.3" cy="634.99" rx="4.08" ry="13.82" transform="translate(-353.63 510.29) rotate(-49.92)"/><path class="cls-1" d="M1593,798.18l209.55,221.18a12.09,12.09,0,0,0,17.09.44L1882.45,960a12.18,12.18,0,0,0,.44-17.14L1673.34,721.65a12.12,12.12,0,0,0-17.1-.44l-62.81,59.84A12.17,12.17,0,0,0,1593,798.18Z"/><path class="cls-2" d="M1610.28,755.94l-70.77-74.71a12.18,12.18,0,0,1,.44-17.14l8-7.65a12.11,12.11,0,0,1,17.09.44l70.78,74.7a12.18,12.18,0,0,1-.44,17.14l-8,7.65A12.1,12.1,0,0,1,1610.28,755.94Z"/><path class="cls-3" d="M1662.09,735.15l133,140.37a3.71,3.71,0,0,0,5.23.14h0a3.73,3.73,0,0,0,.13-5.24l-133-140.37a3.71,3.71,0,0,0-5.23-.14h0A3.73,3.73,0,0,0,1662.09,735.15Z"/><ellipse cx="1549.1" cy="666.99" rx="13.82" ry="4.08" transform="translate(-65.67 1153.93) rotate(-40.08)"/></svg>
