<svg id="Layer_1" data-name="Layer 1" xmlns="http://www.w3.org/2000/svg" xmlns:xlink="http://www.w3.org/1999/xlink" viewBox="0 0 1920 1080"><defs><style>.cls-1,.cls-21,.cls-7{fill:none;}.cls-2{clip-path:url(#clip-path);}.cls-10,.cls-3{fill:#020000;}.cls-11,.cls-12,.cls-13,.cls-14,.cls-15,.cls-16,.cls-19,.cls-20,.cls-3,.cls-5,.cls-7,.cls-9{stroke:#000;}.cls-11,.cls-12,.cls-13,.cls-14,.cls-15,.cls-16,.cls-19,.cls-20,.cls-21,.cls-22,.cls-3,.cls-4,.cls-5,.cls-7,.cls-9{stroke-miterlimit:10;}.cls-4{fill:#ffa72b;stroke:#ff2b18;}.cls-5{fill:#18ff20;}.cls-6{fill:#f4ff54;}.cls-8{fill:#ec6200;}.cls-11{fill:#dbe6ff;}.cls-12{fill:#ffa792;}.cls-13{fill:#005eff;}.cls-14{fill:#ff6046;}.cls-15{fill:#04d900;}.cls-16,.cls-22{fill:#fff;}.cls-17{fill:#18db00;}.cls-18{fill:#ff181e;}.cls-19{fill:#004e74;}.cls-20{fill:#71edff;}.cls-21{stroke:#36accc;}.cls-22{stroke:#3d3d3d;}</style><clipPath id="clip-path"><rect class="cls-1" x="661.11" width="610" height="1080"/></clipPath></defs><title>forside</title><g class="cls-2"><rect class="cls-3" x="661.11" width="610" height="1080"/><ellipse class="cls-4" cx="1104.49" cy="235.13" rx="290.88" ry="301.5"/><ellipse class="cls-5" cx="1093.46" cy="546.47" rx="9.22" ry="34.11" transform="translate(-10.48 1071.44) rotate(-51.99)"/><ellipse class="cls-5" cx="1107.71" cy="599.15" rx="8.87" ry="19.77" transform="matrix(0.86, -0.5, 0.5, 0.86, -151.07, 637.49)"/><path class="cls-5" d="M1170.57,481.5c-5.57-4.89-15.42-8.15-22.35-10.19-19.52-5.78-40.57,3.31-51.07,9.63"/><path class="cls-5" d="M1097.32,481.09c-1.6,1.05-2.84,1.93-3.66,2.54-9.29,8.7-12.94,16.84-14.56,22.7-2.26,8.2-.45,11.62-3.53,21.32-3.6,11.36-8,12.86-9,19-2.48,15.37,21.2,31.09,24.11,33,24,15.92,69,25.23,91.43,2,23.19-24.06,14.52-75.19-11.67-99.91"/><ellipse class="cls-5" cx="1087.88" cy="451.73" rx="7.28" ry="7.25"/><ellipse class="cls-5" cx="1188.24" cy="459.37" rx="7.28" ry="7.25"/><ellipse class="cls-5" cx="1193.44" cy="556.04" rx="9.21" ry="34.12" transform="translate(116.73 1313.78) rotate(-60.12)"/><ellipse class="cls-5" cx="1157.7" cy="602.49" rx="8.87" ry="19.77" transform="translate(-145.98 663.06) rotate(-30.15)"/><line class="cls-5" x1="1087.88" y1="458.99" x2="1099.1" y2="487.95"/><line class="cls-5" x1="1104.46" y1="483.95" x2="1092.69" y2="457.17"/><line class="cls-5" x1="1182.66" y1="464.03" x2="1159.96" y2="486.37"/><line class="cls-5" x1="1164.23" y1="489.12" x2="1184.86" y2="465.79"/><path class="cls-6" d="M1112.75,523.68c-7,3.54-15.9,2.81-23.38,2.09-1.91-.15-2.73-3.56-2.23-7.84.55-5,1-10.06,1.41-15.06.34-4.35,1.75-7.69,3.7-6.64,7.63,3.94,18.47,14,24.7,21.19,1.65,2.07,2.47,2.86,2,2.45s-1.13-.14-1.79.55A27.56,27.56,0,0,1,1112.75,523.68Z"/><path class="cls-7" d="M1112.75,523.68c-7,3.54-15.9,2.81-23.38,2.09-1.91-.15-2.73-3.56-2.23-7.84.55-5,1-10.06,1.41-15.06.34-4.35,1.75-7.69,3.7-6.64,7.63,3.94,18.47,14,24.7,21.19,1.65,2.07,2.47,2.86,2,2.45s-1.13-.14-1.79.55A27.56,27.56,0,0,1,1112.75,523.68Z"/><path class="cls-8" d="M1157.86,558c-3.85,2.13-14.76-14.41-34.87-15.61-20.59-2.31-33.09,15.36-32.25,15.61-.44.93,9.47-21.71,34.87-23.37C1151.48,532.76,1163,556.54,1157.86,558Z"/><path class="cls-7" d="M1157.86,558c-3.85,2.13-14.76-14.41-34.87-15.61-20.59-2.31-33.09,15.36-32.25,15.61-.44.93,9.47-21.71,34.87-23.37C1151.48,532.76,1163,556.54,1157.86,558Z"/><ellipse class="cls-9" cx="1094.11" cy="510.22" rx="4.64" ry="4.92"/><path class="cls-6" d="M1172.5,518.43c-3.84,9-11.91,14.74-17.93,12.58a85.9,85.9,0,0,1-18.09-9.34c-4-2.94,4.1-8.08,18-12S1176.34,509.42,1172.5,518.43Z"/><path class="cls-7" d="M1172.5,518.43c-3.84,9-11.91,14.74-17.93,12.58a85.9,85.9,0,0,1-18.09-9.34c-4-2.94,4.1-8.08,18-12S1176.34,509.42,1172.5,518.43Z"/><ellipse class="cls-9" cx="1149.01" cy="515.65" rx="3.92" ry="3.91"/><path class="cls-10" d="M1090.55,493.7c-1-3.67,10-5.9,13-2.09a16.88,16.88,0,0,1,3.77,3.23c-.76-1.23-2.81-2.75-6.24-3.07C1097.67,490.32,1091.16,494.56,1090.55,493.7Z"/><path class="cls-7" d="M1090.55,493.7c-1-3.67,10-5.9,13-2.09a16.88,16.88,0,0,1,3.77,3.23c-.76-1.23-2.81-2.75-6.24-3.07C1097.67,490.32,1091.16,494.56,1090.55,493.7Z"/><path class="cls-10" d="M1145.34,497.08c-1-3.68,10-5.91,13-2.09a15.91,15.91,0,0,1,3.78,3.23c-.76-1.23-2.81-2.76-6.24-3.08C1152.46,493.7,1145.94,497.94,1145.34,497.08Z"/><path class="cls-7" d="M1145.34,497.08c-1-3.68,10-5.91,13-2.09a15.91,15.91,0,0,1,3.78,3.23c-.76-1.23-2.81-2.76-6.24-3.08C1152.46,493.7,1145.94,497.94,1145.34,497.08Z"/><ellipse class="cls-11" cx="1062.98" cy="356.34" rx="27.39" ry="27.28"/><ellipse class="cls-12" cx="984.18" cy="473.63" rx="57.61" ry="57.37"/><ellipse class="cls-13" cx="900.87" cy="610.59" rx="73.71" ry="73.41"/><ellipse class="cls-14" cx="699.23" cy="976.22" rx="238.07" ry="237.09"/><path class="cls-15" d="M931.66,609.19c-4.51,3,2.82,15.68-2.28,15.49-23.71-.87-15.8,35.13-19.69,26.42-2.89-6.49-13,5.9-20.4,5.9-6.89,0-20.2-11.68-19.14-5.15,7.85,48.46-21.42-27.71-17-25.79,45.18,19.69,28.24-40.43,28.24-47.81,0-7.06-26.56,16.2-30.67,11.14-26.38-32.51,7.53-13.17,12.79-18.14,23-21.69,16.08-9.87,25.78-9.87,4.48,0,14.15-1.85,12.84,2.23-8.32,25.89,30.54,12.89,22.07,18.47C891.55,603.56,963.29,587.81,931.66,609.19Z"/><path class="cls-16" d="M948,564.47c0,3.56-1.58,11.39-5,9.32-15.89-9.6-8.55,5-15.89,5a26.92,26.92,0,0,1-13.85-3.6c-4.32-2.62,6.5-7.08-7-10.74-4.94-1.33,23.72-12.66,9.7-12.11-3.53.13,7.08-2.23,11.2-2.23,4.81,0,18.64,23.06,12.78,3C938.36,547.77,948,559.85,948,564.47Z"/><path class="cls-15" d="M961,582.19c-4.52-4.5-2.61,6.54-.55,7.21,12.41,4-2.11,7.41-3.69,7.41-1.37,0-2.59-2.25-3.37-5.74-.54-2.46-8.21-5.51-.87-8.88,3.94-1.81.55-8.21,1.41-10.88.75-2.33,1.74-3.75,2.83-3.75s2.23,1.64,3,4.29S963.89,585,961,582.19Z"/><path class="cls-15" d="M940.13,668.25c0,2.18-2.21,4.12-5.63,5.35-2.43.88-10.25,4.34-8.77,1.4,2.54-5.06-7.32-.7-9.9-1.84-2.77-1.23-4.51-3-4.51-4.91s-5.65-8.44,4.22-4.77c2.7,1,6.21-2,10.19-2,3.09,0,6.23,2.57,8.31,1.24C941.26,658.13,940.13,666,940.13,668.25Z"/><path class="cls-17" d="M858,787.87a3.43,3.43,0,0,1-2.5,1,3.5,3.5,0,0,1-3.52-3.51V760.52a3.5,3.5,0,0,1,3.52-3.51,3,3,0,0,1,1.32.29A8.39,8.39,0,0,1,858,758a91,91,0,0,0,8.11,6.44,35.21,35.21,0,0,0,6.24,3.51,20,20,0,0,0,5.33,1.46,45,45,0,0,0,5.36.29,51.78,51.78,0,0,0,5.32-.25,18.15,18.15,0,0,0,5.21-1.43,36,36,0,0,0,6.17-3.51A91.42,91.42,0,0,0,908,758a3.93,3.93,0,0,1,2.49-1,3.5,3.5,0,0,1,3.53,3.51v24.86a3.36,3.36,0,0,1-1,2.49,3.56,3.56,0,0,1-5,0,3.36,3.36,0,0,1-1-2.49V768.05a51.08,51.08,0,0,1-6.35,4.39,38.35,38.35,0,0,1-6,2.82,30.17,30.17,0,0,1-5.76,1.49,37.38,37.38,0,0,1-5.8.44,39.45,39.45,0,0,1-6.06-.44,30,30,0,0,1-5.8-1.49,36.1,36.1,0,0,1-5.88-2.82,54.61,54.61,0,0,1-6.27-4.39v17.33A3.4,3.4,0,0,1,858,787.87Zm20.48-2.49a4.52,4.52,0,1,1,1.33,3.22A4.36,4.36,0,0,1,878.52,785.38Z"/><path class="cls-17" d="M927.57,787.58a3.51,3.51,0,0,1-5.21.29,3.36,3.36,0,0,1-1-2.49,3,3,0,0,1,.74-2.12l17.84-23.91a9.74,9.74,0,0,1,7.71-3.8,9.58,9.58,0,0,1,4.18,1,8.44,8.44,0,0,1,3.23,2.63l17.85,23.77a5,5,0,0,1,.73,1.13,3.09,3.09,0,0,1,.29,1.35,3.39,3.39,0,0,1-1,2.49,3.43,3.43,0,0,1-2.5,1,3.29,3.29,0,0,1-2.79-1.39l-17.11-22.74a17.08,17.08,0,0,0-1.28-1.28,2.15,2.15,0,0,0-3.16,0,9.8,9.8,0,0,0-1.21,1.28Z"/><path class="cls-17" d="M1032.5,779.13q2.05,1.43,4.18,3.11a6.65,6.65,0,0,1,1.4,1.35,2.87,2.87,0,0,1,.59,1.79,3.5,3.5,0,0,1-3.53,3.51,4,4,0,0,1-2.5-1c-2-1.46-4.06-2.88-6.16-4.24a55.52,55.52,0,0,0-6.57-3.66,41.07,41.07,0,0,0-7.09-2.56,30.52,30.52,0,0,0-7.64-.95H990.57a2.67,2.67,0,0,0-2.27,2.71v6.21a3.32,3.32,0,0,1-1.07,2.49,3.52,3.52,0,0,1-5,0,3.39,3.39,0,0,1-1-2.49v-7a8.92,8.92,0,0,1,.69-3.47,9.07,9.07,0,0,1,1.88-2.85,8.37,8.37,0,0,1,2.79-1.9,8.68,8.68,0,0,1,3.52-.7h38.92a2.76,2.76,0,0,0,1.94-.77,2.5,2.5,0,0,0,.85-1.93,2.58,2.58,0,0,0-.85-1.91,2.75,2.75,0,0,0-1.94-.8H984.77a3.43,3.43,0,0,1-2.5-1,3.55,3.55,0,0,1,0-5,3.43,3.43,0,0,1,2.5-1h44a9.78,9.78,0,0,1,3.86.77,10.45,10.45,0,0,1,3.16,2.08,9.64,9.64,0,0,1,2.12,3.07,9.67,9.67,0,0,1,0,7.61,9.64,9.64,0,0,1-2.12,3.07,10.27,10.27,0,0,1-3.16,2.08,9.61,9.61,0,0,1-3.86.77h-.29Q1030.44,777.71,1032.5,779.13Z"/><path class="cls-17" d="M1052,775.69a9.83,9.83,0,0,1-5.18-5.15,9.79,9.79,0,0,1,0-7.61,9.89,9.89,0,0,1,2.09-3.07,10,10,0,0,1,3.09-2.08,9.43,9.43,0,0,1,3.81-.77h44.57a3.51,3.51,0,1,1,0,7h-44.71a2.81,2.81,0,0,0-2,.77,2.51,2.51,0,0,0-.84,1.94,2.55,2.55,0,0,0,.84,1.9,2.76,2.76,0,0,0,2,.8h40.6a9.78,9.78,0,0,1,3.86.77,10,10,0,0,1,3.12,2.08,9.84,9.84,0,0,1,2.09,3.11,9.72,9.72,0,0,1,.77,3.84,9.39,9.39,0,0,1-.77,3.8,9.77,9.77,0,0,1-2.09,3.07,9.3,9.3,0,0,1-3.12,2,10.12,10.12,0,0,1-3.86.73h-44.5a3.5,3.5,0,0,1-3.52-3.51,3.52,3.52,0,0,1,3.52-3.51h44.79a2.67,2.67,0,0,0,1.91-.76,2.5,2.5,0,0,0,.81-1.87,2.66,2.66,0,0,0-.81-2,2.6,2.6,0,0,0-1.91-.81h-40.75A9.27,9.27,0,0,1,1052,775.69Z"/><path class="cls-18" d="M958.53,824.14a2,2,0,0,1,1.56-.76,2,2,0,0,1,2,2,1.76,1.76,0,0,1-.42,1.22l-.05,0-10.25,13.76a6,6,0,0,1-1.93,1.58,5.27,5.27,0,0,1-2.52.61,5.34,5.34,0,0,1-2.39-.55,5.28,5.28,0,0,1-1.89-1.52l-10.29-13.71a2.59,2.59,0,0,1-.42-.65,1.71,1.71,0,0,1-.17-.78,2,2,0,0,1,2-2,1.91,1.91,0,0,1,1.61.8l9.87,13.12a8.58,8.58,0,0,0,.74.74,1.35,1.35,0,0,0,.91.4,1.33,1.33,0,0,0,.91-.4,4.67,4.67,0,0,0,.7-.74Z"/><path class="cls-18" d="M969.8,834.16A5.48,5.48,0,0,1,968,833a5.86,5.86,0,0,1-1.21-1.77,5.58,5.58,0,0,1,0-4.39A5.74,5.74,0,0,1,968,825a5.48,5.48,0,0,1,1.78-1.2,5.34,5.34,0,0,1,2.2-.45h25.71a2,2,0,0,1,2,2,2,2,0,0,1-2,2h-25.8a1.61,1.61,0,0,0-1.12.45,1.44,1.44,0,0,0-.49,1.11,1.48,1.48,0,0,0,.49,1.1,1.58,1.58,0,0,0,1.12.46h23.43a5.74,5.74,0,0,1,4,1.65,5.71,5.71,0,0,1,1.21,1.79,5.51,5.51,0,0,1,.45,2.22,5.3,5.3,0,0,1-.45,2.19,5.62,5.62,0,0,1-1.21,1.77,5.26,5.26,0,0,1-1.8,1.18,5.67,5.67,0,0,1-2.22.43H969.67a2,2,0,0,1-2-2,2,2,0,0,1,2-2h25.84a1.53,1.53,0,0,0,1.1-.45,1.42,1.42,0,0,0,.47-1.07,1.55,1.55,0,0,0-.47-1.14,1.51,1.51,0,0,0-1.1-.47H972A5.34,5.34,0,0,1,969.8,834.16Z"/><path class="cls-17" d="M743.39,895.39a3.5,3.5,0,0,1,3.53,3.51,3.28,3.28,0,0,1-1,2.37,3.63,3.63,0,0,1-2.27,1.14H728.93a7.55,7.55,0,0,0-3.64,1.06,7,7,0,0,0-2.24,2.23,8.37,8.37,0,0,0-1.1,2.85,15.37,15.37,0,0,0-.29,2.78v12.43a3.35,3.35,0,0,1-1,2.48,3.4,3.4,0,0,1-2.5,1,3.52,3.52,0,0,1-3.52-3.51V911.33a18,18,0,0,1,.59-4.57,17.19,17.19,0,0,1,1.76-4.35H692.88a3.51,3.51,0,1,1,0-7Z"/><path class="cls-17" d="M810.72,926.24a3.36,3.36,0,0,1-2.49,1,3.4,3.4,0,0,1-2.5-1,3.35,3.35,0,0,1-1-2.48v-8.92H761.31v8.92a3.53,3.53,0,0,1-6,2.48,3.35,3.35,0,0,1-1-2.48V898.9a3.5,3.5,0,0,1,3.52-3.51,3.5,3.5,0,0,1,3.53,3.51v8.92H804.7V898.9a3.36,3.36,0,0,1,1-2.49,3.43,3.43,0,0,1,2.5-1,3.5,3.5,0,0,1,3.52,3.51v24.86A3.35,3.35,0,0,1,810.72,926.24Z"/><path class="cls-17" d="M819.09,898.9a3.5,3.5,0,0,1,3.53-3.51h52.06a3.5,3.5,0,0,1,3.52,3.51,3.52,3.52,0,0,1-3.52,3.51H822.62a3.52,3.52,0,0,1-3.53-3.51Zm9,28.37a8,8,0,0,1-3.23-.7,9,9,0,0,1-2.86-1.93,10.31,10.31,0,0,1-2.06-3,9.33,9.33,0,0,1-.81-3.95v-6.58a2.76,2.76,0,0,1,1.14-2.63,7.37,7.37,0,0,1,3.56-.66h49.27a3.5,3.5,0,0,1,3.53,3.51,3.52,3.52,0,0,1-3.53,3.51H826.14v3.58a1.66,1.66,0,0,0,.63,1.28,2.37,2.37,0,0,0,1.65.55h46.26a3.5,3.5,0,0,1,3.52,3.51,3.52,3.52,0,0,1-3.52,3.51Z"/><path class="cls-17" d="M919.62,896.41a3.39,3.39,0,0,1,2.49-1,3.5,3.5,0,0,1,3.53,3.51v12.43a14.23,14.23,0,0,0,.33,2.89,7.78,7.78,0,0,0,1.24,2.88,7.64,7.64,0,0,0,2.5,2.23,8.23,8.23,0,0,0,4.15.92h17a17.49,17.49,0,0,1-1.76-4.35,18.55,18.55,0,0,1-.59-4.57V898.9a3.53,3.53,0,1,1,7.05,0v12.43a13.64,13.64,0,0,0,.33,2.85,9.09,9.09,0,0,0,1.18,2.89,6.89,6.89,0,0,0,2.35,2.26,7.31,7.31,0,0,0,3.85.92h7a8.28,8.28,0,0,0,4.11-.92,7.37,7.37,0,0,0,2.53-2.23,7.64,7.64,0,0,0,1.25-2.88,14.23,14.23,0,0,0,.33-2.89V898.9a3.36,3.36,0,0,1,1-2.49,3.43,3.43,0,0,1,2.5-1,3.5,3.5,0,0,1,3.52,3.51v12.43a17.74,17.74,0,0,1-.92,5.59A16.92,16.92,0,0,1,982,922a14.6,14.6,0,0,1-4.25,3.77,11,11,0,0,1-5.66,1.46H931.36a10,10,0,0,1-5.36-1.46,14.06,14.06,0,0,1-4-3.77,17.85,17.85,0,0,1-2.53-5.16,18.66,18.66,0,0,1-.88-5.55V898.9A3.36,3.36,0,0,1,919.62,896.41Z"/><path class="cls-17" d="M1052.66,911.33a18,18,0,0,1-.91,5.59,17.38,17.38,0,0,1-2.68,5.12,14.77,14.77,0,0,1-4.26,3.77,11,11,0,0,1-5.66,1.46h-33.48a10.78,10.78,0,0,1-5.36-1.65,14.62,14.62,0,0,1-4-3.76,17.34,17.34,0,0,1-2.53-5.05,17.41,17.41,0,0,1,0-11.08,17.27,17.27,0,0,1,2.68-5.12,14.73,14.73,0,0,1,4.26-3.76,10.91,10.91,0,0,1,5.65-1.46h33.49a10.7,10.7,0,0,1,5.36,1.64,14.8,14.8,0,0,1,4,3.77,17.54,17.54,0,0,1,2.53,5A18,18,0,0,1,1052.66,911.33Zm-10.94,8a7.5,7.5,0,0,0,2.54-2.23,7.78,7.78,0,0,0,1.24-2.88,12.82,12.82,0,0,0,0-5.78,7.83,7.83,0,0,0-1.24-2.89,7.61,7.61,0,0,0-2.54-2.23,8.25,8.25,0,0,0-4.11-.91H1008a8.21,8.21,0,0,0-4.15.91,7.55,7.55,0,0,0-2.5,2.23,7.85,7.85,0,0,0-1.25,2.89,12.82,12.82,0,0,0,0,5.78,7.8,7.8,0,0,0,1.25,2.88,7.44,7.44,0,0,0,2.5,2.23,8.21,8.21,0,0,0,4.15.92h29.66A8.25,8.25,0,0,0,1041.72,919.33Z"/><path class="cls-17" d="M1111.26,917.51q2.06,1.43,4.18,3.1a7,7,0,0,1,1.4,1.36,2.87,2.87,0,0,1,.58,1.79,3.5,3.5,0,0,1-3.52,3.51,3.92,3.92,0,0,1-2.5-1q-3-2.19-6.16-4.24a56.22,56.22,0,0,0-6.58-3.65,40.15,40.15,0,0,0-7.08-2.56,30.12,30.12,0,0,0-7.64-.95h-14.61a2.71,2.71,0,0,0-1.62.87,2.64,2.64,0,0,0-.66,1.83v6.22a3.31,3.31,0,0,1-1.06,2.48,3.51,3.51,0,0,1-6-2.48v-7a8.94,8.94,0,0,1,.7-3.48,9.46,9.46,0,0,1,1.87-2.85,8.67,8.67,0,0,1,6.32-2.59h38.91a2.81,2.81,0,0,0,2-.77,2.51,2.51,0,0,0,.84-1.94,2.55,2.55,0,0,0-.84-1.9,2.71,2.71,0,0,0-2-.8h-44.27a3.51,3.51,0,1,1,0-7h44a9.77,9.77,0,0,1,3.86.76,10.43,10.43,0,0,1,3.15,2.09,9.51,9.51,0,0,1,2.13,3.07,9.76,9.76,0,0,1,0,7.6,9.56,9.56,0,0,1-2.13,3.08,10.41,10.41,0,0,1-3.15,2.08,9.78,9.78,0,0,1-3.86.77h-.29C1108.54,915.67,1109.88,916.56,1111.26,917.51Z"/><path class="cls-17" d="M1130.93,926.5a10.24,10.24,0,0,1-3.19-2.08,10.12,10.12,0,0,1-2.17-3.07,9,9,0,0,1-.81-3.81V898.9a3.5,3.5,0,0,1,3.53-3.51,3.45,3.45,0,0,1,2.46,1,3.31,3.31,0,0,1,1.06,2.49v18.64a2.51,2.51,0,0,0,.85,1.9,2.72,2.72,0,0,0,1.94.81h44.06a3.48,3.48,0,0,1,3.52,3.51,3.5,3.5,0,0,1-3.52,3.51h-43.84A10,10,0,0,1,1130.93,926.5Z"/><path class="cls-17" d="M1234.32,920.25a8.28,8.28,0,0,0,4.11-.92,7.46,7.46,0,0,0,2.53-2.23,7.8,7.8,0,0,0,1.25-2.88,12.82,12.82,0,0,0,0-5.78,7.85,7.85,0,0,0-1.25-2.89,7.57,7.57,0,0,0-2.53-2.23,8.28,8.28,0,0,0-4.11-.91h-41.27a3.51,3.51,0,1,1,0-7h42.81a10.91,10.91,0,0,1,5.65,1.46,14.6,14.6,0,0,1,4.26,3.76,17,17,0,0,1,2.68,5.12,18.09,18.09,0,0,1,.92,5.6,18.28,18.28,0,0,1-.88,5.48,17.37,17.37,0,0,1-2.54,5.05,14.62,14.62,0,0,1-4,3.76,10.78,10.78,0,0,1-5.36,1.65h-43.54a3.5,3.5,0,0,1-3.52-3.51V911.33a3.39,3.39,0,0,1,1-2.49,3.53,3.53,0,0,1,6,2.49v8.92Z"/><rect class="cls-19" x="640.78" y="717.19" width="172.83" height="61.87" rx="12"/><rect class="cls-19" x="697.26" y="635.63" width="59.87" height="103.5" rx="12"/><rect class="cls-19" x="714.77" y="559.69" width="28.81" height="90.56" rx="12"/><path class="cls-19" d="M682.06,637.22,835.59,513.54a12,12,0,0,0,1.79-16.87L789.3,437.48a12.11,12.11,0,0,0-16.94-1.78L618.84,559.37a12,12,0,0,0-1.79,16.88l48.07,59.18A12.11,12.11,0,0,0,682.06,637.22Z"/><path class="cls-19" d="M827.53,471.85,860.21,443a12,12,0,0,0,1-16.94L854,417.91a12.13,12.13,0,0,0-17-1l-32.68,28.86a12,12,0,0,0-1,16.94l7.25,8.14A12.13,12.13,0,0,0,827.53,471.85Z"/><path class="cls-20" d="M856.76,425.54,1083,243.31a4.52,4.52,0,0,0,.67-6.34l0,0a4.54,4.54,0,0,0-6.36-.67L851,418.5a4.5,4.5,0,0,0-.67,6.33l0,0A4.56,4.56,0,0,0,856.76,425.54Z"/></g><path class="cls-21" d="M1050.27,593.44c0,44.46,81.59,80.43,182.43,80.43"/><path class="cls-21" d="M1121.43,601.31c0,22.08,55.58,39.94,124.26,39.94"/><ellipse class="cls-22" cx="684.27" cy="34.88" rx="5.08" ry="5.06"/><ellipse class="cls-22" cx="745.27" cy="65.81" rx="3.39" ry="3.37"/><ellipse class="cls-22" cx="785.93" cy="136.69" rx="3.39" ry="3.37"/><ellipse class="cls-22" cx="685.4" cy="473.63" rx="5.65" ry="5.63"/><ellipse class="cls-22" cx="1086.98" cy="721.12" rx="6.78" ry="6.75"/><ellipse class="cls-22" cx="1245.69" cy="600.19" rx="6.78" ry="6.75"/><ellipse class="cls-22" cx="1013.55" cy="558.56" rx="4.52" ry="4.5"/><ellipse class="cls-22" cx="744.14" cy="345.38" rx="2.26" ry="2.25"/><ellipse class="cls-22" cx="996.61" cy="665.44" rx="2.26" ry="2.25"/><circle class="cls-22" cx="893.82" cy="518.63"/><ellipse class="cls-22" cx="702.34" cy="163.13" rx="3.95" ry="3.94"/><ellipse class="cls-22" cx="738.21" cy="282.09" rx="3.67" ry="3.66"/><ellipse class="cls-22" cx="1207.85" cy="770.06" rx="4.52" ry="4.5"/><ellipse class="cls-22" cx="675.79" cy="374.63" rx="4.52" ry="4.5"/><ellipse class="cls-22" cx="794.12" cy="401.91" rx="4.8" ry="4.78"/></svg>
