<svg id="Layer_1" data-name="Layer 1" xmlns="http://www.w3.org/2000/svg" xmlns:xlink="http://www.w3.org/1999/xlink" viewBox="0 0 1920 1080"><defs><style>.cls-1{fill:none;}.cls-2{clip-path:url(#clip-path);}.cls-3{fill:#474747;}.cls-4{fill:#2fa01c;}</style><clipPath id="clip-path"><rect class="cls-1" x="-0.1" y="-1098" width="1920" height="1080"/></clipPath></defs><title>game_over</title><g class="cls-2"><image width="793" height="1146" transform="translate(1547 -1131)" xlink:href="game_over1.png"/><rect class="cls-3" x="-66.35" y="-169.82" width="326" height="110" rx="12" transform="translate(113.33 34.34) rotate(-46.47)"/><rect class="cls-3" x="1658.74" y="-169.82" width="326" height="110" rx="12" transform="translate(3159.69 1126.88) rotate(-133.53)"/></g><rect width="1920" height="1080"/><path class="cls-4" d="M256.3,481.64a9.56,9.56,0,0,1,9.6-9.6h76.6a23.4,23.4,0,0,1,9.4,1.9,24.62,24.62,0,0,1,7.7,5.2,23,23,0,0,1,5.1,7.8,25.35,25.35,0,0,1,1.8,9.5v4.4a25.35,25.35,0,0,1-1.8,9.5,23,23,0,0,1-5.1,7.8,24.62,24.62,0,0,1-7.7,5.2,23.4,23.4,0,0,1-9.4,1.9H238.3a26.94,26.94,0,0,1-14.6-4,38.15,38.15,0,0,1-10.9-10.3,48.71,48.71,0,0,1-6.9-14.1,51.57,51.57,0,0,1-2.4-15.2,49.19,49.19,0,0,1,2.5-15.3,46.84,46.84,0,0,1,7.3-14A40,40,0,0,1,224.9,442a29.77,29.77,0,0,1,15.4-4H356.9a9.6,9.6,0,1,1,0,19.2H244.7q-7,0-11.3,2.5a20.92,20.92,0,0,0-6.8,6.1,21.32,21.32,0,0,0-3.4,7.9,35.12,35.12,0,0,0,0,15.8,21.32,21.32,0,0,0,3.4,7.9,20.92,20.92,0,0,0,6.8,6.1q4.31,2.5,11.3,2.5h97a5.59,5.59,0,0,0,4.3-2.2,7.69,7.69,0,0,0,1.9-5.2,8.28,8.28,0,0,0-1.7-5.2,5.39,5.39,0,0,0-4.5-2.2H265.9a9.56,9.56,0,0,1-9.6-9.6Z"/><path class="cls-4" d="M403.5,521.64a9.54,9.54,0,0,1-17-6,8.26,8.26,0,0,1,2-5.8l48.6-65.4a25.42,25.42,0,0,1,9-7.5,26.28,26.28,0,0,1,23.4-.3,23.28,23.28,0,0,1,8.8,7.2l48.6,65a13.94,13.94,0,0,1,2,3.1,8.63,8.63,0,0,1,.8,3.7,9.56,9.56,0,0,1-9.6,9.6,8.94,8.94,0,0,1-7.6-3.8l-46.6-62.2a44.23,44.23,0,0,0-3.5-3.5,5.82,5.82,0,0,0-8.6,0,25.63,25.63,0,0,0-3.3,3.5Zm42.2-18a12.29,12.29,0,1,1,3.6,8.8A12,12,0,0,1,445.7,503.64Z"/><path class="cls-4" d="M566.1,522.44a9.6,9.6,0,0,1-16.4-6.8v-68a9.56,9.56,0,0,1,9.6-9.6,8,8,0,0,1,3.6.8,21.25,21.25,0,0,1,3.2,2,250.59,250.59,0,0,0,22.1,17.6,94.37,94.37,0,0,0,17,9.6,54.56,54.56,0,0,0,14.5,4,125.91,125.91,0,0,0,14.6.8,139.11,139.11,0,0,0,14.5-.7,49.74,49.74,0,0,0,14.2-3.9,98.42,98.42,0,0,0,16.8-9.6,253,253,0,0,0,22.3-17.8,10.68,10.68,0,0,1,6.8-2.8,9.56,9.56,0,0,1,9.6,9.6v68a9.6,9.6,0,1,1-19.2,0v-47.4a141.05,141.05,0,0,1-17.3,12,104.52,104.52,0,0,1-16.2,7.7,81.77,81.77,0,0,1-15.7,4.1,103.79,103.79,0,0,1-15.8,1.2,109.67,109.67,0,0,1-16.5-1.2,81.21,81.21,0,0,1-15.8-4.1,96.72,96.72,0,0,1-16-7.7,150.54,150.54,0,0,1-17.1-12v47.4A9.28,9.28,0,0,1,566.1,522.44Zm55.8-6.8a12.29,12.29,0,1,1,3.6,8.8A12,12,0,0,1,621.9,515.64Z"/><path class="cls-4" d="M779.69,457.24q-7,0-11.3,2.5a21,21,0,0,0-6.8,6.1,21.48,21.48,0,0,0-3.4,7.9,35.12,35.12,0,0,0,0,15.8,21.48,21.48,0,0,0,3.4,7.9,21,21,0,0,0,6.8,6.1q4.3,2.5,11.3,2.5h110.2a9.6,9.6,0,1,1,0,19.2H773.29a27,27,0,0,1-14.6-4,38.28,38.28,0,0,1-10.9-10.3,48.71,48.71,0,0,1-6.9-14.1,51.57,51.57,0,0,1-2.4-15.2,49.48,49.48,0,0,1,2.5-15.3,46.84,46.84,0,0,1,7.3-14,40,40,0,0,1,11.6-10.3,29.79,29.79,0,0,1,15.4-4h114.6a9.6,9.6,0,1,1,0,19.2Zm108.6,17.6a9.6,9.6,0,0,1-6.8,16.4h-99.6a9.6,9.6,0,1,1,0-19.2h99.6A9.23,9.23,0,0,1,888.29,474.84Z"/><path class="cls-4" d="M1172.29,481.64a49.19,49.19,0,0,1-2.5,15.3,46.62,46.62,0,0,1-7.3,14,40,40,0,0,1-11.6,10.3,29.74,29.74,0,0,1-15.4,4h-91.2a29.27,29.27,0,0,1-14.6-4.5,40,40,0,0,1-10.9-10.3,47.75,47.75,0,0,1-6.9-13.8,48.07,48.07,0,0,1,.1-30.3,46.84,46.84,0,0,1,7.3-14,40,40,0,0,1,11.6-10.3,29.77,29.77,0,0,1,15.4-4h91.2a29.27,29.27,0,0,1,14.6,4.5,40,40,0,0,1,10.9,10.3,47.75,47.75,0,0,1,6.9,13.8A49.65,49.65,0,0,1,1172.29,481.64Zm-29.8,21.9a20.6,20.6,0,0,0,6.9-6.1,21.32,21.32,0,0,0,3.4-7.9,35.12,35.12,0,0,0,0-15.8,21.32,21.32,0,0,0-3.4-7.9,20.6,20.6,0,0,0-6.9-6.1,22.43,22.43,0,0,0-11.2-2.5h-80.8q-7,0-11.3,2.5a20.92,20.92,0,0,0-6.8,6.1,21.48,21.48,0,0,0-3.4,7.9,35.12,35.12,0,0,0,0,15.8,21.48,21.48,0,0,0,3.4,7.9,20.92,20.92,0,0,0,6.8,6.1q4.3,2.5,11.3,2.5h80.8A22.43,22.43,0,0,0,1142.49,503.54Z"/><path class="cls-4" d="M1313.49,441.64a9.54,9.54,0,0,1,17,6,8.31,8.31,0,0,1-2,5.8l-.2.2-48.4,65.2a27.78,27.78,0,0,1-9.1,7.5,25.69,25.69,0,0,1-32.1-6.9l-48.6-65a13.59,13.59,0,0,1-2-3.1,8.63,8.63,0,0,1-.8-3.7,9.56,9.56,0,0,1,9.6-9.6,9,9,0,0,1,7.6,3.8l46.6,62.2a42.59,42.59,0,0,0,3.5,3.5,5.82,5.82,0,0,0,8.6,0,25.63,25.63,0,0,0,3.3-3.5Z"/><path class="cls-4" d="M1381.69,457.24q-7,0-11.3,2.5a20.92,20.92,0,0,0-6.8,6.1,21.32,21.32,0,0,0-3.4,7.9,35.12,35.12,0,0,0,0,15.8,21.32,21.32,0,0,0,3.4,7.9,20.92,20.92,0,0,0,6.8,6.1q4.3,2.5,11.3,2.5h110.2a9.6,9.6,0,1,1,0,19.2h-116.6a26.94,26.94,0,0,1-14.6-4,38.15,38.15,0,0,1-10.9-10.3,48.71,48.71,0,0,1-6.9-14.1,51.57,51.57,0,0,1-2.4-15.2,49.19,49.19,0,0,1,2.5-15.3,46.84,46.84,0,0,1,7.3-14,40,40,0,0,1,11.6-10.3,29.77,29.77,0,0,1,15.4-4h114.6a9.6,9.6,0,1,1,0,19.2Zm108.6,17.6a9.6,9.6,0,0,1-6.8,16.4h-99.6a9.6,9.6,0,1,1,0-19.2h99.6A9.25,9.25,0,0,1,1490.29,474.84Z"/><path class="cls-4" d="M1677.89,515.64a9.56,9.56,0,0,1-9.6,9.6,8,8,0,0,1-3.6-.8,14.39,14.39,0,0,1-3-2,20.35,20.35,0,0,1-1.8-2,76.87,76.87,0,0,0-16.9-16,71,71,0,0,0-18.3-8.8,87,87,0,0,0-20.3-3.7q-10.7-.7-22.9-.7h-40.8v24.4a9.11,9.11,0,0,1-2.9,6.8,9.35,9.35,0,0,1-6.7,2.8,9.56,9.56,0,0,1-9.6-9.6v-51.4a25.58,25.58,0,0,1,2.2-10.8,27.94,27.94,0,0,1,5.6-8.2,25,25,0,0,1,7.8-5.3,22,22,0,0,1,8.8-1.9h104.4a27.09,27.09,0,0,1,10.6,2.1,29,29,0,0,1,8.8,5.7,27,27,0,0,1,6,8.4,24.62,24.62,0,0,1,2.2,10.4,9.6,9.6,0,1,1-19.2,0,6.61,6.61,0,0,0-2.1-5,8.78,8.78,0,0,0-4.9-2.4h-104.8a6.45,6.45,0,0,0-4.2,1.3,5.48,5.48,0,0,0-2,3.1V472h40.8a230,230,0,0,1,31.8,2,113.92,113.92,0,0,1,25.7,6.5,78.13,78.13,0,0,1,20.6,11.8,81.13,81.13,0,0,1,16.3,17.9A8.76,8.76,0,0,1,1677.89,515.64Z"/></svg>
