<svg id="Layer_1" data-name="Layer 1" xmlns="http://www.w3.org/2000/svg" xmlns:xlink="http://www.w3.org/1999/xlink" viewBox="0 0 1920 1080"><defs><style>.cls-1,.cls-13,.cls-15,.cls-16{fill:none;}.cls-2{clip-path:url(#clip-path);}.cls-13,.cls-14,.cls-15,.cls-16,.cls-3{stroke:#000;stroke-miterlimit:10;}.cls-3{fill:url(#linear-gradient);}.cls-4{fill:#ff6046;}.cls-5{fill:#474747;}.cls-6{fill:#545352;}.cls-7{fill:#32cc1d;}.cls-8{fill:#fff;}.cls-9{fill:#32a01d;}.cls-10{fill:#32ac1d;}.cls-11{fill:#32b61d;}.cls-12{fill:#fff657;}.cls-15{stroke-width:6px;}.cls-16{stroke-width:3px;}.cls-17{fill:#005eff;}.cls-18{fill:#ffa792;}.cls-19{fill:#04d900;}.cls-20{fill:#2fa01c;}</style><clipPath id="clip-path"><rect class="cls-1" x="-0.1" y="2" width="1920" height="1080"/></clipPath><linearGradient id="linear-gradient" x1="1922.18" y1="545.7" x2="-1.38" y2="539.3" gradientUnits="userSpaceOnUse"><stop offset="0" stop-color="#fff"/><stop offset="0.01" stop-color="#f6f6f6"/><stop offset="0.05" stop-color="#c8c8c8"/><stop offset="0.09" stop-color="#9d9d9d"/><stop offset="0.14" stop-color="#777"/><stop offset="0.2" stop-color="#575757"/><stop offset="0.25" stop-color="#3b3b3b"/><stop offset="0.32" stop-color="#252525"/><stop offset="0.4" stop-color="#141414"/><stop offset="0.49" stop-color="#090909"/><stop offset="0.63" stop-color="#020202"/><stop offset="1"/></linearGradient></defs><title>game_complete</title><g class="cls-2"><rect class="cls-3" x="0.4" y="2.5" width="1920" height="1080"/><image width="793" height="1146" transform="translate(1547 -31)" xlink:href="game_complete1.png"/><circle class="cls-4" cx="-92.1" cy="542" r="431"/><rect class="cls-5" x="-66.35" y="930.18" width="326" height="110" rx="12" transform="translate(-684.18 376.72) rotate(-46.47)"/><rect class="cls-6" x="182.8" y="805.23" width="126" height="35" rx="12" transform="translate(-519.98 434.29) rotate(-46.47)"/><path class="cls-7" d="M1609.4,214c0,20.18-7.68,38.3-19.18,53.07C1522.9,353.5,1514.9,299.5,1526.4,297c22.4-4.87,6.5,62.5-58.69-24.31-12.75-17-24.31-35.77-24.31-58.69a83,83,0,0,1,166,0Z"/><path d="M1522.83,208.5c-.57,11.44-14,25.22-30.37,25-16.39,0-29.76-13.75-30.43-24.92-.74-11.33,12.66-15.66,30.39-15.88S1523.48,196.9,1522.83,208.5Z"/><path d="M1595.83,208.5c-.57,11.44-14,25.22-30.37,25-16.39,0-29.76-13.75-30.43-24.92-.74-11.33,12.66-15.66,30.39-15.88S1596.48,196.9,1595.83,208.5Z"/><path d="M1573.2,256.64c1.85-.05,1.24,8-6.53,16.68a55.12,55.12,0,0,1-80.47-.05c-7.77-8.68-8.4-16.7-6.6-16.64,3.84-.12,20.3,23.28,46.77,22.24C1552.82,279.84,1569.25,256.47,1573.2,256.64Z"/><ellipse class="cls-8" cx="1475.9" cy="201.5" rx="8" ry="5.5"/><ellipse class="cls-8" cx="1547.9" cy="201.5" rx="8" ry="5.5"/><path class="cls-9" d="M1481.41,148.05c-4.85-4.23-8.67-8.54-14.26-10.32-18.63-4.14-11.32-5-9.8-6.26,1.23-1,10.1,0,19.11,5.31a46.81,46.81,0,0,1,11.25,9.15c4.15,4.68,6.07,9.54,8,13.38,5,12.44,1.25,10.18.88,10.27-1.69.08-.5,4.8-6.4-11C1488.44,155.25,1486.77,153,1481.41,148.05Z"/><path class="cls-9" d="M1464.3,128.34c.45,2.78-4.58,5.9-10.9,8.37s-12.35,3.6-13.89,1.25,2.8-7.83,10.24-10.69S1463.88,125.6,1464.3,128.34Z"/><path class="cls-9" d="M1575.81,146.44c4.33-3.67,7.75-7.41,12.73-8.9,16.56-3.34,10.1-4.18,8.76-5.34-1.08-.87-9-.16-17,4.4a40.44,40.44,0,0,0-10,7.94c-3.7,4.09-5.43,8.35-7.14,11.72-4.48,10.93-1.11,8.94-.8,9,1.5.07.41,4.22,5.66-9.64C1569.55,152.72,1571,150.73,1575.81,146.44Z"/><path class="cls-9" d="M1611.37,138.23c-1.36,2.06-6.61,1-12.16-1.06s-10-4.85-9.57-7.29,6.2-3.51,12.74-1S1612.72,136.2,1611.37,138.23Z"/><path class="cls-7" d="M508.9,874c17.67,9.76-20.82,34.42-19.18,53.07C492.4,957.5,451.56,957,425.9,957c-22.92,0-62.5-.5-58.69-24.31,3.36-21-43.43-46-24.31-58.69,32.5-21.5,10.49-46.26,27.19-61.44a83,83,0,0,1,111.86.23C498.52,828,475.4,855.5,508.9,874Z"/><path class="cls-10" d="M362.69,799.66c-5.11-6.32-8.12-13.52-12.45-17.74-13.73-13.4-7.24-12.51-6.28-13.23,1.13-.85,6.75,4.57,14.07,13.25,3.26,3.86,6.86,8.38,10.55,13.28,4.66,6.17,8.17,12.47,12,17,12,14.3,7.77,13.25,6.77,14s.57,8.43-13.23-12.26C371.1,809.47,368.49,806.85,362.69,799.66Z"/><ellipse class="cls-10" cx="339.9" cy="766.5" rx="9.5" ry="8"/><path class="cls-10" d="M493.25,798.16c5.11-6.32,8.12-13.52,12.45-17.74,13.73-13.4,7.24-12.51,6.28-13.23-1.13-.85-6.75,4.57-14.07,13.25-3.26,3.86-6.86,8.38-10.55,13.28-4.66,6.17-8.17,12.47-12,17-12,14.3-7.77,13.25-6.77,14s-.58,8.43,13.23-12.26C484.84,808,487.45,805.35,493.25,798.16Z"/><ellipse class="cls-10" cx="514.9" cy="766.5" rx="9.5" ry="8"/><path class="cls-11" d="M399.4,956.51c1,2.11-7.19-.17-20.14,3.66-12.92,4.55-20.75,8.66-19.86-2.68s10-15.21,20.12-11C389.65,949.76,398.59,954.55,399.4,956.51Z"/><path class="cls-11" d="M490.78,961.44c-1.12,1-9.76-2.43-16.88-3.09-4.49-2.67-14.29-2.19-19.63-2.61-2.87-2.32,16.44-12.8,26.33-10.19C491.51,946.9,492.65,959.52,490.78,961.44Z"/><path class="cls-12" d="M399.3,864.47a47.3,47.3,0,0,0-23.9-6c-5.12.19-9-3-7.44-8.18h0c1.55-5.22,9.22-9.21,15.55-7.77A59.26,59.26,0,0,1,410.8,856c4.37,4,4.3,8.16,1,9.53h0C408.49,867,403.29,866.58,399.3,864.47Z"/><path class="cls-13" d="M399.3,864.47a47.3,47.3,0,0,0-23.9-6c-5.12.19-9-3-7.44-8.18h0c1.55-5.22,9.22-9.21,15.55-7.77A59.26,59.26,0,0,1,410.8,856c4.37,4,4.3,8.16,1,9.53h0C408.49,867,403.29,866.58,399.3,864.47Z"/><path class="cls-12" d="M472.63,862.05a35.8,35.8,0,0,0-23.17,3.58c-4.2,2.21-8.8,2.14-11.23-1.24-.56-.82-1.14-1.65-1.72-2.47-2.52-3.28-.79-9.45,4.87-12.21a46.25,46.25,0,0,1,29.18-4c6.16,1.16,11,6.63,11,10.19,0,.87,0,1.74,0,2.6C481.49,862.05,477.49,862.88,472.63,862.05Z"/><path class="cls-13" d="M472.63,862.05a35.8,35.8,0,0,0-23.17,3.58c-4.2,2.21-8.8,2.14-11.23-1.24-.56-.82-1.14-1.65-1.72-2.47-2.52-3.28-.79-9.45,4.87-12.21a46.25,46.25,0,0,1,29.18-4c6.16,1.16,11,6.63,11,10.19,0,.87,0,1.74,0,2.6C481.49,862.05,477.49,862.88,472.63,862.05Z"/><circle class="cls-14" cx="403.4" cy="858.5" r="7"/><circle class="cls-14" cx="444.4" cy="858.5" r="7"/><path class="cls-15" d="M378.4,920.5c0-19.9,21-36,47-36"/><path class="cls-15" d="M470.4,920.5c0-19.9-20.13-36-45-36"/><path class="cls-16" d="M419.4,855.5c0-10.5-16.55-19-37-19"/><path class="cls-16" d="M432.4,855.5c0-10.5,16.55-19,37-19"/><circle class="cls-17" cx="705.4" cy="542" r="152"/><circle class="cls-18" cx="1088.9" cy="542" r="128.5"/><image width="190" height="190" transform="translate(1332 447)" xlink:href="game_complete2.png"/><path class="cls-19" d="M783.9,560c-119.06-41.72-47.9,76.63-32.13,71.67,61.35-19.28-69,48.31-63.87,24.33,12-56-71.51-3.07-61.26-22.08C733.9,435,619.43,571.24,591.9,560c-49-20,5.55-77.59,28.12-67.88C663.9,511,661.39,464,687.9,464c31.13,0,7,76,76.34,37.79C782,492,804.56,567.24,783.9,560Z"/><path class="cls-8" d="M805.4,463.5c0,8.2-2.12,27.33-7.35,21.8C777.9,464,777.4,497.5,767.9,494c-9.33-3.44-10.5-18.5-24-5-6.51,6.51-19.5-21.16-10.54-25.46,36.5-17.5-20.5,5.5,8.94-23.74,7.09-7.05,24-22.6,27.06-12.26,15.5,52.5,21.52,5.28,28.12,13.52A35.84,35.84,0,0,1,805.4,463.5Z"/><path class="cls-19" d="M853.4,535.5c7.25,3.19-.79,27.88-1.65,21.58-2.85-21.08-5.46,20.09-9.35,19.42-14.5-2.5-7.87-8.82-9.72-21.77-.82-5.73,14.22-3.73-1.28-19.23-6.44-6.44-1.73-30.09,2.15-24.33,13.35,19.83,5.22-16.67,8.85-16.67,4.21,0,7.87,8.83,9.72,21.79C852.94,522,840.9,530,853.4,535.5Z"/><rect class="cls-5" x="1658.74" y="930.18" width="326" height="110" rx="12" transform="translate(2362.18 2984.49) rotate(-133.53)"/><rect class="cls-6" x="1609.59" y="805.23" width="126" height="35" rx="12" transform="translate(2228.08 2602.03) rotate(-133.53)"/></g><rect class="cls-20" x="512.1" y="21.15" width="908.9" height="137.85" rx="12"/><path class="cls-8" d="M594.72,34a2.49,2.49,0,0,1,2.51,2.51,2.38,2.38,0,0,1-.68,1.7,2.58,2.58,0,0,1-1.62.81H584.41a5.38,5.38,0,0,0-2.59.76,5,5,0,0,0-1.59,1.6,5.82,5.82,0,0,0-.79,2,10.62,10.62,0,0,0-.21,2v8.89a2.51,2.51,0,1,1-5,0V45.38a13.23,13.23,0,0,1,.42-3.28A12.9,12.9,0,0,1,575.88,39H558.72a2.51,2.51,0,1,1,0-5Z"/><path class="cls-8" d="M606.75,56.05a2.52,2.52,0,0,1-4.29-1.78V36.48a2.42,2.42,0,0,1,.74-1.78,2.52,2.52,0,0,1,3.55,0,2.42,2.42,0,0,1,.74,1.78V54.27A2.42,2.42,0,0,1,606.75,56.05Z"/><path class="cls-8" d="M656.88,54.27a2.49,2.49,0,0,1-2.51,2.51,2.49,2.49,0,0,1-2.51-2.51V42.86c0-1.43-.09-2.14-.27-2.14s-.62.47-1.46,1.41L638.62,55.21a4.28,4.28,0,0,1-1.68,1.18,5.77,5.77,0,0,1-2.14.39,5.86,5.86,0,0,1-2.15-.39A4.24,4.24,0,0,1,631,55.21L619.47,42.13q-1.2-1.41-1.47-1.41c-.17,0-.26.71-.26,2.14V54.27a2.51,2.51,0,1,1-5,0V39a5.45,5.45,0,0,1,1.2-3.56,4.05,4.05,0,0,1,3.3-1.46,4.15,4.15,0,0,1,2.25.63,9.67,9.67,0,0,1,1.83,1.51l12,13.71a5.64,5.64,0,0,0,.66.55,1.28,1.28,0,0,0,1.62,0,4.77,4.77,0,0,0,.65-.55l12-13.71h0a5.56,5.56,0,0,1,1.78-1.57,4.7,4.7,0,0,1,2.3-.57,4,4,0,0,1,3.29,1.46A5.41,5.41,0,0,1,656.88,39Z"/><path class="cls-8" d="M662.11,36.48A2.49,2.49,0,0,1,664.62,34h37.1a2.51,2.51,0,1,1,0,5h-37.1a2.49,2.49,0,0,1-2.51-2.51Zm6.38,20.3a5.65,5.65,0,0,1-2.3-.5,6.45,6.45,0,0,1-2-1.38,7.22,7.22,0,0,1-1.46-2.15,6.58,6.58,0,0,1-.58-2.82V45.22a2,2,0,0,1,.81-1.89,5.3,5.3,0,0,1,2.54-.47h35.11a2.52,2.52,0,0,1,0,5H667.13v2.56a1.2,1.2,0,0,0,.45.92,1.7,1.7,0,0,0,1.17.39h33a2.51,2.51,0,1,1,0,5Z"/><path class="cls-8" d="M709.46,39.62a3.26,3.26,0,0,1,5.55-2.3,3.26,3.26,0,0,1-4.61,4.6A3.15,3.15,0,0,1,709.46,39.62Zm0,14.65A3.26,3.26,0,0,1,715,52a3.26,3.26,0,0,1-4.61,4.6A3.15,3.15,0,0,1,709.46,54.27Z"/><path class="cls-8" d="M598.8,108.16a13.13,13.13,0,0,1-.65,4,12.52,12.52,0,0,1-1.91,3.66,10.29,10.29,0,0,1-3,2.69,7.76,7.76,0,0,1-4,1H565.31a7,7,0,0,1-3.82-1,10,10,0,0,1-2.85-2.69,12.92,12.92,0,0,1-1.8-3.69,13.47,13.47,0,0,1-.63-4,13.07,13.07,0,0,1,.65-4,12.52,12.52,0,0,1,1.91-3.66,10.47,10.47,0,0,1,3-2.7,7.85,7.85,0,0,1,4-1H589.7a7.7,7.7,0,0,1,3.82,1.17,10.76,10.76,0,0,1,2.85,2.7,12.59,12.59,0,0,1,1.8,3.61A12.89,12.89,0,0,1,598.8,108.16ZM591,113.89a5.43,5.43,0,0,0,1.81-1.59,5.78,5.78,0,0,0,.89-2.07,9.39,9.39,0,0,0,0-4.13,5.78,5.78,0,0,0-.89-2.07,5.45,5.45,0,0,0-1.81-1.6,5.94,5.94,0,0,0-2.93-.65H567a5.93,5.93,0,0,0-3,.65,5.54,5.54,0,0,0-1.78,1.6,5.78,5.78,0,0,0-.89,2.07,9.39,9.39,0,0,0,0,4.13,5.78,5.78,0,0,0,.89,2.07,5.51,5.51,0,0,0,1.78,1.59,5.82,5.82,0,0,0,3,.66h21A5.83,5.83,0,0,0,591,113.89Zm-1.72-7.51a2.54,2.54,0,0,1,0,3.56,2.43,2.43,0,0,1-1.78.73H567.56a2.39,2.39,0,0,1-1.77-.73,2.51,2.51,0,0,1,1.77-4.29h19.89A2.47,2.47,0,0,1,589.23,106.38Z"/><path class="cls-8" d="M644.22,115.28a2.51,2.51,0,0,1-1.78,4.29h-35.9a2.39,2.39,0,0,1-1.77-.73,2.42,2.42,0,0,1-.74-1.78v-5a6.68,6.68,0,0,1,.47-2.49,5.94,5.94,0,0,1,1.34-2,6.35,6.35,0,0,1,2-1.36,6.07,6.07,0,0,1,2.48-.5H638.1a2,2,0,0,0,1.38-.55,1.79,1.79,0,0,0,.6-1.38,1.84,1.84,0,0,0-.6-1.37,2,2,0,0,0-1.38-.57H606.54a2.39,2.39,0,0,1-1.77-.73,2.51,2.51,0,0,1,0-3.56,2.39,2.39,0,0,1,1.77-.73h31.35a6.81,6.81,0,0,1,2.74.55,7.07,7.07,0,0,1,2.25,1.49A7,7,0,0,1,644.4,101a7,7,0,0,1,0,5.45,6.84,6.84,0,0,1-1.52,2.19,7.27,7.27,0,0,1-2.25,1.5,7,7,0,0,1-2.74.54H610.63a2,2,0,0,0-1.16.63,1.91,1.91,0,0,0-.47,1.31v1.94h33.44A2.41,2.41,0,0,1,644.22,115.28Z"/><path class="cls-8" d="M650.18,102.41a3.25,3.25,0,0,1,5.55-2.3,3.1,3.1,0,0,1,.94,2.3,3.26,3.26,0,0,1-5.55,2.3A3.17,3.17,0,0,1,650.18,102.41Zm0,14.65a3.25,3.25,0,0,1,5.55-2.3,3.28,3.28,0,0,1,0,4.6,3.25,3.25,0,0,1-5.55-2.3Z"/><path class="cls-8" d="M704.49,108.16a12.84,12.84,0,0,1-.65,4,12.29,12.29,0,0,1-1.91,3.66,10.29,10.29,0,0,1-3,2.69,7.73,7.73,0,0,1-4,1H671a7,7,0,0,1-3.82-1,9.89,9.89,0,0,1-2.86-2.69,12.92,12.92,0,0,1-1.8-3.69,13.47,13.47,0,0,1-.63-4,12.79,12.79,0,0,1,.66-4,12.06,12.06,0,0,1,1.91-3.66,10.3,10.3,0,0,1,3-2.7,7.88,7.88,0,0,1,4-1h23.86a7.7,7.7,0,0,1,3.82,1.17,10.47,10.47,0,0,1,2.85,2.7,12.36,12.36,0,0,1,1.81,3.61A13.19,13.19,0,0,1,704.49,108.16Zm-7.85,5.73a5.43,5.43,0,0,0,1.81-1.59,5.61,5.61,0,0,0,.89-2.07,9,9,0,0,0,0-4.13,5.61,5.61,0,0,0-.89-2.07,5.45,5.45,0,0,0-1.81-1.6,5.91,5.91,0,0,0-2.93-.65h-21a5.93,5.93,0,0,0-3,.65,5.44,5.44,0,0,0-2.66,3.67,9,9,0,0,0,0,4.13,5.45,5.45,0,0,0,.89,2.07,5.37,5.37,0,0,0,1.77,1.59,5.82,5.82,0,0,0,3,.66h21A5.8,5.8,0,0,0,696.64,113.89Zm-1.72-7.51a2.51,2.51,0,0,1-1.78,4.29H673.26a2.52,2.52,0,0,1-1.78-4.29,2.45,2.45,0,0,1,1.78-.73h19.88A2.45,2.45,0,0,1,694.92,106.38Z"/><path class="cls-8" d="M752.32,108.16a12.85,12.85,0,0,1-.66,4,12.06,12.06,0,0,1-1.91,3.66,10.25,10.25,0,0,1-3,2.69,7.79,7.79,0,0,1-4,1H718.83a7,7,0,0,1-3.82-1,9.73,9.73,0,0,1-2.85-2.69,12.69,12.69,0,0,1-1.81-3.69,13.45,13.45,0,0,1-.62-4,12.78,12.78,0,0,1,.65-4,12.29,12.29,0,0,1,1.91-3.66,10.56,10.56,0,0,1,3-2.7,7.88,7.88,0,0,1,4-1h23.86A7.67,7.67,0,0,1,747,97.93a10.47,10.47,0,0,1,2.85,2.7,12.36,12.36,0,0,1,1.81,3.61A12.89,12.89,0,0,1,752.32,108.16Zm-7.85,5.73a5.29,5.29,0,0,0,1.8-1.59,5.45,5.45,0,0,0,.89-2.07,9,9,0,0,0,0-4.13,5.45,5.45,0,0,0-.89-2.07,5.32,5.32,0,0,0-1.8-1.6,6,6,0,0,0-2.93-.65h-21a5.89,5.89,0,0,0-3,.65,5.54,5.54,0,0,0-1.78,1.6,5.61,5.61,0,0,0-.89,2.07,9,9,0,0,0,0,4.13,5.61,5.61,0,0,0,.89,2.07,5.51,5.51,0,0,0,1.78,1.59,5.78,5.78,0,0,0,3,.66h21A5.85,5.85,0,0,0,744.47,113.89Zm-1.73-7.51a2.51,2.51,0,0,1-1.78,4.29H721.08a2.52,2.52,0,0,1-1.78-4.29,2.45,2.45,0,0,1,1.78-.73H741A2.45,2.45,0,0,1,742.74,106.38Z"/><path class="cls-8" d="M869.09,59.61a7.38,7.38,0,0,1-2.28-1.49,7.27,7.27,0,0,1-1.54-2.2,6.51,6.51,0,0,1-.58-2.72V39.86a2.53,2.53,0,0,1,2.52-2.52,2.46,2.46,0,0,1,1.75.74,2.4,2.4,0,0,1,.76,1.78V53.2a1.82,1.82,0,0,0,.6,1.36,2,2,0,0,0,1.39.57H903.1a2.52,2.52,0,0,1,1.78,4.3,2.45,2.45,0,0,1-1.78.73H871.86A7.2,7.2,0,0,1,869.09,59.61Z"/><path class="cls-8" d="M915.13,59.43a2.52,2.52,0,0,1-4.29-1.78V39.86a2.52,2.52,0,0,1,5,0V57.65A2.44,2.44,0,0,1,915.13,59.43Z"/><path class="cls-8" d="M954.11,38.29a2.48,2.48,0,0,1,3.72-.21,2.41,2.41,0,0,1,.73,1.78,2.15,2.15,0,0,1-.52,1.51l0,.06-12.67,17a7.19,7.19,0,0,1-2.38,2,6.75,6.75,0,0,1-8.4-1.81l-12.71-17a3.67,3.67,0,0,1-.52-.82,2.18,2.18,0,0,1-.21-1,2.51,2.51,0,0,1,2.51-2.52,2.35,2.35,0,0,1,2,1l12.19,16.27a11.08,11.08,0,0,0,.91.92,1.7,1.7,0,0,0,1.13.49,1.66,1.66,0,0,0,1.12-.49,6.49,6.49,0,0,0,.87-.92Z"/><path class="cls-8" d="M963.79,39.86a2.53,2.53,0,0,1,2.51-2.52h37.1a2.52,2.52,0,0,1,1.78,4.3,2.45,2.45,0,0,1-1.78.73H966.3a2.51,2.51,0,0,1-2.51-2.51Zm6.39,20.3a5.83,5.83,0,0,1-2.31-.5,6.54,6.54,0,0,1-2-1.39,7.17,7.17,0,0,1-1.46-2.14,6.63,6.63,0,0,1-.58-2.83V48.59a2,2,0,0,1,.81-1.88,5.3,5.3,0,0,1,2.54-.47h35.11a2.51,2.51,0,1,1,0,5H968.82v2.57a1.16,1.16,0,0,0,.44.91,1.73,1.73,0,0,0,1.18.39h33a2.52,2.52,0,0,1,1.78,4.3,2.45,2.45,0,0,1-1.78.73Z"/><path class="cls-8" d="M1015.38,50.71A7.06,7.06,0,0,1,1011.7,47a6.61,6.61,0,0,1-.55-2.72,6.68,6.68,0,0,1,.55-2.72,6.91,6.91,0,0,1,1.49-2.19,7.11,7.11,0,0,1,2.19-1.5,6.85,6.85,0,0,1,2.72-.55h31.76a2.53,2.53,0,0,1,2.52,2.52,2.51,2.51,0,0,1-2.52,2.51H1018a2,2,0,0,0-1.39.55,1.79,1.79,0,0,0-.6,1.38,1.81,1.81,0,0,0,.6,1.36,1.94,1.94,0,0,0,1.39.58h28.93a6.82,6.82,0,0,1,2.75.55,7,7,0,0,1,2.23,1.49,7.28,7.28,0,0,1,1.49,2.22,7,7,0,0,1,.55,2.75,6.81,6.81,0,0,1-.55,2.72,7.31,7.31,0,0,1-1.49,2.2,6.49,6.49,0,0,1-2.23,1.46,7.17,7.17,0,0,1-2.75.53h-31.7a2.51,2.51,0,0,1-2.52-2.51,2.53,2.53,0,0,1,2.52-2.52h31.91a1.9,1.9,0,0,0,1.36-.54,1.78,1.78,0,0,0,.58-1.34,1.89,1.89,0,0,0-.58-1.41,1.86,1.86,0,0,0-1.36-.58h-29A6.68,6.68,0,0,1,1015.38,50.71Z"/><path class="cls-8" d="M1059.18,43a3.14,3.14,0,0,1,.94-2.31,3.17,3.17,0,0,1,2.3-.94,3.25,3.25,0,0,1,2.3,5.55,3.1,3.1,0,0,1-2.3.94,3.21,3.21,0,0,1-3.24-3.24Zm0,14.65a3.14,3.14,0,0,1,.94-2.31,3.17,3.17,0,0,1,2.3-.94,3.25,3.25,0,0,1,2.3,5.55,3.1,3.1,0,0,1-2.3.94,3.21,3.21,0,0,1-3.24-3.24Z"/><path class="cls-8" d="M870.66,111.54a2.49,2.49,0,0,1,2.51-2.51h26a1.85,1.85,0,0,0,1.36-.58,1.92,1.92,0,0,0,.57-1.41,1.77,1.77,0,0,0-.57-1.33,1.9,1.9,0,0,0-1.36-.55h-32a2.52,2.52,0,0,1,0-5h31.7a7.17,7.17,0,0,1,2.75.53,6.6,6.6,0,0,1,2.22,1.46,7.16,7.16,0,0,1,1.5,2.2,6.81,6.81,0,0,1,.54,2.72,6.71,6.71,0,0,1-1.67,4.5,7,7,0,0,1,1.13,7.22,7.16,7.16,0,0,1-1.5,2.2,6.6,6.6,0,0,1-2.22,1.46,7.17,7.17,0,0,1-2.75.53h-31.7a2.52,2.52,0,0,1,0-5h32a1.9,1.9,0,0,0,1.36-.55,1.77,1.77,0,0,0,.57-1.33,1.92,1.92,0,0,0-.57-1.41,1.85,1.85,0,0,0-1.36-.58h-26a2.49,2.49,0,0,1-2.51-2.51Z"/><path class="cls-8" d="M1171.11,52a7.31,7.31,0,0,1-2.2-1.49,7.13,7.13,0,0,1-1.49-2.2,6.68,6.68,0,0,1-.55-2.72,6.61,6.61,0,0,1,.55-2.72,7.13,7.13,0,0,1,1.49-2.2,7,7,0,0,1,2.2-1.49,6.65,6.65,0,0,1,2.72-.55h31.76a2.51,2.51,0,1,1,0,5h-31.86a2,2,0,0,0-1.39.55,1.81,1.81,0,0,0-.6,1.39,1.84,1.84,0,0,0,.6,1.36,2,2,0,0,0,1.39.57h28.93a7,7,0,0,1,2.75.55,7.28,7.28,0,0,1,2.22,1.49,7,7,0,0,1,2,5,6.68,6.68,0,0,1-.55,2.72,6.91,6.91,0,0,1-1.49,2.19,6.72,6.72,0,0,1-2.22,1.47,7.2,7.2,0,0,1-2.75.52H1171a2.51,2.51,0,1,1,0-5h31.92a1.89,1.89,0,0,0,1.36-.55,1.8,1.8,0,0,0,.58-1.33,2,2,0,0,0-.58-1.42,1.87,1.87,0,0,0-1.36-.57h-29A6.81,6.81,0,0,1,1171.11,52Z"/><path class="cls-8" d="M1214.9,50a12.85,12.85,0,0,1,.66-4,12.06,12.06,0,0,1,1.91-3.66,10.38,10.38,0,0,1,3-2.69,7.79,7.79,0,0,1,4-1.05H1255a2.51,2.51,0,1,1,0,5h-29.41a5.82,5.82,0,0,0-3,.66,5.27,5.27,0,0,0-1.77,1.59,5.45,5.45,0,0,0-.89,2.07,9,9,0,0,0,0,4.13,5.45,5.45,0,0,0,.89,2.07,5.27,5.27,0,0,0,1.77,1.59,5.82,5.82,0,0,0,3,.66H1255a2.51,2.51,0,1,1,0,5h-31a7.1,7.1,0,0,1-3.82-1,9.9,9.9,0,0,1-2.85-2.7,12.69,12.69,0,0,1-1.81-3.69A13.4,13.4,0,0,1,1214.9,50Z"/><path class="cls-8" d="M1305.37,50a13.07,13.07,0,0,1-.65,4,12.52,12.52,0,0,1-1.91,3.66,10.47,10.47,0,0,1-3,2.7,7.85,7.85,0,0,1-4,1h-23.86a7.61,7.61,0,0,1-3.82-1.18,10.57,10.57,0,0,1-2.85-2.69,12.59,12.59,0,0,1-1.8-3.61,12.94,12.94,0,0,1-.63-3.92,13.13,13.13,0,0,1,.65-4,12.52,12.52,0,0,1,1.91-3.66,10.29,10.29,0,0,1,3-2.69,7.76,7.76,0,0,1,4-1.05h23.86a7.61,7.61,0,0,1,3.82,1.18,10.57,10.57,0,0,1,2.85,2.69,12.46,12.46,0,0,1,1.8,3.61A13,13,0,0,1,1305.37,50Zm-7.79,5.72a5.38,5.38,0,0,0,1.8-1.59,5.61,5.61,0,0,0,.89-2.07,9.39,9.39,0,0,0,0-4.13,5.61,5.61,0,0,0-.89-2.07,5.38,5.38,0,0,0-1.8-1.59,5.85,5.85,0,0,0-2.93-.66h-21.14a5.82,5.82,0,0,0-3,.66,5.4,5.4,0,0,0-1.78,1.59,5.61,5.61,0,0,0-.89,2.07,9.39,9.39,0,0,0,0,4.13,5.61,5.61,0,0,0,.89,2.07,5.4,5.4,0,0,0,1.78,1.59,5.82,5.82,0,0,0,3,.66h21.14A5.85,5.85,0,0,0,1297.58,55.71Z"/><path class="cls-8" d="M1347.13,54.41c1,.68,2,1.42,3,2.22a4.79,4.79,0,0,1,1,1,2,2,0,0,1,.42,1.28,2.49,2.49,0,0,1-2.51,2.51,2.79,2.79,0,0,1-1.78-.73q-2.14-1.57-4.4-3a41.1,41.1,0,0,0-4.68-2.61,27.93,27.93,0,0,0-5.05-1.83,21.23,21.23,0,0,0-5.44-.68h-10.41a1.9,1.9,0,0,0-1.15.62,1.87,1.87,0,0,0-.47,1.31v4.45a2.4,2.4,0,0,1-.76,1.78,2.44,2.44,0,0,1-1.75.73,2.4,2.4,0,0,1-1.78-.73,2.42,2.42,0,0,1-.74-1.78v-5a6.4,6.4,0,0,1,.5-2.49,6.79,6.79,0,0,1,1.33-2,6.21,6.21,0,0,1,4.5-1.86h27.74a2,2,0,0,0,1.38-.55,1.77,1.77,0,0,0,.6-1.38,1.81,1.81,0,0,0-.6-1.36,1.92,1.92,0,0,0-1.38-.58h-31.55a2.4,2.4,0,0,1-1.78-.73,2.51,2.51,0,0,1,0-3.56,2.4,2.4,0,0,1,1.78-.73h31.34a6.81,6.81,0,0,1,2.74.55,7.07,7.07,0,0,1,2.25,1.49,6.88,6.88,0,0,1,1.52,2.2,6.61,6.61,0,0,1,.55,2.72,6.68,6.68,0,0,1-.55,2.72,6.88,6.88,0,0,1-1.52,2.2A7.42,7.42,0,0,1,1347.2,52a7,7,0,0,1-2.74.55h-.21C1345.19,53.09,1346.15,53.73,1347.13,54.41Z"/><path class="cls-8" d="M1356.75,41.09a2.49,2.49,0,0,1,2.51-2.51h37.1a2.51,2.51,0,1,1,0,5h-37.1a2.49,2.49,0,0,1-2.51-2.51Zm6.39,20.3a5.66,5.66,0,0,1-2.31-.5,6.57,6.57,0,0,1-2-1.38,7.22,7.22,0,0,1-1.46-2.15,6.58,6.58,0,0,1-.58-2.82V49.83a2,2,0,0,1,.81-1.89,5.3,5.3,0,0,1,2.54-.47h35.11a2.51,2.51,0,0,1,2.51,2.52,2.39,2.39,0,0,1-.73,1.77,2.42,2.42,0,0,1-1.78.74h-33.43v2.56a1.19,1.19,0,0,0,.44.92,1.73,1.73,0,0,0,1.18.39h33a2.51,2.51,0,1,1,0,5Z"/><path class="cls-8" d="M1404.1,44.23a3.23,3.23,0,1,1,1,2.3A3.12,3.12,0,0,1,1404.1,44.23Zm0,14.65a3.23,3.23,0,1,1,1,2.3A3.12,3.12,0,0,1,1404.1,58.88Z"/><path class="cls-8" d="M1209.46,112.77a13.13,13.13,0,0,1-.65,4,12.29,12.29,0,0,1-1.91,3.66,10.29,10.29,0,0,1-3,2.69,7.76,7.76,0,0,1-4,1.05H1176a7,7,0,0,1-3.82-1.05,9.89,9.89,0,0,1-2.86-2.69,12.92,12.92,0,0,1-1.8-3.69,13.47,13.47,0,0,1-.63-4,12.79,12.79,0,0,1,.66-4,12.26,12.26,0,0,1,1.9-3.66,10.47,10.47,0,0,1,3-2.7,7.88,7.88,0,0,1,4-1h23.86a7.7,7.7,0,0,1,3.82,1.17,10.76,10.76,0,0,1,2.85,2.7,12.33,12.33,0,0,1,1.8,3.61A12.94,12.94,0,0,1,1209.46,112.77Zm-7.85,5.73a5.43,5.43,0,0,0,1.81-1.59,5.78,5.78,0,0,0,.89-2.07,9.39,9.39,0,0,0,0-4.13,5.78,5.78,0,0,0-.89-2.07,5.45,5.45,0,0,0-1.81-1.6,5.91,5.91,0,0,0-2.93-.65h-21a5.93,5.93,0,0,0-3,.65,5.54,5.54,0,0,0-1.78,1.6,5.78,5.78,0,0,0-.89,2.07,9.39,9.39,0,0,0,0,4.13,5.78,5.78,0,0,0,.89,2.07,5.51,5.51,0,0,0,1.78,1.59,5.82,5.82,0,0,0,3,.66h21A5.8,5.8,0,0,0,1201.61,118.5Zm-1.72-7.51a2.52,2.52,0,0,1-1.78,4.3h-19.88a2.53,2.53,0,0,1-2.52-2.52,2.51,2.51,0,0,1,2.52-2.51h19.88A2.45,2.45,0,0,1,1199.89,111Z"/><path class="cls-8" d="M1257.29,112.77a12.85,12.85,0,0,1-.66,4,12.06,12.06,0,0,1-1.91,3.66,10.38,10.38,0,0,1-3,2.69,7.79,7.79,0,0,1-4,1.05H1223.8a7,7,0,0,1-3.82-1.05,9.73,9.73,0,0,1-2.85-2.69,12.69,12.69,0,0,1-1.81-3.69,13.47,13.47,0,0,1-.63-4,12.79,12.79,0,0,1,.66-4,12.06,12.06,0,0,1,1.91-3.66,10.56,10.56,0,0,1,3-2.7,7.88,7.88,0,0,1,4-1h23.86a7.7,7.7,0,0,1,3.82,1.17,10.47,10.47,0,0,1,2.85,2.7,12.36,12.36,0,0,1,1.81,3.61A12.94,12.94,0,0,1,1257.29,112.77Zm-7.85,5.73a5.39,5.39,0,0,0,1.8-1.59,5.61,5.61,0,0,0,.89-2.07,9,9,0,0,0,0-4.13,5.61,5.61,0,0,0-.89-2.07,5.41,5.41,0,0,0-1.8-1.6,6,6,0,0,0-2.93-.65h-21a5.89,5.89,0,0,0-3,.65,5.41,5.41,0,0,0-2.67,3.67,9,9,0,0,0,0,4.13,5.37,5.37,0,0,0,2.67,3.66,5.78,5.78,0,0,0,3,.66h21A5.85,5.85,0,0,0,1249.44,118.5Zm-1.73-7.51a2.52,2.52,0,0,1-1.78,4.3h-19.88a2.52,2.52,0,0,1-1.78-4.3,2.45,2.45,0,0,1,1.78-.73h19.88A2.45,2.45,0,0,1,1247.71,111Z"/><path class="cls-8" d="M1269.42,108.38a2.05,2.05,0,0,0-2-2H1265a2.51,2.51,0,1,1,0-5h2.35a6.82,6.82,0,0,1,2.75.55,7.18,7.18,0,0,1,2.25,1.49,6.86,6.86,0,0,1,1.52,2.22,7,7,0,0,1,.55,2.75v13.29a2.42,2.42,0,0,1-.74,1.78,2.52,2.52,0,0,1-3.55,0,2.42,2.42,0,0,1-.74-1.78Z"/><rect class="cls-8" x="65.78" y="967.47" width="199" height="7.34" rx="3.67" transform="translate(-652.64 422.1) rotate(-46.47)"/><rect class="cls-8" x="1712.78" y="911.47" width="199" height="7.34" rx="3.67" transform="translate(2396.98 2859.35) rotate(-133.53)"/><ellipse cx="284.1" cy="781.71" rx="4.04" ry="13.7" transform="translate(-497.41 497.06) rotate(-50.01)"/><ellipse cx="1634.1" cy="781.71" rx="13.7" ry="4.04" transform="translate(-120.28 1232.83) rotate(-39.99)"/></svg>
