<svg id="Layer_1" data-name="Layer 1" xmlns="http://www.w3.org/2000/svg" viewBox="0 0 1920 1080"><defs><style>.cls-1{fill:#2fa01c;}</style></defs><title>level_complete</title><rect width="1920" height="1080"/><path class="cls-1" d="M550.05,458.75a27.47,27.47,0,0,1-14.6-14.1,24.59,24.59,0,0,1-2.2-10.4v-51a9.56,9.56,0,0,1,9.6-9.6,9.39,9.39,0,0,1,6.7,2.8,9.13,9.13,0,0,1,2.9,6.8v51a7,7,0,0,0,2.3,5.2,7.42,7.42,0,0,0,5.3,2.2h120a9.6,9.6,0,1,1,0,19.2H560.65A27.09,27.09,0,0,1,550.05,458.75Z"/><path class="cls-1" d="M709.65,383.25a9.56,9.56,0,0,1,9.6-9.6h141.8a9.6,9.6,0,1,1,0,19.2H719.25a9.56,9.56,0,0,1-9.6-9.6Zm24.4,77.6a22,22,0,0,1-8.8-1.9,24.57,24.57,0,0,1-7.8-5.3,27.62,27.62,0,0,1-5.6-8.2,25.58,25.58,0,0,1-2.2-10.8v-18q0-5.4,3.1-7.2c2.06-1.2,5.3-1.8,9.7-1.8h134.2a9.6,9.6,0,1,1,0,19.2H728.85v9.8a4.51,4.51,0,0,0,1.7,3.5,6.54,6.54,0,0,0,4.5,1.5h126a9.6,9.6,0,1,1,0,19.2Z"/><path class="cls-1" d="M1016.85,377.25a9.54,9.54,0,0,1,17,6,8.29,8.29,0,0,1-2,5.8l-.2.2-48.4,65.2a27.88,27.88,0,0,1-9.1,7.5,25.69,25.69,0,0,1-32.1-6.9l-48.6-65a13.38,13.38,0,0,1-2-3.1,8.45,8.45,0,0,1-.8-3.7,9.56,9.56,0,0,1,9.6-9.6,9,9,0,0,1,7.6,3.8l46.6,62.2a41.08,41.08,0,0,0,3.5,3.5,5.82,5.82,0,0,0,8.6,0,25.06,25.06,0,0,0,3.3-3.5Z"/><path class="cls-1" d="M1053.85,383.25a9.56,9.56,0,0,1,9.6-9.6h141.8a9.6,9.6,0,1,1,0,19.2h-141.8a9.56,9.56,0,0,1-9.6-9.6Zm24.4,77.6a22,22,0,0,1-8.8-1.9,24.57,24.57,0,0,1-7.8-5.3,27.62,27.62,0,0,1-5.6-8.2,25.58,25.58,0,0,1-2.2-10.8v-18q0-5.4,3.1-7.2c2.06-1.2,5.3-1.8,9.7-1.8h134.2a9.6,9.6,0,1,1,0,19.2h-127.8v9.8a4.51,4.51,0,0,0,1.7,3.5,6.54,6.54,0,0,0,4.5,1.5h126a9.6,9.6,0,1,1,0,19.2Z"/><path class="cls-1" d="M1251.65,458.75a27.47,27.47,0,0,1-14.6-14.1,24.59,24.59,0,0,1-2.2-10.4v-51a9.56,9.56,0,0,1,9.6-9.6,9.4,9.4,0,0,1,6.7,2.8,9.13,9.13,0,0,1,2.9,6.8v51a6.93,6.93,0,0,0,2.3,5.2,7.42,7.42,0,0,0,5.3,2.2h120a9.6,9.6,0,1,1,0,19.2h-119.4A27.06,27.06,0,0,1,1251.65,458.75Z"/><path class="cls-1" d="M245.25,657.25a49.28,49.28,0,0,1,2.5-15.3,46.84,46.84,0,0,1,7.3-14,40,40,0,0,1,11.6-10.3,29.86,29.86,0,0,1,15.4-4h116.6a9.6,9.6,0,1,1,0,19.2H286.25q-7,0-11.3,2.5a20.92,20.92,0,0,0-6.8,6.1,21.39,21.39,0,0,0-3.4,7.9,35.12,35.12,0,0,0,0,15.8,21.32,21.32,0,0,0,3.4,7.9,20.8,20.8,0,0,0,6.8,6.1q4.31,2.51,11.3,2.5h112.4a9.6,9.6,0,1,1,0,19.2H280.05a26.94,26.94,0,0,1-14.6-4,38,38,0,0,1-10.9-10.3,48.71,48.71,0,0,1-6.9-14.1A51.52,51.52,0,0,1,245.25,657.25Z"/><path class="cls-1" d="M591.05,657.25a49.48,49.48,0,0,1-2.5,15.3,46.72,46.72,0,0,1-7.3,14,39.81,39.81,0,0,1-11.6,10.3,29.79,29.79,0,0,1-15.4,4h-91.2a29,29,0,0,1-14.6-4.5,39.87,39.87,0,0,1-10.9-10.3,47.75,47.75,0,0,1-6.9-13.8,48.07,48.07,0,0,1,.1-30.3,46.62,46.62,0,0,1,7.3-14,39.82,39.82,0,0,1,11.6-10.3,29.84,29.84,0,0,1,15.4-4h91.2a29.3,29.3,0,0,1,14.6,4.5,40.32,40.32,0,0,1,10.9,10.3,48,48,0,0,1,6.9,13.8A49.65,49.65,0,0,1,591.05,657.25Zm-29.8,21.9a20.59,20.59,0,0,0,6.9-6.1,21.48,21.48,0,0,0,3.4-7.9,35.12,35.12,0,0,0,0-15.8,21.56,21.56,0,0,0-3.4-7.9,20.7,20.7,0,0,0-6.9-6.1,22.56,22.56,0,0,0-11.2-2.5h-80.8q-7,0-11.3,2.5a20.81,20.81,0,0,0-6.8,6.1,21.39,21.39,0,0,0-3.4,7.9,35.12,35.12,0,0,0,0,15.8,21.32,21.32,0,0,0,3.4,7.9,20.7,20.7,0,0,0,6.8,6.1q4.29,2.51,11.3,2.5h80.8A22.45,22.45,0,0,0,561.25,679.15Z"/><path class="cls-1" d="M779.85,691.25a9.6,9.6,0,1,1-19.2,0v-43.6c0-5.46-.34-8.2-1-8.2s-2.4,1.8-5.6,5.4l-44,50a16.27,16.27,0,0,1-6.4,4.5,23.16,23.16,0,0,1-16.4,0,16.13,16.13,0,0,1-6.4-4.5l-44-50q-4.61-5.4-5.6-5.4c-.67,0-1,2.74-1,8.2v43.6a9.6,9.6,0,1,1-19.2,0v-58.4a20.73,20.73,0,0,1,4.6-13.6q4.59-5.6,12.6-5.6a15.78,15.78,0,0,1,8.6,2.4,36.53,36.53,0,0,1,7,5.8l46,52.4a20.51,20.51,0,0,0,2.5,2.1,4.92,4.92,0,0,0,6.2,0,21.3,21.3,0,0,0,2.5-2.1l45.8-52.4h.2a20.85,20.85,0,0,1,6.8-6,18,18,0,0,1,8.8-2.2q8,0,12.6,5.6a20.78,20.78,0,0,1,4.6,13.6Z"/><path class="cls-1" d="M799.84,623.25a9.56,9.56,0,0,1,9.6-9.6h119.8a26.39,26.39,0,0,1,10.5,2.1,28.06,28.06,0,0,1,8.6,5.7,26.27,26.27,0,0,1,5.8,8.4,26.8,26.8,0,0,1,0,20.8,26.27,26.27,0,0,1-5.8,8.4,28.06,28.06,0,0,1-8.6,5.7,26.39,26.39,0,0,1-10.5,2.1h-104a7.29,7.29,0,0,0-4.4,2.4,7.21,7.21,0,0,0-1.8,5v17a9.1,9.1,0,0,1-2.9,6.8,9.35,9.35,0,0,1-6.7,2.8,9.56,9.56,0,0,1-9.6-9.6v-19.2a25.35,25.35,0,0,1,1.8-9.5,23,23,0,0,1,5.1-7.8,24.88,24.88,0,0,1,7.6-5.2,23.36,23.36,0,0,1,9.5-1.9H930a7.62,7.62,0,0,0,5.3-2.1,6.87,6.87,0,0,0,2.3-5.3,7,7,0,0,0-2.3-5.2,7.47,7.47,0,0,0-5.3-2.2H809.44a9.56,9.56,0,0,1-9.6-9.6Z"/><path class="cls-1" d="M993,698.75a27.47,27.47,0,0,1-14.6-14.1,24.59,24.59,0,0,1-2.2-10.4v-51a9.56,9.56,0,0,1,9.6-9.6,9.39,9.39,0,0,1,6.7,2.8,9.13,9.13,0,0,1,2.9,6.8v51a7,7,0,0,0,2.3,5.2,7.42,7.42,0,0,0,5.3,2.2h120a9.6,9.6,0,1,1,0,19.2h-119.4A27.09,27.09,0,0,1,993,698.75Z"/><path class="cls-1" d="M1152.64,623.25a9.56,9.56,0,0,1,9.6-9.6H1304a9.6,9.6,0,1,1,0,19.2h-141.8a9.56,9.56,0,0,1-9.6-9.6Zm24.4,77.6a22,22,0,0,1-8.8-1.9,24.57,24.57,0,0,1-7.8-5.3,27.62,27.62,0,0,1-5.6-8.2,25.58,25.58,0,0,1-2.2-10.8v-18q0-5.4,3.1-7.2c2.06-1.2,5.3-1.8,9.7-1.8h134.2a9.6,9.6,0,1,1,0,19.2h-127.8v9.8a4.51,4.51,0,0,0,1.7,3.5,6.54,6.54,0,0,0,4.5,1.5h126a9.6,9.6,0,1,1,0,19.2Z"/><path class="cls-1" d="M1487.64,616.45a9.6,9.6,0,0,1-6.8,16.4h-59.2v58.4a9.6,9.6,0,1,1-19.2,0v-58.4h-60a9.86,9.86,0,0,1-6.2-3.1,9,9,0,0,1-2.6-6.5,9.56,9.56,0,0,1,9.6-9.6h137.6A9.3,9.3,0,0,1,1487.64,616.45Z"/><path class="cls-1" d="M1510.44,623.25a9.56,9.56,0,0,1,9.6-9.6h141.8a9.6,9.6,0,1,1,0,19.2H1520a9.56,9.56,0,0,1-9.6-9.6Zm24.4,77.6a22,22,0,0,1-8.8-1.9,24.57,24.57,0,0,1-7.8-5.3,27.62,27.62,0,0,1-5.6-8.2,25.58,25.58,0,0,1-2.2-10.8v-18q0-5.4,3.1-7.2c2.06-1.2,5.3-1.8,9.7-1.8h134.2a9.6,9.6,0,1,1,0,19.2h-127.8v9.8a4.51,4.51,0,0,0,1.7,3.5,6.54,6.54,0,0,0,4.5,1.5h126a9.6,9.6,0,1,1,0,19.2Z"/></svg>
