<svg id="Layer_1" data-name="Layer 1" xmlns="http://www.w3.org/2000/svg" viewBox="0 0 1920 1080"><defs><style>.cls-1{fill:#2fa01c;}.cls-2{fill:#fff;}</style></defs><title>lives</title><rect class="cls-1" x="780" y="497" width="241" height="140"/><path class="cls-2" d="M811.9,541.29a7.19,7.19,0,0,1-3.84-3.75,6.5,6.5,0,0,1-.58-2.76V521.23a2.45,2.45,0,0,1,.74-1.81,2.54,2.54,0,0,1,4.31,1.81v13.55a1.86,1.86,0,0,0,.6,1.38,2,2,0,0,0,1.4.59h31.54a2.45,2.45,0,0,1,1.79.74,2.58,2.58,0,0,1,0,3.62,2.45,2.45,0,0,1-1.79.74H814.68A7,7,0,0,1,811.9,541.29Z"/><path class="cls-2" d="M858.17,541.11a2.53,2.53,0,0,1-3.58,0,2.49,2.49,0,0,1-.74-1.81V521.23a2.49,2.49,0,0,1,.74-1.81,2.53,2.53,0,0,1,3.58,0,2.48,2.48,0,0,1,.73,1.81V539.3A2.48,2.48,0,0,1,858.17,541.11Z"/><path class="cls-2" d="M897.34,519.64a2.41,2.41,0,0,1,1.94-1,2.45,2.45,0,0,1,1.79.74,2.49,2.49,0,0,1,.74,1.81,2.22,2.22,0,0,1-.53,1.54l0,.06L888.5,540.15a7.28,7.28,0,0,1-2.39,2,6.45,6.45,0,0,1-3.13.77,6.61,6.61,0,0,1-3-.69,6.69,6.69,0,0,1-2.34-1.91L864.9,523a3.56,3.56,0,0,1-.53-.83,2.27,2.27,0,0,1-.21-1,2.49,2.49,0,0,1,.74-1.81,2.42,2.42,0,0,1,1.78-.74,2.34,2.34,0,0,1,2,1l12.25,16.53c.25.28.56.59.92.93a1.71,1.71,0,0,0,1.13.5,1.67,1.67,0,0,0,1.13-.5,7.08,7.08,0,0,0,.87-.93Z"/><path class="cls-2" d="M907.07,521.23a2.48,2.48,0,0,1,.73-1.81,2.45,2.45,0,0,1,1.79-.74h37.28a2.45,2.45,0,0,1,1.79.74,2.61,2.61,0,0,1,0,3.62,2.45,2.45,0,0,1-1.79.74H909.59a2.45,2.45,0,0,1-1.79-.74A2.48,2.48,0,0,1,907.07,521.23Zm6.41,20.62a5.68,5.68,0,0,1-2.31-.51,6.39,6.39,0,0,1-2-1.4,7.55,7.55,0,0,1-1.48-2.18,7,7,0,0,1-.57-2.87v-4.78a2,2,0,0,1,.81-1.92,5.18,5.18,0,0,1,2.55-.48h35.28a2.42,2.42,0,0,1,1.79.75,2.57,2.57,0,0,1,0,3.61,2.42,2.42,0,0,1-1.79.75h-33.6v2.6a1.22,1.22,0,0,0,.45.93,1.69,1.69,0,0,0,1.18.4h33.13a2.45,2.45,0,0,1,1.79.74,2.61,2.61,0,0,1,0,3.62,2.45,2.45,0,0,1-1.79.74Z"/><path class="cls-2" d="M958.91,532.26a7.09,7.09,0,0,1-2.21-1.52,7.17,7.17,0,0,1-1.5-2.23,7.23,7.23,0,0,1,0-5.53,7.11,7.11,0,0,1,3.71-3.74,6.7,6.7,0,0,1,2.73-.56h31.92a2.45,2.45,0,0,1,1.79.74,2.61,2.61,0,0,1,0,3.62,2.45,2.45,0,0,1-1.79.74h-32a2,2,0,0,0-1.39.56,1.81,1.81,0,0,0-.61,1.41,1.84,1.84,0,0,0,.61,1.38,1.92,1.92,0,0,0,1.39.58h29.08a6.91,6.91,0,0,1,2.76.56,7.06,7.06,0,0,1,2.23,1.52,7.15,7.15,0,0,1,1.5,2.25,7.05,7.05,0,0,1,.55,2.79,6.85,6.85,0,0,1-.55,2.77,7.29,7.29,0,0,1-1.5,2.23,6.82,6.82,0,0,1-2.23,1.49,7.25,7.25,0,0,1-2.76.53H958.75a2.45,2.45,0,0,1-1.79-.74,2.61,2.61,0,0,1,0-3.62,2.45,2.45,0,0,1,1.79-.74h32.08a1.9,1.9,0,0,0,1.36-.56,1.79,1.79,0,0,0,.58-1.36,2,2,0,0,0-.58-1.43,1.84,1.84,0,0,0-1.36-.58H961.64A6.7,6.7,0,0,1,958.91,532.26Z"/><path class="cls-2" d="M1002.92,524.42a3.18,3.18,0,0,1,1-2.34,3.28,3.28,0,0,1,4.62,0,3.36,3.36,0,0,1,0,4.68,3.26,3.26,0,0,1-5.57-2.34Zm0,14.88a3.18,3.18,0,0,1,1-2.34,3.26,3.26,0,0,1,4.62,0,3.36,3.36,0,0,1,0,4.68,3.28,3.28,0,0,1-4.62,0A3.18,3.18,0,0,1,1002.92,539.3Z"/><path class="cls-2" d="M813.47,594a2.47,2.47,0,0,1,.74-1.8,2.42,2.42,0,0,1,1.79-.75h26.13a1.86,1.86,0,0,0,1.37-.58,2,2,0,0,0,.58-1.44,1.82,1.82,0,0,0-.58-1.35,1.92,1.92,0,0,0-1.37-.56H810a2.42,2.42,0,0,1-1.78-.74,2.58,2.58,0,0,1,0-3.62,2.42,2.42,0,0,1,1.78-.74h31.87a7.25,7.25,0,0,1,2.76.53,6.72,6.72,0,0,1,2.23,1.49,7.29,7.29,0,0,1,1.5,2.23,6.84,6.84,0,0,1,.55,2.76,7.1,7.1,0,0,1-.44,2.5,6.75,6.75,0,0,1-1.24,2.07,7,7,0,0,1,1.68,4.57,6.85,6.85,0,0,1-.55,2.77,7.29,7.29,0,0,1-1.5,2.23,6.72,6.72,0,0,1-2.23,1.49,7.25,7.25,0,0,1-2.76.53H810a2.42,2.42,0,0,1-1.78-.74,2.58,2.58,0,0,1,0-3.62,2.42,2.42,0,0,1,1.78-.74h32.13a1.92,1.92,0,0,0,1.37-.56,1.83,1.83,0,0,0,.58-1.36,2,2,0,0,0-.58-1.43,1.87,1.87,0,0,0-1.37-.59H816a2.41,2.41,0,0,1-1.79-.74A2.47,2.47,0,0,1,813.47,594Z"/></svg>
