<svg id="Layer_1" data-name="Layer 1" xmlns="http://www.w3.org/2000/svg" viewBox="0 0 1920 1080"><defs><style>.cls-1{fill:#32cc1d;}.cls-2{fill:#32ac1d;}.cls-3{fill:#32b61d;}.cls-4{fill:#fff657;}.cls-5,.cls-7,.cls-8{fill:none;}.cls-5,.cls-6,.cls-7,.cls-8{stroke:#000;stroke-miterlimit:10;}.cls-5{stroke-width:2px;}.cls-7{stroke-width:6px;}.cls-8{stroke-width:3px;}</style></defs><title>marsmand</title><path class="cls-1" d="M974.52,550.2c18.21,10-21.46,35.12-19.77,54.14,2.76,31-39.34,30.54-65.8,30.54-23.63,0-64.43-.51-60.5-24.8,3.46-21.4-44.77-47-25.06-59.88,33.5-21.93,10.81-47.19,28-62.67a86.23,86.23,0,0,1,115.32.23C963.82,503.24,940,531.33,974.52,550.2Z"/><path class="cls-2" d="M823.78,474.37c-5.26-6.46-8.36-13.8-12.82-18.1-14.16-13.68-7.47-12.77-6.48-13.51,1.16-.86,7,4.67,14.5,13.52,3.37,4,7.08,8.55,10.89,13.55,4.79,6.29,8.42,12.72,12.32,17.32,12.37,14.58,8,13.52,7,14.28s.59,8.6-13.64-12.51C832.46,484.37,829.77,481.7,823.78,474.37Z"/><ellipse class="cls-2" cx="800.29" cy="440.53" rx="9.79" ry="8.16"/><path class="cls-2" d="M958.39,472.84c5.26-6.46,8.37-13.8,12.83-18.1,14.15-13.68,7.47-12.77,6.47-13.51-1.16-.86-7,4.67-14.5,13.52-3.36,3.95-7.08,8.55-10.88,13.55-4.8,6.29-8.42,12.72-12.32,17.32-12.38,14.58-8,13.52-7,14.28s-.59,8.6,13.64-12.51C949.71,482.84,952.41,480.17,958.39,472.84Z"/><ellipse class="cls-2" cx="980.71" cy="440.53" rx="9.79" ry="8.16"/><path class="cls-3" d="M861.63,634.39c1,2.15-7.4-.25-20.76,3.65-13.32,4.64-21.39,8.92-20.47-2.66s10.27-15.52,20.74-11.21C851.58,627.49,860.8,632.37,861.63,634.39Z"/><path class="cls-3" d="M955.81,639.44c-1.13,1-10-2.66-17.38-3.26-4.62-2.67-14.68-2.19-20.22-2.62-3-2.37,16.95-13,27.14-10.37C956.6,624.54,957.73,637.5,955.81,639.44Z"/><path class="cls-4" d="M861.52,540.43a48.5,48.5,0,0,0-24.58-6.08c-5.26.21-9.24-3-7.61-8.34h0c1.6-5.34,9.48-9.43,16-8a60.92,60.92,0,0,1,28,13.79c4.5,4.08,4.44,8.35,1.09,9.74h0C871,543,865.64,542.59,861.52,540.43Z"/><path class="cls-5" d="M861.52,540.43a48.5,48.5,0,0,0-24.58-6.08c-5.26.21-9.24-3-7.61-8.34h0c1.6-5.34,9.48-9.43,16-8a60.92,60.92,0,0,1,28,13.79c4.5,4.08,4.44,8.35,1.09,9.74h0C871,543,865.64,542.59,861.52,540.43Z"/><path class="cls-4" d="M937.11,538a36.86,36.86,0,0,0-23.87,3.64c-4.33,2.27-9.07,2.22-11.55-1.22-.57-.84-1.16-1.68-1.76-2.52-2.56-3.35-.77-9.65,5.05-12.49a47.63,47.63,0,0,1,30-4.07c6.33,1.2,11.32,6.8,11.29,10.43,0,.9,0,1.78,0,2.66C946.21,538,942.12,538.84,937.11,538Z"/><path class="cls-5" d="M937.11,538a36.86,36.86,0,0,0-23.87,3.64c-4.33,2.27-9.07,2.22-11.55-1.22-.57-.84-1.16-1.68-1.76-2.52-2.56-3.35-.77-9.65,5.05-12.49a47.63,47.63,0,0,1,30-4.07c6.33,1.2,11.32,6.8,11.29,10.43,0,.9,0,1.78,0,2.66C946.21,538,942.12,538.84,937.11,538Z"/><ellipse class="cls-6" cx="865.76" cy="534.39" rx="7.22" ry="7.14"/><ellipse class="cls-6" cx="908.03" cy="534.39" rx="7.22" ry="7.14"/><path class="cls-7" d="M840,597.64c0-20.3,21.68-36.72,48.46-36.72"/><path class="cls-7" d="M934.83,597.64c0-20.3-20.75-36.72-46.39-36.72"/><path class="cls-8" d="M882.25,531.33c0-10.71-17.06-19.38-38.14-19.38"/><path class="cls-8" d="M895.65,531.33c0-10.71,17.07-19.38,38.15-19.38"/></svg>
