<svg id="Layer_1" data-name="Layer 1" xmlns="http://www.w3.org/2000/svg" viewBox="0 0 1920 1080"><defs><style>.cls-1{fill:#2fa01c;}.cls-2{fill:#606060;}</style></defs><title>music_icon</title><rect class="cls-1" x="980.05" y="384.59" width="265" height="195" rx="12"/><path class="cls-2" d="M1178,429.93l7.21-1.72-3.86-16.9L1079,435.68v-2.26h-11v4.88l-14.22,3.39,3.86,16.9,10.36-2.47v58.94a19.17,19.17,0,0,0-8.5-2A19.91,19.91,0,1,0,1079,533c0-.17,0-.34,0-.51h0v-79l88-20.95v76.19a19.11,19.11,0,0,0-11.5-3.86,19.91,19.91,0,1,0,19.47,20.42h3Z"/></svg>
