<svg id="Layer_1" data-name="Layer 1" xmlns="http://www.w3.org/2000/svg" xmlns:xlink="http://www.w3.org/1999/xlink" viewBox="0 0 1920 1080"><defs><style>.cls-1,.cls-10,.cls-12,.cls-13{fill:none;}.cls-2{clip-path:url(#clip-path);}.cls-3{fill:#32cc1d;}.cls-4{fill:#fff;}.cls-5{fill:#32a01d;}.cls-6{fill:#474747;}.cls-7{fill:#32ac1d;}.cls-8{fill:#32b61d;}.cls-9{fill:#fff657;}.cls-10,.cls-11,.cls-12,.cls-13{stroke:#000;stroke-miterlimit:10;}.cls-10{stroke-width:2px;}.cls-12{stroke-width:6px;}.cls-13{stroke-width:3px;}.cls-14{clip-path:url(#clip-path-2);}.cls-15{fill:#ff6046;}.cls-16{fill:#2fa01c;}.cls-17{fill:#545352;}</style><clipPath id="clip-path"><rect class="cls-1" x="-1940.1" y="2" width="1920" height="1080"/></clipPath><clipPath id="clip-path-2"><rect class="cls-1" x="1942.5" y="0.5" width="1920" height="1080"/></clipPath></defs><title>random_stuff</title><g class="cls-2"><image width="793" height="1146" transform="translate(-393 -31)" xlink:href="random_stuff1.png"/><path class="cls-3" d="M536.4,618c0,20.18-7.68,38.3-19.18,53.07C449.9,757.5,441.9,703.5,453.4,701c22.4-4.87,6.5,62.5-58.69-24.31C382,659.7,370.4,640.92,370.4,618a83,83,0,0,1,166,0Z"/><path d="M449.83,612.5c-.57,11.44-14,25.22-30.37,25-16.38,0-29.76-13.75-30.43-24.92-.74-11.33,12.66-15.66,30.39-15.88S450.48,600.9,449.83,612.5Z"/><path d="M522.83,612.5c-.57,11.44-14,25.22-30.37,25-16.38,0-29.76-13.75-30.43-24.92-.74-11.33,12.66-15.66,30.39-15.88S523.48,600.9,522.83,612.5Z"/><path d="M500.2,660.64c1.85,0,1.24,8-6.53,16.68a55.12,55.12,0,0,1-80.47-.05c-7.77-8.68-8.4-16.7-6.6-16.64,3.84-.12,20.3,23.28,46.77,22.24C479.82,683.84,496.25,660.47,500.2,660.64Z"/><ellipse class="cls-4" cx="402.9" cy="605.5" rx="8" ry="5.5"/><ellipse class="cls-4" cx="474.9" cy="605.5" rx="8" ry="5.5"/><path class="cls-5" d="M408.41,552.05c-4.85-4.23-8.67-8.54-14.26-10.32-18.64-4.14-11.32-5-9.8-6.26,1.23-1,10.1,0,19.11,5.31a46.81,46.81,0,0,1,11.25,9.15c4.15,4.68,6.07,9.54,8,13.38,5,12.44,1.25,10.18.88,10.27-1.69.08-.5,4.8-6.4-11C415.44,559.25,413.77,557,408.41,552.05Z"/><path class="cls-5" d="M391.3,532.34c.45,2.78-4.58,5.9-10.9,8.37s-12.35,3.6-13.89,1.25,2.8-7.83,10.24-10.69S390.88,529.6,391.3,532.34Z"/><path class="cls-5" d="M502.81,550.44c4.33-3.67,7.75-7.41,12.73-8.9,16.56-3.34,10.1-4.18,8.76-5.34-1.08-.87-9-.16-17,4.4a40.44,40.44,0,0,0-10,7.94c-3.71,4.09-5.42,8.35-7.14,11.72-4.48,10.93-1.11,8.94-.8,9,1.5.07.41,4.22,5.66-9.64C496.55,556.72,498,554.73,502.81,550.44Z"/><path class="cls-5" d="M538.37,542.23c-1.36,2.06-6.61,1-12.16-1.06s-10-4.85-9.57-7.29,6.2-3.51,12.74-1S539.72,540.2,538.37,542.23Z"/><rect class="cls-6" x="-281.26" y="930.18" width="326" height="110" rx="12" transform="translate(-913.98 1577.98) rotate(-133.53)"/></g><path class="cls-3" d="M924.49,565c0,20.18-7.68,38.3-19.19,53.07C838,704.5,830,650.5,841.46,648c22.41-4.87,6.51,62.5-58.71-24.31-12.76-17-24.31-35.77-24.31-58.69a83,83,0,0,1,166,0Z"/><path d="M837.89,559.5c-.57,11.44-14,25.22-30.38,25-16.39,0-29.77-13.75-30.43-24.92-.75-11.33,12.65-15.65,30.39-15.88S838.54,547.9,837.89,559.5Z"/><path d="M910.91,559.5c-.57,11.44-14,25.22-30.37,25-16.39,0-29.78-13.75-30.44-24.92-.74-11.33,12.66-15.65,30.4-15.88S911.57,547.9,910.91,559.5Z"/><path d="M888.27,607.64c1.85,0,1.25,8-6.53,16.69a55.13,55.13,0,0,1-80.49-.06c-7.77-8.68-8.4-16.7-6.6-16.64,3.84-.12,20.3,23.29,46.78,22.25C867.89,630.85,884.33,607.47,888.27,607.64Z"/><ellipse class="cls-4" cx="790.95" cy="552.5" rx="8" ry="5.5"/><ellipse class="cls-4" cx="862.97" cy="552.5" rx="8" ry="5.5"/><path class="cls-5" d="M796.46,499.05c-4.85-4.23-8.67-8.54-14.27-10.32-18.63-4.14-11.32-5-9.79-6.26,1.23-1,10.09,0,19.1,5.31a46.67,46.67,0,0,1,11.26,9.15c4.15,4.69,6.07,9.53,8,13.38,5,12.44,1.24,10.18.87,10.27-1.69.08-.5,4.8-6.4-11C803.49,506.25,801.82,504,796.46,499.05Z"/><path class="cls-5" d="M779.35,479.34c.45,2.77-4.58,5.89-10.91,8.37s-12.35,3.6-13.89,1.25,2.8-7.83,10.25-10.69S778.92,476.6,779.35,479.34Z"/><path class="cls-5" d="M890.89,497.44c4.33-3.67,7.75-7.42,12.73-8.9,16.57-3.34,10.1-4.18,8.76-5.34-1.08-.87-9-.16-17,4.39a40.9,40.9,0,0,0-10,7.94c-3.71,4.1-5.43,8.36-7.15,11.73-4.47,10.93-1.11,8.94-.79,9,1.49.07.4,4.22,5.66-9.65C884.62,503.72,886.11,501.73,890.89,497.44Z"/><path class="cls-5" d="M926.45,489.23c-1.35,2.06-6.61,1-12.16-1.06s-9.95-4.85-9.57-7.29,6.21-3.51,12.74-1S927.81,487.2,926.45,489.23Z"/><path class="cls-3" d="M1202.08,568c17.67,9.76-20.83,34.42-19.19,53.07,2.68,30.43-38.17,29.93-63.84,29.93-22.93,0-62.52-.5-58.71-24.31,3.36-21-43.44-46-24.31-58.69,32.51-21.5,10.49-46.26,27.2-61.44a83,83,0,0,1,111.89.23C1191.69,522,1168.57,549.5,1202.08,568Z"/><path class="cls-7" d="M1055.82,493.66c-5.11-6.32-8.12-13.52-12.45-17.74-13.73-13.4-7.25-12.51-6.28-13.23,1.12-.85,6.75,4.57,14.07,13.25,3.26,3.86,6.87,8.38,10.56,13.28,4.65,6.17,8.17,12.47,12,17,12,14.3,7.78,13.25,6.78,14s.57,8.43-13.24-12.26C1064.24,503.47,1061.62,500.85,1055.82,493.66Z"/><ellipse class="cls-7" cx="1033.02" cy="460.5" rx="9.5" ry="8"/><path class="cls-7" d="M1186.43,492.16c5.11-6.32,8.12-13.52,12.44-17.74,13.74-13.4,7.25-12.51,6.29-13.23-1.13-.85-6.75,4.57-14.07,13.25-3.27,3.86-6.87,8.38-10.56,13.28-4.66,6.17-8.18,12.47-12,17-12,14.3-7.77,13.25-6.78,14s-.57,8.43,13.24-12.26C1178,502,1180.62,499.35,1186.43,492.16Z"/><ellipse class="cls-7" cx="1208.08" cy="460.5" rx="9.5" ry="8"/><path class="cls-8" d="M1092.54,650.51c1,2.11-7.18-.18-20.14,3.66-12.93,4.55-20.76,8.66-19.87-2.68s10-15.21,20.13-11C1082.79,643.76,1091.73,648.55,1092.54,650.51Z"/><path class="cls-8" d="M1184,655.44c-1.11,1-9.76-2.44-16.89-3.09-4.49-2.67-14.28-2.19-19.63-2.61-2.87-2.32,16.45-12.8,26.34-10.19C1184.68,640.9,1185.82,653.52,1184,655.44Z"/><path class="cls-9" d="M1092.44,558.47a47.27,47.27,0,0,0-23.9-6c-5.12.2-9-3-7.44-8.19h0c1.54-5.21,9.22-9.2,15.54-7.76a59.2,59.2,0,0,1,27.3,13.5c4.37,4,4.3,8.16,1,9.53h0C1101.64,561,1096.44,560.58,1092.44,558.47Z"/><path class="cls-10" d="M1092.44,558.47a47.27,47.27,0,0,0-23.9-6c-5.12.2-9-3-7.44-8.19h0c1.54-5.21,9.22-9.2,15.54-7.76a59.2,59.2,0,0,1,27.3,13.5c4.37,4,4.3,8.16,1,9.53h0C1101.64,561,1096.44,560.58,1092.44,558.47Z"/><path class="cls-9" d="M1165.8,556.05a35.75,35.75,0,0,0-23.18,3.58c-4.2,2.21-8.8,2.14-11.23-1.23-.57-.83-1.14-1.66-1.73-2.48-2.51-3.29-.78-9.45,4.88-12.21a46.27,46.27,0,0,1,29.19-4c6.16,1.16,11,6.63,11,10.19,0,.87,0,1.74,0,2.6C1174.66,556.06,1170.66,556.88,1165.8,556.05Z"/><path class="cls-10" d="M1165.8,556.05a35.75,35.75,0,0,0-23.18,3.58c-4.2,2.21-8.8,2.14-11.23-1.23-.57-.83-1.14-1.66-1.73-2.48-2.51-3.29-.78-9.45,4.88-12.21a46.27,46.27,0,0,1,29.19-4c6.16,1.16,11,6.63,11,10.19,0,.87,0,1.74,0,2.6C1174.66,556.06,1170.66,556.88,1165.8,556.05Z"/><circle class="cls-11" cx="1096.54" cy="552.5" r="7"/><circle class="cls-11" cx="1137.56" cy="552.5" r="7"/><path class="cls-12" d="M1071.54,614.5c0-19.9,21-36,47-36"/><path class="cls-12" d="M1163.57,614.5c0-19.9-20.14-36-45-36"/><path class="cls-13" d="M1112.55,549.5c0-10.5-16.55-19-37-19"/><path class="cls-13" d="M1125.55,549.5c0-10.5,16.56-19,37-19"/><g class="cls-14"><circle class="cls-15" cx="1869" cy="556" r="433"/></g><rect class="cls-16" x="522.86" y="41.15" width="895.89" height="137.85" rx="12"/><path class="cls-4" d="M583.6,54a2.49,2.49,0,0,1,2.51,2.51,2.38,2.38,0,0,1-.68,1.7,2.58,2.58,0,0,1-1.62.81H573.29a5.35,5.35,0,0,0-2.59.76,5,5,0,0,0-1.6,1.6,6,6,0,0,0-.78,2,10.61,10.61,0,0,0-.21,2v8.9a2.52,2.52,0,0,1-4.3,1.78,2.45,2.45,0,0,1-.73-1.78v-8.9a13.22,13.22,0,0,1,.42-3.27A12.53,12.53,0,0,1,564.76,59H547.59a2.51,2.51,0,1,1,0-5Z"/><path class="cls-4" d="M595.64,76.05a2.51,2.51,0,0,1-4.29-1.78V56.48a2.51,2.51,0,1,1,5,0V74.27A2.41,2.41,0,0,1,595.64,76.05Z"/><path class="cls-4" d="M645.78,74.27a2.49,2.49,0,0,1-2.51,2.51,2.51,2.51,0,0,1-2.52-2.51V62.86c0-1.43-.08-2.14-.26-2.14s-.63.47-1.46,1.41L627.51,75.21a4.24,4.24,0,0,1-1.67,1.18,5.86,5.86,0,0,1-2.15.39,5.77,5.77,0,0,1-2.14-.39,4.2,4.2,0,0,1-1.68-1.18L608.36,62.13q-1.22-1.41-1.47-1.41c-.17,0-.26.71-.26,2.14V74.27a2.49,2.49,0,0,1-2.51,2.51,2.4,2.4,0,0,1-1.78-.73,2.42,2.42,0,0,1-.74-1.78V59a5.41,5.41,0,0,1,1.21-3.56A4,4,0,0,1,606.1,54a4.16,4.16,0,0,1,2.26.63,9.3,9.3,0,0,1,1.83,1.51l12,13.71a4.77,4.77,0,0,0,.65.55,1.28,1.28,0,0,0,1.62,0,5.64,5.64,0,0,0,.66-.55l12-13.71h.05A5.67,5.67,0,0,1,639,54.54a4.76,4.76,0,0,1,2.31-.57,4.08,4.08,0,0,1,3.3,1.46,5.45,5.45,0,0,1,1.2,3.56Z"/><path class="cls-4" d="M651,56.48A2.49,2.49,0,0,1,653.52,54h37.11a2.51,2.51,0,1,1,0,5H653.52A2.49,2.49,0,0,1,651,56.48Zm6.39,20.3a5.66,5.66,0,0,1-2.31-.5,6.69,6.69,0,0,1-2-1.38,7.35,7.35,0,0,1-1.46-2.15,6.58,6.58,0,0,1-.58-2.82V65.22a2,2,0,0,1,.81-1.89,5.3,5.3,0,0,1,2.54-.47h35.12a2.42,2.42,0,0,1,1.78.74,2.52,2.52,0,0,1,0,3.55,2.42,2.42,0,0,1-1.78.74H656v2.56a1.19,1.19,0,0,0,.44.92,1.73,1.73,0,0,0,1.18.39h33a2.51,2.51,0,1,1,0,5Z"/><path class="cls-4" d="M698.38,59.62a3.1,3.1,0,0,1,.94-2.3,3.3,3.3,0,0,1,4.61,0,3.28,3.28,0,0,1,0,4.6,3.25,3.25,0,0,1-5.55-2.3Zm0,14.65a3.21,3.21,0,1,1,.94,2.3A3.12,3.12,0,0,1,698.38,74.27Z"/><path class="cls-4" d="M587.68,128.16a13.13,13.13,0,0,1-.65,4,12.52,12.52,0,0,1-1.91,3.66,10.29,10.29,0,0,1-3,2.69,7.79,7.79,0,0,1-4,1H554.18a7,7,0,0,1-3.82-1,10,10,0,0,1-2.85-2.69,12.66,12.66,0,0,1-1.8-3.69,13.47,13.47,0,0,1-.63-4,12.78,12.78,0,0,1,.65-4,12.29,12.29,0,0,1,1.91-3.66,10.47,10.47,0,0,1,3-2.7,7.76,7.76,0,0,1,4-1h23.86a7.74,7.74,0,0,1,3.83,1.17,10.76,10.76,0,0,1,2.85,2.7,12.59,12.59,0,0,1,1.8,3.61A12.89,12.89,0,0,1,587.68,128.16Zm-7.85,5.73a5.43,5.43,0,0,0,1.81-1.59,5.78,5.78,0,0,0,.89-2.07,9.39,9.39,0,0,0,0-4.13,5.78,5.78,0,0,0-.89-2.07,5.45,5.45,0,0,0-1.81-1.6,5.94,5.94,0,0,0-2.93-.65h-21a5.93,5.93,0,0,0-3,.65,5.54,5.54,0,0,0-1.78,1.6,5.78,5.78,0,0,0-.89,2.07,9.39,9.39,0,0,0,0,4.13,5.78,5.78,0,0,0,.89,2.07,5.51,5.51,0,0,0,1.78,1.59,5.82,5.82,0,0,0,3,.66h21A5.83,5.83,0,0,0,579.83,133.89Zm-1.73-7.51a2.51,2.51,0,0,1,0,3.56,2.41,2.41,0,0,1-1.78.73H556.43a2.39,2.39,0,0,1-1.77-.73,2.51,2.51,0,0,1,1.77-4.29h19.89A2.45,2.45,0,0,1,578.1,126.38Z"/><path class="cls-4" d="M633.11,135.28a2.51,2.51,0,0,1-1.78,4.29h-35.9a2.49,2.49,0,0,1-2.51-2.51v-5a6.47,6.47,0,0,1,.47-2.48,5.91,5.91,0,0,1,1.33-2,6.46,6.46,0,0,1,2-1.36,6.12,6.12,0,0,1,2.49-.5H627a2,2,0,0,0,1.39-.55,1.79,1.79,0,0,0,.6-1.38,1.84,1.84,0,0,0-.6-1.37,2,2,0,0,0-1.39-.57H595.43a2.51,2.51,0,1,1,0-5h31.35a6.86,6.86,0,0,1,2.75.55,7.3,7.3,0,0,1,2.25,1.49A7,7,0,0,1,633.3,121a7.15,7.15,0,0,1,0,5.45,7,7,0,0,1-1.52,2.19,7.3,7.3,0,0,1-2.25,1.49,6.86,6.86,0,0,1-2.75.55H599.51a1.89,1.89,0,0,0-1.15.63,1.87,1.87,0,0,0-.47,1.31v1.94h33.44A2.41,2.41,0,0,1,633.11,135.28Z"/><path class="cls-4" d="M639.08,122.41a3.14,3.14,0,0,1,.94-2.31,3.26,3.26,0,0,1,4.61,4.61,3.25,3.25,0,0,1-5.55-2.3Zm0,14.65a3.1,3.1,0,0,1,.94-2.3,3.28,3.28,0,1,1-.94,2.3Z"/><path class="cls-4" d="M693.41,128.16a12.85,12.85,0,0,1-.66,4,12.06,12.06,0,0,1-1.91,3.66,10.25,10.25,0,0,1-3,2.69,7.79,7.79,0,0,1-4,1H659.91a7,7,0,0,1-3.82-1,9.73,9.73,0,0,1-2.85-2.69,12.69,12.69,0,0,1-1.81-3.69,13.47,13.47,0,0,1-.63-4,12.79,12.79,0,0,1,.66-4,12.06,12.06,0,0,1,1.91-3.66,10.43,10.43,0,0,1,3-2.7,7.78,7.78,0,0,1,4-1H684.3a7.7,7.7,0,0,1,3.82,1.17,10.47,10.47,0,0,1,2.85,2.7,12.36,12.36,0,0,1,1.81,3.61A12.89,12.89,0,0,1,693.41,128.16Zm-7.85,5.73a5.39,5.39,0,0,0,1.8-1.59,5.61,5.61,0,0,0,.89-2.07,9,9,0,0,0,0-4.13,5.61,5.61,0,0,0-.89-2.07,5.41,5.41,0,0,0-1.8-1.6,6,6,0,0,0-2.93-.65h-21a5.89,5.89,0,0,0-3,.65,5.44,5.44,0,0,0-1.78,1.6,5.61,5.61,0,0,0-.89,2.07,9,9,0,0,0,0,4.13,5.61,5.61,0,0,0,.89,2.07,5.41,5.41,0,0,0,1.78,1.59,5.78,5.78,0,0,0,3,.66h21A5.85,5.85,0,0,0,685.56,133.89Zm-1.73-7.51a2.51,2.51,0,0,1-1.78,4.29H662.16a2.52,2.52,0,0,1-1.78-4.29,2.45,2.45,0,0,1,1.78-.73h19.89A2.45,2.45,0,0,1,683.83,126.38Z"/><path class="cls-4" d="M741.25,128.16a12.85,12.85,0,0,1-.66,4,12.29,12.29,0,0,1-1.91,3.66,10.38,10.38,0,0,1-3,2.69,7.83,7.83,0,0,1-4,1H707.75a7,7,0,0,1-3.82-1,9.89,9.89,0,0,1-2.86-2.69,12.92,12.92,0,0,1-1.8-3.69,13.47,13.47,0,0,1-.63-4,13.07,13.07,0,0,1,.65-4,12.31,12.31,0,0,1,1.92-3.66,10.3,10.3,0,0,1,3-2.7,7.78,7.78,0,0,1,4-1h23.87a7.7,7.7,0,0,1,3.82,1.17,10.47,10.47,0,0,1,2.85,2.7,12.36,12.36,0,0,1,1.81,3.61A12.89,12.89,0,0,1,741.25,128.16Zm-7.86,5.73a5.43,5.43,0,0,0,1.81-1.59,5.61,5.61,0,0,0,.89-2.07,9,9,0,0,0,0-4.13,5.61,5.61,0,0,0-.89-2.07,5.45,5.45,0,0,0-1.81-1.6,5.91,5.91,0,0,0-2.93-.65h-21a5.89,5.89,0,0,0-2.95.65,5.34,5.34,0,0,0-1.78,1.6,5.45,5.45,0,0,0-.89,2.07,9,9,0,0,0,0,4.13,5.45,5.45,0,0,0,.89,2.07,5.31,5.31,0,0,0,1.78,1.59,5.78,5.78,0,0,0,2.95.66h21A5.8,5.8,0,0,0,733.39,133.89Zm-1.72-7.51a2.51,2.51,0,0,1-1.78,4.29H710a2.52,2.52,0,0,1-1.78-4.29,2.45,2.45,0,0,1,1.78-.73h19.89A2.47,2.47,0,0,1,731.67,126.38Z"/><path class="cls-4" d="M858.06,79.61a7.38,7.38,0,0,1-2.28-1.49,7.1,7.1,0,0,1-1.54-2.2,6.35,6.35,0,0,1-.58-2.72V59.86a2.41,2.41,0,0,1,.73-1.78,2.49,2.49,0,0,1,3.54,0,2.4,2.4,0,0,1,.76,1.78V73.2a1.82,1.82,0,0,0,.6,1.36,2,2,0,0,0,1.38.57h31.41a2.52,2.52,0,0,1,1.78,4.3,2.45,2.45,0,0,1-1.78.73H860.83A7.17,7.17,0,0,1,858.06,79.61Z"/><path class="cls-4" d="M904.12,79.43a2.54,2.54,0,0,1-3.56,0,2.44,2.44,0,0,1-.74-1.78V59.86a2.52,2.52,0,0,1,4.3-1.78,2.45,2.45,0,0,1,.73,1.78V77.65A2.47,2.47,0,0,1,904.12,79.43Z"/><path class="cls-4" d="M943.11,58.29a2.48,2.48,0,0,1,3.72-.21,2.45,2.45,0,0,1,.73,1.78,2.2,2.2,0,0,1-.52,1.51l-.06.06L934.32,78.48a7.39,7.39,0,0,1-2.38,2,6.65,6.65,0,0,1-3.12.75,6.56,6.56,0,0,1-3-.68,6.66,6.66,0,0,1-2.33-1.88l-12.71-17a3.71,3.71,0,0,1-.53-.82,2.18,2.18,0,0,1-.21-1,2.53,2.53,0,0,1,2.52-2.52,2.34,2.34,0,0,1,2,1l12.2,16.27a9.93,9.93,0,0,0,.92.92,1.66,1.66,0,0,0,1.12.49,1.7,1.7,0,0,0,1.13-.49,7,7,0,0,0,.86-.92Z"/><path class="cls-4" d="M952.79,59.86a2.51,2.51,0,0,1,2.51-2.52h37.11a2.53,2.53,0,0,1,2.52,2.52,2.51,2.51,0,0,1-2.52,2.51H955.3a2.49,2.49,0,0,1-2.51-2.51Zm6.39,20.3a5.75,5.75,0,0,1-2.3-.5,6.47,6.47,0,0,1-2-1.39,7.17,7.17,0,0,1-1.46-2.14,6.63,6.63,0,0,1-.58-2.83V68.59a2,2,0,0,1,.81-1.88,5.3,5.3,0,0,1,2.54-.47h35.12a2.51,2.51,0,1,1,0,5H957.82v2.57a1.16,1.16,0,0,0,.44.91,1.73,1.73,0,0,0,1.18.39h33a2.53,2.53,0,0,1,2.52,2.52,2.51,2.51,0,0,1-2.52,2.51Z"/><path class="cls-4" d="M1004.4,70.71a7,7,0,0,1-2.2-1.49,7.13,7.13,0,0,1-1.49-2.2,6.61,6.61,0,0,1-.55-2.72,6.68,6.68,0,0,1,.55-2.72,7.08,7.08,0,0,1,1.49-2.19,7.16,7.16,0,0,1,2.2-1.5,6.81,6.81,0,0,1,2.72-.55h31.77a2.52,2.52,0,0,1,1.78,4.3,2.45,2.45,0,0,1-1.78.73H1007a2,2,0,0,0-1.39.55,1.79,1.79,0,0,0-.6,1.38,1.81,1.81,0,0,0,.6,1.36,1.92,1.92,0,0,0,1.39.58H1036a6.86,6.86,0,0,1,2.75.55,7.1,7.1,0,0,1,2.22,1.49,6.94,6.94,0,0,1,1.49,2.22,6.86,6.86,0,0,1,.55,2.75,6.65,6.65,0,0,1-.55,2.72,7,7,0,0,1-1.49,2.2,6.55,6.55,0,0,1-2.22,1.46,7.2,7.2,0,0,1-2.75.53h-31.72a2.49,2.49,0,0,1-2.51-2.51,2.51,2.51,0,0,1,2.51-2.52h31.93a1.92,1.92,0,0,0,1.36-.54,1.82,1.82,0,0,0,.58-1.34,1.92,1.92,0,0,0-.58-1.41,1.88,1.88,0,0,0-1.36-.58h-29.05A6.65,6.65,0,0,1,1004.4,70.71Z"/><path class="cls-4" d="M1048.21,63a3.21,3.21,0,0,1,3.24-3.25,3.26,3.26,0,0,1,2.31,5.55,3.25,3.25,0,0,1-5.55-2.3Zm0,14.65a3.21,3.21,0,0,1,3.24-3.25,3.26,3.26,0,0,1,2.31,5.55,3.25,3.25,0,0,1-5.55-2.3Z"/><path class="cls-4" d="M859.63,131.54a2.49,2.49,0,0,1,2.51-2.51h26a1.82,1.82,0,0,0,1.36-.58,1.89,1.89,0,0,0,.58-1.41,1.74,1.74,0,0,0-.58-1.33,1.87,1.87,0,0,0-1.36-.55h-32a2.44,2.44,0,0,1-1.78-.74,2.52,2.52,0,0,1,0-3.55,2.44,2.44,0,0,1,1.78-.74h31.72a7.2,7.2,0,0,1,2.75.53,6.6,6.6,0,0,1,2.22,1.46,7.16,7.16,0,0,1,1.5,2.2,6.81,6.81,0,0,1,.54,2.72,6.71,6.71,0,0,1-1.67,4.5,7,7,0,0,1,1.13,7.22,7.16,7.16,0,0,1-1.5,2.2,6.6,6.6,0,0,1-2.22,1.46,7.2,7.2,0,0,1-2.75.53H856.17a2.44,2.44,0,0,1-1.78-.74,2.52,2.52,0,0,1,0-3.55,2.44,2.44,0,0,1,1.78-.74h32a1.87,1.87,0,0,0,1.36-.55,1.74,1.74,0,0,0,.58-1.33,1.89,1.89,0,0,0-.58-1.41,1.82,1.82,0,0,0-1.36-.58h-26a2.49,2.49,0,0,1-2.51-2.51Z"/><path class="cls-4" d="M1160.17,72a7.26,7.26,0,0,1-2.19-1.49,7.16,7.16,0,0,1-1.5-2.2,6.85,6.85,0,0,1-.55-2.72,6.78,6.78,0,0,1,.55-2.72,7.16,7.16,0,0,1,1.5-2.2,6.91,6.91,0,0,1,2.19-1.49,6.69,6.69,0,0,1,2.73-.55h31.77a2.51,2.51,0,1,1,0,5h-31.88a2,2,0,0,0-1.39.55,1.81,1.81,0,0,0-.6,1.39,1.84,1.84,0,0,0,.6,1.36,2,2,0,0,0,1.39.57h29a7,7,0,0,1,2.74.55,6.87,6.87,0,0,1,3.72,3.72,6.82,6.82,0,0,1,.55,2.75,6.68,6.68,0,0,1-.55,2.72,7.26,7.26,0,0,1-1.49,2.19,6.67,6.67,0,0,1-2.23,1.47,7.15,7.15,0,0,1-2.74.52H1160a2.51,2.51,0,1,1,0-5h31.92a1.91,1.91,0,0,0,1.37-.55,1.79,1.79,0,0,0,.57-1.33,2,2,0,0,0-.57-1.42,1.89,1.89,0,0,0-1.37-.57h-29A6.86,6.86,0,0,1,1160.17,72Z"/><path class="cls-4" d="M1204,70a12.85,12.85,0,0,1,.66-4,12.06,12.06,0,0,1,1.91-3.66,10.25,10.25,0,0,1,3-2.69,7.79,7.79,0,0,1,4-1.05h30.52a2.51,2.51,0,1,1,0,5h-29.42a5.82,5.82,0,0,0-3,.66,5.27,5.27,0,0,0-1.77,1.59,5.63,5.63,0,0,0-.9,2.07,9.39,9.39,0,0,0,0,4.13,5.63,5.63,0,0,0,.9,2.07,5.27,5.27,0,0,0,1.77,1.59,5.82,5.82,0,0,0,3,.66h29.42a2.51,2.51,0,1,1,0,5h-31a7.1,7.1,0,0,1-3.82-1,9.9,9.9,0,0,1-2.85-2.7,12.69,12.69,0,0,1-1.81-3.69A13.4,13.4,0,0,1,1204,70Z"/><path class="cls-4" d="M1294.48,70a12.79,12.79,0,0,1-.66,4,12.06,12.06,0,0,1-1.91,3.66,10.43,10.43,0,0,1-3,2.7,7.88,7.88,0,0,1-4,1H1261a7.61,7.61,0,0,1-3.82-1.18,10.28,10.28,0,0,1-2.85-2.69,12.36,12.36,0,0,1-1.81-3.61,12.51,12.51,0,0,1,0-7.93,12.06,12.06,0,0,1,1.91-3.66,10.38,10.38,0,0,1,3-2.69,7.79,7.79,0,0,1,4-1.05h23.87a7.61,7.61,0,0,1,3.82,1.18,10.28,10.28,0,0,1,2.85,2.69,12.48,12.48,0,0,1,1.81,3.61A13,13,0,0,1,1294.48,70Zm-7.8,5.72a5.19,5.19,0,0,0,1.8-1.59,5.63,5.63,0,0,0,.9-2.07,9.39,9.39,0,0,0,0-4.13,5.63,5.63,0,0,0-.9-2.07,5.19,5.19,0,0,0-1.8-1.59,5.85,5.85,0,0,0-2.93-.66H1262.6a5.78,5.78,0,0,0-2.95.66,5.21,5.21,0,0,0-1.78,1.59,5.45,5.45,0,0,0-.89,2.07,9,9,0,0,0,0,4.13,5.45,5.45,0,0,0,.89,2.07,5.21,5.21,0,0,0,1.78,1.59,5.78,5.78,0,0,0,2.95.66h21.15A5.85,5.85,0,0,0,1286.68,75.71Z"/><path class="cls-4" d="M1336.24,74.41c1,.68,2,1.42,3,2.22a4.79,4.79,0,0,1,1,1,2,2,0,0,1,.42,1.28,2.49,2.49,0,0,1-2.51,2.51,2.77,2.77,0,0,1-1.78-.73q-2.14-1.57-4.4-3a41.1,41.1,0,0,0-4.68-2.61,28.21,28.21,0,0,0-5-1.83,21.31,21.31,0,0,0-5.45-.68h-10.41a1.9,1.9,0,0,0-1.15.62,1.87,1.87,0,0,0-.47,1.31v4.45a2.4,2.4,0,0,1-.76,1.78,2.45,2.45,0,0,1-1.76.73,2.49,2.49,0,0,1-2.51-2.51v-5a6.4,6.4,0,0,1,.5-2.49,6.6,6.6,0,0,1,1.33-2,6.17,6.17,0,0,1,2-1.36,6.32,6.32,0,0,1,2.51-.5h27.74a2,2,0,0,0,1.39-.55,1.77,1.77,0,0,0,.6-1.38,1.81,1.81,0,0,0-.6-1.36,1.92,1.92,0,0,0-1.39-.58h-31.56a2.51,2.51,0,1,1,0-5h31.36a6.81,6.81,0,0,1,2.74.55,7.07,7.07,0,0,1,2.25,1.49,6.88,6.88,0,0,1,1.52,2.2,6.61,6.61,0,0,1,.55,2.72,6.68,6.68,0,0,1-.55,2.72,6.88,6.88,0,0,1-1.52,2.2,7.42,7.42,0,0,1-2.25,1.49,7,7,0,0,1-2.74.55h-.21C1334.31,73.09,1335.27,73.73,1336.24,74.41Z"/><path class="cls-4" d="M1345.87,61.09a2.42,2.42,0,0,1,.74-1.78,2.4,2.4,0,0,1,1.78-.73h37.11a2.39,2.39,0,0,1,1.77.73,2.51,2.51,0,0,1,0,3.56,2.39,2.39,0,0,1-1.77.73h-37.11a2.4,2.4,0,0,1-1.78-.73A2.42,2.42,0,0,1,1345.87,61.09Zm6.39,20.3a5.58,5.58,0,0,1-2.3-.5,6.45,6.45,0,0,1-2-1.38,7.06,7.06,0,0,1-1.47-2.15,6.74,6.74,0,0,1-.58-2.82V69.83a2,2,0,0,1,.82-1.89,5.25,5.25,0,0,1,2.53-.47h35.12a2.52,2.52,0,0,1,0,5H1350.9v2.56a1.22,1.22,0,0,0,.44.92,1.73,1.73,0,0,0,1.18.39h33a2.39,2.39,0,0,1,1.77.73,2.51,2.51,0,0,1,0,3.56,2.39,2.39,0,0,1-1.77.73Z"/><path class="cls-4" d="M1393.24,64.23a3.26,3.26,0,0,1,5.55-2.3,3.26,3.26,0,0,1-4.61,4.6A3.15,3.15,0,0,1,1393.24,64.23Zm0,14.65a3.26,3.26,0,0,1,5.55-2.3,3.26,3.26,0,0,1-4.61,4.6A3.15,3.15,0,0,1,1393.24,78.88Z"/><path class="cls-4" d="M1198.54,132.77a12.85,12.85,0,0,1-.66,4,12.06,12.06,0,0,1-1.91,3.66,10.13,10.13,0,0,1-3,2.69,7.79,7.79,0,0,1-4,1.05H1165a7,7,0,0,1-3.82-1.05,9.73,9.73,0,0,1-2.85-2.69,12.69,12.69,0,0,1-1.81-3.69,13.47,13.47,0,0,1-.63-4,12.79,12.79,0,0,1,.66-4,12.06,12.06,0,0,1,1.91-3.66,10.47,10.47,0,0,1,3-2.7,7.83,7.83,0,0,1,4-1h23.86a7.67,7.67,0,0,1,3.82,1.17,10.65,10.65,0,0,1,2.86,2.7,12.59,12.59,0,0,1,1.8,3.61A12.94,12.94,0,0,1,1198.54,132.77Zm-7.85,5.73a5.29,5.29,0,0,0,1.8-1.59,5.45,5.45,0,0,0,.89-2.07,9,9,0,0,0,0-4.13,5.45,5.45,0,0,0-.89-2.07,5.32,5.32,0,0,0-1.8-1.6,6,6,0,0,0-2.93-.65h-21a5.9,5.9,0,0,0-3,.65,5.54,5.54,0,0,0-1.78,1.6,5.61,5.61,0,0,0-.89,2.07,9,9,0,0,0,0,4.13,5.61,5.61,0,0,0,.89,2.07,5.51,5.51,0,0,0,1.78,1.59,5.79,5.79,0,0,0,3,.66h21A5.85,5.85,0,0,0,1190.69,138.5ZM1189,131a2.52,2.52,0,0,1-1.78,4.3h-19.89a2.52,2.52,0,0,1-1.78-4.3,2.45,2.45,0,0,1,1.78-.73h19.89A2.45,2.45,0,0,1,1189,131Z"/><path class="cls-4" d="M1246.38,132.77a12.85,12.85,0,0,1-.66,4,12.06,12.06,0,0,1-1.91,3.66,10.38,10.38,0,0,1-3,2.69,7.79,7.79,0,0,1-4,1.05h-23.87a7,7,0,0,1-3.82-1.05,9.73,9.73,0,0,1-2.85-2.69,12.69,12.69,0,0,1-1.81-3.69,13.47,13.47,0,0,1-.63-4,12.79,12.79,0,0,1,.66-4,12.06,12.06,0,0,1,1.91-3.66,10.43,10.43,0,0,1,3-2.7,7.88,7.88,0,0,1,4-1h23.87a7.7,7.7,0,0,1,3.82,1.17,10.47,10.47,0,0,1,2.85,2.7,12.36,12.36,0,0,1,1.81,3.61A12.94,12.94,0,0,1,1246.38,132.77Zm-7.85,5.73a5.39,5.39,0,0,0,1.8-1.59,5.61,5.61,0,0,0,.89-2.07,9,9,0,0,0,0-4.13,5.61,5.61,0,0,0-.89-2.07,5.41,5.41,0,0,0-1.8-1.6,6,6,0,0,0-2.94-.65h-21a5.89,5.89,0,0,0-3,.65,5.41,5.41,0,0,0-2.67,3.67,9,9,0,0,0,0,4.13,5.37,5.37,0,0,0,2.67,3.66,5.78,5.78,0,0,0,3,.66h21A5.87,5.87,0,0,0,1238.53,138.5ZM1236.8,131a2.52,2.52,0,0,1-1.78,4.3h-19.89a2.52,2.52,0,0,1-1.78-4.3,2.45,2.45,0,0,1,1.78-.73H1235A2.45,2.45,0,0,1,1236.8,131Z"/><path class="cls-4" d="M1258.52,128.38a2.05,2.05,0,0,0-2-2h-2.41a2.51,2.51,0,1,1,0-5h2.36a6.89,6.89,0,0,1,2.75.55,7.3,7.3,0,0,1,2.25,1.49,6.91,6.91,0,0,1,2.06,5v13.29a2.51,2.51,0,1,1-5,0Z"/><rect class="cls-6" x="16.38" y="833.17" width="326.05" height="110.02" rx="12" transform="translate(-588.02 406.4) rotate(-46.46)"/><rect class="cls-17" x="265.59" y="708.23" width="126.02" height="35.01" rx="12" transform="translate(-423.84 464.01) rotate(-46.46)"/><rect class="cls-4" x="148.54" y="867.47" width="199.03" height="7.34" rx="3.67" transform="translate(-554.31 450.86) rotate(-46.46)"/><ellipse cx="366.91" cy="686.71" rx="4.04" ry="13.71" transform="translate(-395.06 526.7) rotate(-50.02)"/><rect class="cls-6" x="1571.96" y="865.17" width="326.05" height="110.02" rx="12" transform="translate(2263.11 2811.75) rotate(-133.54)"/><rect class="cls-17" x="1522.78" y="740.23" width="126.02" height="35.01" rx="12" transform="translate(2128.9 2429.24) rotate(-133.54)"/><rect class="cls-4" x="1628.85" y="849.47" width="199.03" height="7.34" rx="3.67" transform="translate(2300.52 2693.72) rotate(-133.54)"/><ellipse cx="1547.49" cy="718.71" rx="13.71" ry="4.04" transform="translate(-100.13 1162.13) rotate(-39.98)"/></svg>
