<svg id="Layer_1" data-name="Layer 1" xmlns="http://www.w3.org/2000/svg" viewBox="0 0 1920 1080"><defs><style>.cls-1{fill:#2fa01c;}.cls-2{fill:#fff;}</style></defs><title>score</title><rect class="cls-1" x="937" y="669" width="290" height="140" rx="12"/><path class="cls-2" d="M970.89,701.17a7.06,7.06,0,0,1-2.21-1.51,7.29,7.29,0,0,1-1.5-2.23,7.23,7.23,0,0,1,0-5.53,7.17,7.17,0,0,1,1.5-2.23,7.26,7.26,0,0,1,2.21-1.52,6.69,6.69,0,0,1,2.73-.55h31.92a2.42,2.42,0,0,1,1.79.74,2.48,2.48,0,0,1,.73,1.81,2.53,2.53,0,0,1-2.52,2.55h-32a2,2,0,0,0-1.4.55,1.92,1.92,0,0,0,0,2.79,1.93,1.93,0,0,0,1.4.59h29.07a6.68,6.68,0,0,1,2.76.56,7,7,0,0,1,2.24,1.51,7.2,7.2,0,0,1,1.5,2.26,7.05,7.05,0,0,1,.55,2.79,6.84,6.84,0,0,1-.55,2.76,7.34,7.34,0,0,1-1.5,2.24,6.73,6.73,0,0,1-2.24,1.48,7,7,0,0,1-2.76.53H970.73a2.41,2.41,0,0,1-1.79-.74,2.6,2.6,0,0,1,0-3.61,2.42,2.42,0,0,1,1.79-.75h32.07a1.89,1.89,0,0,0,1.37-.55,1.82,1.82,0,0,0,.58-1.36,1.93,1.93,0,0,0-.58-1.43,1.85,1.85,0,0,0-1.37-.59H973.62A6.7,6.7,0,0,1,970.89,701.17Z"/><path class="cls-2" d="M1014.9,699.18a13.4,13.4,0,0,1,.65-4.06,12.57,12.57,0,0,1,1.92-3.73,10.74,10.74,0,0,1,3-2.73,7.75,7.75,0,0,1,4-1.06h30.66a2.39,2.39,0,0,1,1.78.74,2.49,2.49,0,0,1,.74,1.81,2.45,2.45,0,0,1-.74,1.8,2.39,2.39,0,0,1-1.78.75h-29.55a5.83,5.83,0,0,0-3,.66,5.41,5.41,0,0,0-1.79,1.62,5.77,5.77,0,0,0-.9,2.1,9.7,9.7,0,0,0,0,4.2,5.77,5.77,0,0,0,.9,2.1,5.41,5.41,0,0,0,1.79,1.62,5.83,5.83,0,0,0,3,.66h29.55a2.39,2.39,0,0,1,1.78.75,2.57,2.57,0,0,1,0,3.61,2.39,2.39,0,0,1-1.78.74h-31.18a7,7,0,0,1-3.84-1.06,10.11,10.11,0,0,1-2.87-2.74,12.85,12.85,0,0,1-1.81-3.74A13.85,13.85,0,0,1,1014.9,699.18Z"/><path class="cls-2" d="M1105.81,699.18a13.22,13.22,0,0,1-.66,4.07,12.46,12.46,0,0,1-1.92,3.71,10.5,10.5,0,0,1-3,2.74,7.75,7.75,0,0,1-4,1.06h-24a7.66,7.66,0,0,1-3.84-1.19,10.68,10.68,0,0,1-2.87-2.74,12.77,12.77,0,0,1-1.81-3.66,13.38,13.38,0,0,1-.63-4,13.11,13.11,0,0,1,.66-4.06,12.31,12.31,0,0,1,1.91-3.73,10.74,10.74,0,0,1,3.05-2.73,7.77,7.77,0,0,1,4-1.06h24a7.56,7.56,0,0,1,3.84,1.19,10.65,10.65,0,0,1,2.86,2.74,12.79,12.79,0,0,1,1.82,3.66A13.38,13.38,0,0,1,1105.81,699.18ZM1098,705a5.43,5.43,0,0,0,1.82-1.62,5.75,5.75,0,0,0,.89-2.1,9.31,9.31,0,0,0,0-4.2,5.75,5.75,0,0,0-.89-2.1,5.43,5.43,0,0,0-1.82-1.62,5.87,5.87,0,0,0-2.94-.66h-21.24a5.83,5.83,0,0,0-3,.66A5.41,5.41,0,0,0,1069,695a5.77,5.77,0,0,0-.9,2.1,9.7,9.7,0,0,0,0,4.2,5.77,5.77,0,0,0,.9,2.1,5.41,5.41,0,0,0,1.79,1.62,5.83,5.83,0,0,0,3,.66H1095A5.87,5.87,0,0,0,1098,705Z"/><path class="cls-2" d="M1147.77,703.67c1,.69,2,1.44,3,2.26a4.65,4.65,0,0,1,1,1,2.11,2.11,0,0,1,.42,1.3,2.47,2.47,0,0,1-.73,1.81,2.41,2.41,0,0,1-1.79.74,2.78,2.78,0,0,1-1.79-.74q-2.16-1.59-4.41-3.08a40.37,40.37,0,0,0-4.71-2.66,28.33,28.33,0,0,0-5.08-1.86,21.39,21.39,0,0,0-5.46-.69h-10.47a1.86,1.86,0,0,0-1.15.64,1.91,1.91,0,0,0-.48,1.33v4.51a2.52,2.52,0,0,1-4.31,1.81,2.47,2.47,0,0,1-.73-1.81v-5.1a6.69,6.69,0,0,1,1.84-4.59,6.1,6.1,0,0,1,2-1.39,6.38,6.38,0,0,1,2.53-.5h27.86a2,2,0,0,0,1.4-.56,1.84,1.84,0,0,0,.6-1.41,1.86,1.86,0,0,0-.6-1.38,1.94,1.94,0,0,0-1.4-.58h-31.7a2.42,2.42,0,0,1-1.79-.75,2.44,2.44,0,0,1-.73-1.8,2.48,2.48,0,0,1,.73-1.81,2.41,2.41,0,0,1,1.79-.74h31.49a6.92,6.92,0,0,1,2.77.55,7.61,7.61,0,0,1,2.26,1.52,7.06,7.06,0,0,1,1.52,2.23,7.23,7.23,0,0,1,0,5.53,7.18,7.18,0,0,1-1.52,2.23,7.4,7.4,0,0,1-2.26,1.51,6.93,6.93,0,0,1-2.77.56h-.2C1145.82,702.33,1146.79,703,1147.77,703.67Z"/><path class="cls-2" d="M1157.44,690.15a2.49,2.49,0,0,1,.74-1.81,2.39,2.39,0,0,1,1.78-.74h37.28a2.41,2.41,0,0,1,1.79.74,2.49,2.49,0,0,1,.74,1.81,2.45,2.45,0,0,1-.74,1.8,2.42,2.42,0,0,1-1.79.75H1160a2.39,2.39,0,0,1-1.78-.75A2.45,2.45,0,0,1,1157.44,690.15Zm6.42,20.61a5.67,5.67,0,0,1-2.32-.5,6.53,6.53,0,0,1-2-1.41,7.21,7.21,0,0,1-1.47-2.18,6.78,6.78,0,0,1-.58-2.87V699a2,2,0,0,1,.82-1.91,5.18,5.18,0,0,1,2.55-.48h35.28a2.55,2.55,0,0,1,0,5.1h-33.6v2.6a1.19,1.19,0,0,0,.45.93,1.67,1.67,0,0,0,1.18.4h33.12a2.42,2.42,0,0,1,1.79.75,2.57,2.57,0,0,1,0,3.61,2.41,2.41,0,0,1-1.79.74Z"/><path class="cls-2" d="M966.63,757.1a3.26,3.26,0,0,1,5.57-2.33,3.34,3.34,0,0,1,0,4.67,3.26,3.26,0,0,1-4.62,0A3.16,3.16,0,0,1,966.63,757.1Zm0,14.88a3.27,3.27,0,0,1,5.57-2.34,3.36,3.36,0,0,1,0,4.68,3.26,3.26,0,0,1-4.62,0A3.16,3.16,0,0,1,966.63,772Z"/><path class="cls-2" d="M1044.87,763a13.11,13.11,0,0,1-.66,4.06,12.39,12.39,0,0,1-1.92,3.72,10.5,10.5,0,0,1-3,2.74,7.75,7.75,0,0,1-4,1.06h-24a7,7,0,0,1-3.84-1.06,10.11,10.11,0,0,1-2.87-2.74,12.85,12.85,0,0,1-1.81-3.74,13.85,13.85,0,0,1-.63-4,13.22,13.22,0,0,1,.66-4.07,12.38,12.38,0,0,1,1.91-3.72,10.74,10.74,0,0,1,3.05-2.73,7.8,7.8,0,0,1,4-1.06h24a7.56,7.56,0,0,1,3.84,1.19,10.65,10.65,0,0,1,2.86,2.74,12.79,12.79,0,0,1,1.82,3.66A13.38,13.38,0,0,1,1044.87,763Zm-7.89,5.82a5.43,5.43,0,0,0,1.82-1.62,5.93,5.93,0,0,0,.89-2.1,9.31,9.31,0,0,0,0-4.2,5.93,5.93,0,0,0-.89-2.1,5.43,5.43,0,0,0-1.82-1.62,5.87,5.87,0,0,0-2.94-.66H1012.9a5.83,5.83,0,0,0-3,.66,5.41,5.41,0,0,0-1.79,1.62,5.75,5.75,0,0,0-.89,2.1,9.31,9.31,0,0,0,0,4.2,5.75,5.75,0,0,0,.89,2.1,5.41,5.41,0,0,0,1.79,1.62,5.83,5.83,0,0,0,3,.66H1034A5.87,5.87,0,0,0,1037,768.77Zm-1.73-7.63a2.55,2.55,0,0,1-1.79,4.36h-20a2.45,2.45,0,0,1-1.79-.74,2.58,2.58,0,0,1,0-3.62,2.45,2.45,0,0,1,1.79-.74h20A2.46,2.46,0,0,1,1035.25,761.14Z"/><path class="cls-2" d="M1092.93,763a13.11,13.11,0,0,1-.66,4.06,12.39,12.39,0,0,1-1.92,3.72,10.5,10.5,0,0,1-3,2.74,7.75,7.75,0,0,1-4,1.06h-24a7,7,0,0,1-3.84-1.06,10,10,0,0,1-2.87-2.74,12.85,12.85,0,0,1-1.81-3.74,13.85,13.85,0,0,1-.63-4,13.21,13.21,0,0,1,.65-4.07,12.64,12.64,0,0,1,1.92-3.72,10.61,10.61,0,0,1,3-2.73,7.75,7.75,0,0,1,4-1.06h24a7.62,7.62,0,0,1,3.84,1.19,10.65,10.65,0,0,1,2.86,2.74,12.51,12.51,0,0,1,1.81,3.66A13.09,13.09,0,0,1,1092.93,763Zm-7.89,5.82a5.3,5.3,0,0,0,1.81-1.62,5.77,5.77,0,0,0,.9-2.1,9.7,9.7,0,0,0,0-4.2,5.77,5.77,0,0,0-.9-2.1,5.3,5.3,0,0,0-1.81-1.62,5.88,5.88,0,0,0-3-.66H1061a5.83,5.83,0,0,0-3,.66,5.41,5.41,0,0,0-1.79,1.62,5.58,5.58,0,0,0-.89,2.1,9.31,9.31,0,0,0,0,4.2,5.58,5.58,0,0,0,.89,2.1,5.41,5.41,0,0,0,1.79,1.62,5.83,5.83,0,0,0,3,.66h21.13A5.88,5.88,0,0,0,1085,768.77Zm-1.74-7.63a2.58,2.58,0,0,1,0,3.62,2.42,2.42,0,0,1-1.78.74h-20a2.43,2.43,0,0,1-1.79-.74,2.58,2.58,0,0,1,0-3.62,2.43,2.43,0,0,1,1.79-.74h20A2.42,2.42,0,0,1,1083.3,761.14Z"/><path class="cls-2" d="M1105.12,758.49a1.93,1.93,0,0,0-.6-1.41,1.89,1.89,0,0,0-1.39-.61h-2.42a2.42,2.42,0,0,1-1.79-.75,2.45,2.45,0,0,1-.74-1.8,2.49,2.49,0,0,1,.74-1.81,2.41,2.41,0,0,1,1.79-.74h2.36a6.91,6.91,0,0,1,2.76.55,7.19,7.19,0,0,1,2.26,1.52,6.84,6.84,0,0,1,1.53,2.26,7,7,0,0,1,.55,2.79V772a2.48,2.48,0,0,1-.73,1.81,2.53,2.53,0,0,1-3.58,0,2.49,2.49,0,0,1-.74-1.81Z"/></svg>
