<svg id="Layer_1" data-name="Layer 1" xmlns="http://www.w3.org/2000/svg" viewBox="0 0 1920 1080"><defs><style>.cls-1{fill:#eeff05;stroke:#000;stroke-miterlimit:10;}.cls-2{fill:#fff;}.cls-3{fill:#4c4c4c;}</style></defs><title>settings_knap</title><polygon class="cls-1" points="982.62 640.58 940.92 619.2 899.18 640.5 907.19 595.3 873.47 563.25 920.12 556.7 941.02 515.58 961.84 556.74 1008.47 563.37 974.69 595.36 982.62 640.58"/><path class="cls-2" d="M938.13,600.51a13.46,13.46,0,0,1-4.69-2L931.08,597l-1.48-2.36a12.08,12.08,0,0,1-1.67-4.23l-.52-2.72.7-2.68a12.38,12.38,0,0,1,1.76-3.82l1.64-2.4,2.57-1.5a13.55,13.55,0,0,1,3.87-1.51l3-.66,3,.66a13.32,13.32,0,0,1,3.87,1.51l2.57,1.5L952,581.2a12.43,12.43,0,0,1,1.75,3.81l.7,2.67-.51,2.73a12.1,12.1,0,0,1-1.68,4.23L950.82,597l-2.35,1.56a13.51,13.51,0,0,1-4.7,2l-2.82.58Z"/><path class="cls-3" d="M941,583.31l1.27.28a5.34,5.34,0,0,1,1.57.61l1,.59.64.92a4.48,4.48,0,0,1,.61,1.34l.25.92-.18.95a4.28,4.28,0,0,1-.59,1.46l-.56.89-.92.62a5.3,5.3,0,0,1-1.9.78l-1.2.25-1.19-.25a5.3,5.3,0,0,1-1.9-.78l-.93-.62-.56-.89a4.25,4.25,0,0,1-.58-1.46l-.18-.95.24-.92a4.13,4.13,0,0,1,.62-1.33l.63-.93,1-.59a5.57,5.57,0,0,1,1.57-.61l1.27-.28M944.22,561h-6.54L936.23,568a21.55,21.55,0,0,0-6.18,2.41l-6-3.86-4.63,4.5,3.85,5.66a20.07,20.07,0,0,0-2.89,6.3l-6.6,1.31v6.37l6.29,1.25a20.31,20.31,0,0,0,2.76,7l-3.41,5,4.63,4.5,5-3.19a21.43,21.43,0,0,0,7.49,3.11l1.17,5.58h6.54l1.17-5.58a21.43,21.43,0,0,0,7.49-3.11l5,3.19,4.63-4.5-3.41-5a20.13,20.13,0,0,0,2.77-7l6.29-1.25v-6.37l-6.6-1.31a20.3,20.3,0,0,0-2.89-6.3l3.84-5.66-4.63-4.5-6,3.86a21.38,21.38,0,0,0-6.17-2.41L944.22,561Z"/></svg>
