<svg id="Layer_1" data-name="Layer 1" xmlns="http://www.w3.org/2000/svg" xmlns:xlink="http://www.w3.org/1999/xlink" viewBox="0 0 1920 1080"><defs><style>.cls-1,.cls-4{fill:none;}.cls-2{fill:#2fa01c;}.cls-3{fill:#606060;}.cls-4{stroke:#606060;stroke-width:10px;}.cls-4,.cls-6{stroke-miterlimit:10;}.cls-5{clip-path:url(#clip-path);}.cls-6{fill:#ff6046;stroke:#000;}</style><clipPath id="clip-path"><rect class="cls-1" x="661.11" y="-1100" width="610" height="1080"/></clipPath></defs><title>sound_icon</title><rect class="cls-2" x="808" y="443" width="265" height="195" rx="12"/><path class="cls-3" d="M931.33,600a2.88,2.88,0,0,0,4.2-2.71l-2.25-56.47L931,484.34a2.86,2.86,0,0,0-4.4-2.35L879.87,512.2l-1.47.95a2.86,2.86,0,0,1-4.4-2.47v-3.19a2.89,2.89,0,0,0-2.87-2.92H825.87a2.89,2.89,0,0,0-2.87,2.92v66.64a2.89,2.89,0,0,0,2.87,2.92h45.26a2.89,2.89,0,0,0,2.87-2.92h0a2.87,2.87,0,0,1,4.2-2.6l4.11,2.21Z"/><path class="cls-4" d="M946.5,504.64c13,0,23.5,16.19,23.5,36.17S959.48,577,946.5,577"/><path class="cls-4" d="M968.5,489.25c18.5,0,33.5,23.08,33.5,51.56s-15,51.56-33.5,51.56"/><path class="cls-4" d="M1002,479c24.85,0,45,27.66,45,61.77s-20.15,61.77-45,61.77"/><g class="cls-5"><ellipse class="cls-6" cx="699.23" cy="-123.78" rx="238.07" ry="237.09"/></g></svg>
