<svg id="Layer_1" data-name="Layer 1" xmlns="http://www.w3.org/2000/svg" viewBox="0 0 1920 1080"><defs><style>.cls-1{fill:#2fa01c;}.cls-2{fill:#fff;}</style></defs><title>time_lives_score</title><rect class="cls-1" x="509.8" y="181.08" width="900" height="140" rx="12"/><path class="cls-2" d="M570.82,194.09a2.55,2.55,0,0,1,1.84,4.28,2.59,2.59,0,0,1-1.63.82H560.46a5.39,5.39,0,0,0-2.6.77,5.18,5.18,0,0,0-1.61,1.62,6.31,6.31,0,0,0-.79,2.08,10.91,10.91,0,0,0-.21,2v9a2.48,2.48,0,0,1-.73,1.81,2.53,2.53,0,0,1-3.58,0,2.48,2.48,0,0,1-.73-1.81v-9a13.67,13.67,0,0,1,.42-3.32,12.72,12.72,0,0,1,1.26-3.16H534.64a2.42,2.42,0,0,1-1.78-.74,2.58,2.58,0,0,1,0-3.62,2.42,2.42,0,0,1,1.78-.74Z"/><path class="cls-2" d="M582.91,216.52a2.53,2.53,0,0,1-4.31-1.81V196.64a2.45,2.45,0,0,1,.74-1.81,2.52,2.52,0,0,1,3.57,0,2.49,2.49,0,0,1,.74,1.81v18.07A2.49,2.49,0,0,1,582.91,216.52Z"/><path class="cls-2" d="M633.28,214.71a2.51,2.51,0,0,1-2.52,2.55,2.45,2.45,0,0,1-1.79-.74,2.49,2.49,0,0,1-.74-1.81V203.12c0-1.45-.08-2.17-.26-2.17s-.63.47-1.47,1.43l-11.57,13.29a4.23,4.23,0,0,1-1.68,1.19,5.72,5.72,0,0,1-2.16.4,5.63,5.63,0,0,1-2.15-.4,4.23,4.23,0,0,1-1.68-1.19l-11.57-13.29c-.81-1-1.3-1.43-1.48-1.43s-.26.72-.26,2.17v11.59a2.51,2.51,0,0,1-2.52,2.55,2.45,2.45,0,0,1-1.79-.74,2.49,2.49,0,0,1-.74-1.81V199.19a5.56,5.56,0,0,1,1.21-3.61,4.39,4.39,0,0,1,5.58-.85,9.53,9.53,0,0,1,1.84,1.54l12.09,13.92a5.65,5.65,0,0,0,.66.56,1.36,1.36,0,0,0,.81.29,1.39,1.39,0,0,0,.82-.29,5.65,5.65,0,0,0,.66-.56l12-13.92h0a5.57,5.57,0,0,1,1.79-1.6,4.77,4.77,0,0,1,2.31-.58,4,4,0,0,1,3.31,1.49,5.51,5.51,0,0,1,1.21,3.61Z"/><path class="cls-2" d="M638.54,196.64a2.49,2.49,0,0,1,.74-1.81,2.42,2.42,0,0,1,1.78-.74h37.28a2.45,2.45,0,0,1,1.79.74,2.58,2.58,0,0,1,0,3.62,2.45,2.45,0,0,1-1.79.74H641.06a2.42,2.42,0,0,1-1.78-.74A2.49,2.49,0,0,1,638.54,196.64ZM645,217.26a5.69,5.69,0,0,1-2.32-.51,6.5,6.5,0,0,1-2-1.4,7.34,7.34,0,0,1-1.47-2.18,6.81,6.81,0,0,1-.58-2.87v-4.79a2,2,0,0,1,.82-1.91,5.18,5.18,0,0,1,2.55-.48h35.28a2.39,2.39,0,0,1,1.78.75,2.57,2.57,0,0,1,0,3.61,2.39,2.39,0,0,1-1.78.75h-33.6v2.6a1.22,1.22,0,0,0,.45.93,1.67,1.67,0,0,0,1.18.4h33.12a2.45,2.45,0,0,1,1.79.74,2.58,2.58,0,0,1,0,3.62,2.45,2.45,0,0,1-1.79.74Z"/><path class="cls-2" d="M686.13,199.83a3.21,3.21,0,0,1,.94-2.34,3.27,3.27,0,0,1,4.63,0,3.38,3.38,0,0,1,0,4.68,3.3,3.3,0,0,1-4.63,0A3.21,3.21,0,0,1,686.13,199.83Zm0,14.88a3.21,3.21,0,0,1,.94-2.34,3.27,3.27,0,0,1,4.63,0,3.38,3.38,0,0,1,0,4.68,3.3,3.3,0,0,1-4.63,0A3.21,3.21,0,0,1,686.13,214.71Z"/><path class="cls-2" d="M574.92,269.44a13.17,13.17,0,0,1-.66,4.07,12.64,12.64,0,0,1-1.92,3.72,10.5,10.5,0,0,1-3.05,2.74,7.84,7.84,0,0,1-4,1.06h-24a7.1,7.1,0,0,1-3.84-1.06,10.11,10.11,0,0,1-2.87-2.74,13.3,13.3,0,0,1-1.81-3.75,13.85,13.85,0,0,1-.63-4,13.16,13.16,0,0,1,.66-4.06,12.06,12.06,0,0,1,1.92-3.72,10.46,10.46,0,0,1,3-2.74,7.8,7.8,0,0,1,4-1.06h24a7.66,7.66,0,0,1,3.84,1.19,10.5,10.5,0,0,1,2.86,2.74,12.72,12.72,0,0,1,1.82,3.67A13.32,13.32,0,0,1,574.92,269.44ZM567,275.26a5.43,5.43,0,0,0,1.82-1.62,5.85,5.85,0,0,0,.89-2.1,10.25,10.25,0,0,0,.24-2.1,10.4,10.4,0,0,0-.24-2.1,5.8,5.8,0,0,0-.89-2.09,5.43,5.43,0,0,0-1.82-1.62,5.76,5.76,0,0,0-2.94-.67H543a5.73,5.73,0,0,0-3,.67,5.41,5.41,0,0,0-1.79,1.62,5.63,5.63,0,0,0-.89,2.09,10.4,10.4,0,0,0-.24,2.1,10.25,10.25,0,0,0,.24,2.1,5.68,5.68,0,0,0,.89,2.1,5.41,5.41,0,0,0,1.79,1.62,5.73,5.73,0,0,0,3,.67h21.14A5.76,5.76,0,0,0,567,275.26Zm-1.73-7.62a2.6,2.6,0,0,1,0,3.61,2.42,2.42,0,0,1-1.79.75h-20a2.42,2.42,0,0,1-1.79-.75,2.57,2.57,0,0,1,0-3.61,2.42,2.42,0,0,1,1.79-.75h20A2.42,2.42,0,0,1,565.3,267.64Z"/><path class="cls-2" d="M620.56,276.67a2.61,2.61,0,0,1,0,3.62,2.45,2.45,0,0,1-1.79.74H582.7a2.45,2.45,0,0,1-1.79-.74,2.48,2.48,0,0,1-.73-1.81v-5.1a6.73,6.73,0,0,1,.47-2.53,6,6,0,0,1,1.34-2.07,6.62,6.62,0,0,1,2-1.38,6,6,0,0,1,2.5-.51h27.92a2,2,0,0,0,1.39-.56,1.83,1.83,0,0,0,.6-1.4,1.9,1.9,0,0,0-.6-1.39,2,2,0,0,0-1.39-.58H582.7a2.45,2.45,0,0,1-1.79-.74,2.61,2.61,0,0,1,0-3.62,2.45,2.45,0,0,1,1.79-.74h31.5a6.74,6.74,0,0,1,2.76.56,7.4,7.4,0,0,1,2.26,1.51,7,7,0,0,1,1.52,2.23,7.23,7.23,0,0,1,0,5.53,7,7,0,0,1-1.52,2.23,7.61,7.61,0,0,1-2.26,1.52,6.91,6.91,0,0,1-2.76.56H586.8a1.94,1.94,0,0,0-1.16.63,2,2,0,0,0-.47,1.33v2h33.6A2.45,2.45,0,0,1,620.56,276.67Z"/><path class="cls-2" d="M626.55,263.6a3.21,3.21,0,0,1,1-2.34,3.12,3.12,0,0,1,2.31-1,3.16,3.16,0,0,1,2.32,1,3.29,3.29,0,0,1-2.32,5.63,3.15,3.15,0,0,1-2.31-.95A3.21,3.21,0,0,1,626.55,263.6Zm0,14.88a3.21,3.21,0,0,1,1-2.34,3.12,3.12,0,0,1,2.31-1,3.16,3.16,0,0,1,2.32,1,3.29,3.29,0,0,1-2.32,5.63,3.15,3.15,0,0,1-2.31-.95A3.21,3.21,0,0,1,626.55,278.48Z"/><path class="cls-2" d="M681.13,269.44a13.17,13.17,0,0,1-.66,4.07,12.64,12.64,0,0,1-1.92,3.72,10.37,10.37,0,0,1-3,2.74,7.83,7.83,0,0,1-4,1.06h-24a7.1,7.1,0,0,1-3.84-1.06,9.94,9.94,0,0,1-2.86-2.74,13.06,13.06,0,0,1-1.82-3.75,13.85,13.85,0,0,1-.63-4,13.16,13.16,0,0,1,.66-4.06,12.06,12.06,0,0,1,1.92-3.72,10.37,10.37,0,0,1,3.05-2.74,7.74,7.74,0,0,1,4-1.06h24a7.66,7.66,0,0,1,3.84,1.19,10.68,10.68,0,0,1,2.87,2.74,13,13,0,0,1,1.81,3.67A13.32,13.32,0,0,1,681.13,269.44Zm-7.89,5.82a5.43,5.43,0,0,0,1.82-1.62,5.68,5.68,0,0,0,.89-2.1,10.25,10.25,0,0,0,.24-2.1,10.4,10.4,0,0,0-.24-2.1,5.63,5.63,0,0,0-.89-2.09,5.43,5.43,0,0,0-1.82-1.62,5.76,5.76,0,0,0-2.94-.67H649.16a5.73,5.73,0,0,0-3,.67,5.51,5.51,0,0,0-1.79,1.62,5.63,5.63,0,0,0-.89,2.09,10.4,10.4,0,0,0-.24,2.1,10.25,10.25,0,0,0,.24,2.1,5.68,5.68,0,0,0,.89,2.1,5.51,5.51,0,0,0,1.79,1.62,5.73,5.73,0,0,0,3,.67H670.3A5.76,5.76,0,0,0,673.24,275.26Zm-1.73-7.62a2.6,2.6,0,0,1,0,3.61,2.42,2.42,0,0,1-1.79.75h-20a2.42,2.42,0,0,1-1.79-.75,2.6,2.6,0,0,1,0-3.61,2.42,2.42,0,0,1,1.79-.75h20A2.42,2.42,0,0,1,671.51,267.64Z"/><path class="cls-2" d="M729.19,269.44a13.17,13.17,0,0,1-.66,4.07,12.64,12.64,0,0,1-1.92,3.72,10.5,10.5,0,0,1-3.05,2.74,7.84,7.84,0,0,1-4,1.06h-24A7.1,7.1,0,0,1,691.7,280a10.11,10.11,0,0,1-2.87-2.74,13,13,0,0,1-1.81-3.75,13.85,13.85,0,0,1-.63-4,13.45,13.45,0,0,1,.65-4.06,12.51,12.51,0,0,1,1.92-3.72,10.5,10.5,0,0,1,3-2.74,7.77,7.77,0,0,1,4-1.06h24a7.69,7.69,0,0,1,3.84,1.19,10.65,10.65,0,0,1,2.86,2.74,12.72,12.72,0,0,1,1.82,3.67A13.32,13.32,0,0,1,729.19,269.44Zm-7.89,5.82a5.43,5.43,0,0,0,1.82-1.62,5.85,5.85,0,0,0,.89-2.1,10.25,10.25,0,0,0,.24-2.1,10.4,10.4,0,0,0-.24-2.1,5.8,5.8,0,0,0-.89-2.09,5.43,5.43,0,0,0-1.82-1.62,5.76,5.76,0,0,0-2.94-.67H697.22a5.73,5.73,0,0,0-3,.67,5.41,5.41,0,0,0-1.79,1.62,5.47,5.47,0,0,0-.89,2.09,10.4,10.4,0,0,0-.24,2.1,10.25,10.25,0,0,0,.24,2.1,5.52,5.52,0,0,0,.89,2.1,5.41,5.41,0,0,0,1.79,1.62,5.73,5.73,0,0,0,3,.67h21.14A5.76,5.76,0,0,0,721.3,275.26Zm-1.73-7.62a2.6,2.6,0,0,1,0,3.61,2.43,2.43,0,0,1-1.79.75h-20a2.42,2.42,0,0,1-1.79-.75,2.57,2.57,0,0,1,0-3.61,2.42,2.42,0,0,1,1.79-.75h20A2.43,2.43,0,0,1,719.57,267.64Z"/><path class="cls-2" d="M846.54,220.13a7.19,7.19,0,0,1-3.84-3.75,6.54,6.54,0,0,1-.58-2.76V200.07a2.49,2.49,0,0,1,.74-1.81,2.42,2.42,0,0,1,1.78-.74,2.56,2.56,0,0,1,2.53,2.55v13.55a1.86,1.86,0,0,0,.6,1.38,2,2,0,0,0,1.4.59h31.54a2.45,2.45,0,0,1,1.79.74,2.58,2.58,0,0,1,0,3.62,2.45,2.45,0,0,1-1.79.74H849.32A7,7,0,0,1,846.54,220.13Z"/><path class="cls-2" d="M892.81,220a2.53,2.53,0,0,1-3.58,0,2.48,2.48,0,0,1-.73-1.81V200.07a2.48,2.48,0,0,1,.73-1.81,2.53,2.53,0,0,1,3.58,0,2.48,2.48,0,0,1,.73,1.81v18.07A2.48,2.48,0,0,1,892.81,220Z"/><path class="cls-2" d="M932,198.48a2.48,2.48,0,0,1,3.73-.22,2.49,2.49,0,0,1,.74,1.81,2.22,2.22,0,0,1-.53,1.54l0,0L923.15,219a7.42,7.42,0,0,1-2.4,2,6.44,6.44,0,0,1-3.12.77,6.62,6.62,0,0,1-3-.69,6.78,6.78,0,0,1-2.34-1.91l-12.77-17.27a3.78,3.78,0,0,1-.53-.83,2.3,2.3,0,0,1-.21-1,2.49,2.49,0,0,1,.74-1.81,2.42,2.42,0,0,1,1.78-.74,2.34,2.34,0,0,1,2,1l12.25,16.53c.25.28.56.59.92.93a1.72,1.72,0,0,0,1.14.5,1.67,1.67,0,0,0,1.12-.5,7.08,7.08,0,0,0,.87-.93Z"/><path class="cls-2" d="M941.71,200.07a2.48,2.48,0,0,1,.73-1.81,2.45,2.45,0,0,1,1.79-.74h37.28a2.45,2.45,0,0,1,1.79.74,2.61,2.61,0,0,1,0,3.62,2.45,2.45,0,0,1-1.79.74H944.23a2.45,2.45,0,0,1-1.79-.74A2.48,2.48,0,0,1,941.71,200.07Zm6.41,20.62a5.68,5.68,0,0,1-2.31-.51,6.39,6.39,0,0,1-2-1.4,7.34,7.34,0,0,1-1.47-2.18,6.81,6.81,0,0,1-.58-2.87v-4.79a2,2,0,0,1,.81-1.91,5.18,5.18,0,0,1,2.55-.48h35.28a2.42,2.42,0,0,1,1.79.75,2.57,2.57,0,0,1,0,3.61,2.42,2.42,0,0,1-1.79.75h-33.6v2.6a1.22,1.22,0,0,0,.45.93,1.69,1.69,0,0,0,1.18.4h33.13a2.45,2.45,0,0,1,1.79.74,2.61,2.61,0,0,1,0,3.62,2.45,2.45,0,0,1-1.79.74Z"/><path class="cls-2" d="M993.55,211.1a7.18,7.18,0,0,1-3.71-3.75,7.23,7.23,0,0,1,0-5.53,7.29,7.29,0,0,1,1.5-2.23,7.06,7.06,0,0,1,2.21-1.51,6.7,6.7,0,0,1,2.73-.56h31.92a2.45,2.45,0,0,1,1.79.74,2.61,2.61,0,0,1,0,3.62,2.45,2.45,0,0,1-1.79.74h-32a2,2,0,0,0-1.39.56,1.81,1.81,0,0,0-.61,1.41,1.84,1.84,0,0,0,.61,1.38,1.92,1.92,0,0,0,1.39.58h29.08a7,7,0,0,1,5,2.08,7.15,7.15,0,0,1,1.5,2.25,7.05,7.05,0,0,1,.55,2.79,6.85,6.85,0,0,1-.55,2.77,7.29,7.29,0,0,1-1.5,2.23,6.72,6.72,0,0,1-2.23,1.49,7.25,7.25,0,0,1-2.76.53H993.39a2.55,2.55,0,0,1,0-5.1h32.08a1.9,1.9,0,0,0,1.36-.56,1.79,1.79,0,0,0,.58-1.36,2,2,0,0,0-.58-1.43,1.84,1.84,0,0,0-1.36-.58H996.28A6.7,6.7,0,0,1,993.55,211.1Z"/><path class="cls-2" d="M1037.56,203.26a3.21,3.21,0,0,1,1-2.34,3.26,3.26,0,0,1,4.62,0,3.36,3.36,0,0,1,0,4.68,3.28,3.28,0,0,1-4.62,0A3.21,3.21,0,0,1,1037.56,203.26Zm0,14.88a3.21,3.21,0,0,1,1-2.34,3.26,3.26,0,0,1,4.62,0,3.36,3.36,0,0,1,0,4.68,3.28,3.28,0,0,1-4.62,0A3.21,3.21,0,0,1,1037.56,218.14Z"/><path class="cls-2" d="M848.11,272.87a2.47,2.47,0,0,1,.74-1.8,2.42,2.42,0,0,1,1.79-.75h26.13a1.86,1.86,0,0,0,1.37-.58,2,2,0,0,0,.58-1.44,1.82,1.82,0,0,0-.58-1.35,1.92,1.92,0,0,0-1.37-.56H844.64a2.42,2.42,0,0,1-1.78-.74,2.58,2.58,0,0,1,0-3.62,2.42,2.42,0,0,1,1.78-.74h31.87a7.25,7.25,0,0,1,2.76.53,6.57,6.57,0,0,1,2.23,1.49,7.29,7.29,0,0,1,1.5,2.23,6.84,6.84,0,0,1,.55,2.76,7.1,7.1,0,0,1-.44,2.5,6.75,6.75,0,0,1-1.24,2.07,7,7,0,0,1,1.68,4.57,6.85,6.85,0,0,1-.55,2.77,7.29,7.29,0,0,1-1.5,2.23,6.72,6.72,0,0,1-2.23,1.49,7.25,7.25,0,0,1-2.76.53H844.64a2.39,2.39,0,0,1-1.78-.75,2.45,2.45,0,0,1-.74-1.8,2.49,2.49,0,0,1,.74-1.81,2.42,2.42,0,0,1,1.78-.74h32.13a1.92,1.92,0,0,0,1.37-.56,1.83,1.83,0,0,0,.58-1.36,2,2,0,0,0-.58-1.43,1.87,1.87,0,0,0-1.37-.59H850.64a2.41,2.41,0,0,1-1.79-.74A2.49,2.49,0,0,1,848.11,272.87Z"/><path class="cls-2" d="M1150,212.35a7.09,7.09,0,0,1-3.71-3.75,7.2,7.2,0,0,1,0-5.52,7.17,7.17,0,0,1,1.5-2.23,7.09,7.09,0,0,1,2.21-1.52,6.7,6.7,0,0,1,2.73-.56h31.92a2.42,2.42,0,0,1,1.79.75,2.6,2.6,0,0,1,0,3.61,2.42,2.42,0,0,1-1.79.75h-32a2,2,0,0,0-1.39.55,1.81,1.81,0,0,0-.61,1.41,1.84,1.84,0,0,0,.61,1.38,1.93,1.93,0,0,0,1.39.59h29.08a6.74,6.74,0,0,1,2.76.56,6.92,6.92,0,0,1,2.23,1.51,7.2,7.2,0,0,1,1.5,2.26,7.05,7.05,0,0,1,.55,2.79,6.84,6.84,0,0,1-.55,2.76,7.17,7.17,0,0,1-1.5,2.23,6.57,6.57,0,0,1-2.23,1.49,7.07,7.07,0,0,1-2.76.53h-31.87a2.41,2.41,0,0,1-1.79-.74,2.61,2.61,0,0,1,0-3.62,2.45,2.45,0,0,1,1.79-.74H1182a1.86,1.86,0,0,0,1.36-.56,1.79,1.79,0,0,0,.58-1.35,2,2,0,0,0-.58-1.44,1.84,1.84,0,0,0-1.36-.58h-29.19A6.7,6.7,0,0,1,1150,212.35Z"/><path class="cls-2" d="M1194.05,210.36a13.22,13.22,0,0,1,.66-4.07,12.4,12.4,0,0,1,1.92-3.72,10.34,10.34,0,0,1,3-2.73,7.74,7.74,0,0,1,4-1.07h30.66a2.43,2.43,0,0,1,1.79.75,2.6,2.6,0,0,1,0,3.61,2.43,2.43,0,0,1-1.79.75h-29.55a5.83,5.83,0,0,0-3,.66,5.41,5.41,0,0,0-1.79,1.62,5.58,5.58,0,0,0-.89,2.1,9.31,9.31,0,0,0,0,4.2,5.45,5.45,0,0,0,2.68,3.72,5.83,5.83,0,0,0,3,.66h29.55a2.57,2.57,0,0,1,1.79,4.36,2.42,2.42,0,0,1-1.79.74H1203.2a7,7,0,0,1-3.84-1.06,10.11,10.11,0,0,1-2.87-2.74,13.11,13.11,0,0,1-1.81-3.74A13.85,13.85,0,0,1,1194.05,210.36Z"/><path class="cls-2" d="M1285,210.36a13.11,13.11,0,0,1-.66,4.06,12,12,0,0,1-1.92,3.72,10.37,10.37,0,0,1-3.05,2.74,7.74,7.74,0,0,1-4,1.06h-24a7.66,7.66,0,0,1-3.84-1.19,10.5,10.5,0,0,1-2.86-2.74,12.72,12.72,0,0,1-1.82-3.67,12.88,12.88,0,0,1,0-8.05,12.64,12.64,0,0,1,1.92-3.72,10.34,10.34,0,0,1,3-2.73,7.74,7.74,0,0,1,4-1.07h24a7.57,7.57,0,0,1,3.84,1.2,10.68,10.68,0,0,1,2.87,2.74,12.9,12.9,0,0,1,1.81,3.66A13.38,13.38,0,0,1,1285,210.36Zm-7.83,5.82a5.4,5.4,0,0,0,2.7-3.72,9.31,9.31,0,0,0,0-4.2,5.58,5.58,0,0,0-.89-2.1,5.39,5.39,0,0,0-1.81-1.62,5.94,5.94,0,0,0-3-.66h-21.24a5.83,5.83,0,0,0-3,.66,5.41,5.41,0,0,0-1.79,1.62,5.75,5.75,0,0,0-.89,2.1,9.31,9.31,0,0,0,0,4.2,5.75,5.75,0,0,0,.89,2.1,5.64,5.64,0,0,0,1.79,1.62,5.83,5.83,0,0,0,3,.66h21.24A5.94,5.94,0,0,0,1277.13,216.18Z"/><path class="cls-2" d="M1326.92,214.85c1,.69,2,1.44,3,2.26a5.16,5.16,0,0,1,1,1,2.11,2.11,0,0,1,.42,1.3,2.49,2.49,0,0,1-.74,1.81,2.41,2.41,0,0,1-1.79.74,2.78,2.78,0,0,1-1.79-.74c-1.43-1.06-2.91-2.09-4.41-3.08a40.37,40.37,0,0,0-4.71-2.66,28.51,28.51,0,0,0-5.07-1.86,21.52,21.52,0,0,0-5.47-.69H1296.9a1.85,1.85,0,0,0-1.16.64,1.88,1.88,0,0,0-.47,1.33v4.51a2.58,2.58,0,0,1-2.53,2.55,2.41,2.41,0,0,1-1.79-.74,2.48,2.48,0,0,1-.73-1.81v-5.1a6.33,6.33,0,0,1,.5-2.52,6.7,6.7,0,0,1,1.34-2.08,6.17,6.17,0,0,1,4.52-1.88h27.87a2,2,0,0,0,1.39-.56,1.85,1.85,0,0,0,.61-1.41,1.88,1.88,0,0,0-.61-1.38,1.94,1.94,0,0,0-1.39-.58h-31.71a2.42,2.42,0,0,1-1.79-.75,2.6,2.6,0,0,1,0-3.61,2.42,2.42,0,0,1,1.79-.75h31.5a6.91,6.91,0,0,1,2.76.56,7.31,7.31,0,0,1,2.26,1.52,6.75,6.75,0,0,1,1.52,2.23,7,7,0,0,1-1.52,7.76,7.46,7.46,0,0,1-2.26,1.51,6.91,6.91,0,0,1-2.76.56H1324C1325,213.51,1325.94,214.16,1326.92,214.85Z"/><path class="cls-2" d="M1336.59,201.32a2.47,2.47,0,0,1,.74-1.8,2.42,2.42,0,0,1,1.79-.75h37.28a2.39,2.39,0,0,1,1.78.75,2.57,2.57,0,0,1,0,3.61,2.39,2.39,0,0,1-1.78.75h-37.28a2.42,2.42,0,0,1-1.79-.75A2.49,2.49,0,0,1,1336.59,201.32Zm6.42,20.62a5.71,5.71,0,0,1-2.32-.5,6.7,6.7,0,0,1-2-1.41,7.59,7.59,0,0,1-1.47-2.18,7,7,0,0,1-.58-2.87V210.2a2,2,0,0,1,.82-1.91,5.18,5.18,0,0,1,2.55-.48h35.28a2.45,2.45,0,0,1,1.79.74,2.61,2.61,0,0,1,0,3.62,2.45,2.45,0,0,1-1.79.74h-33.6v2.6a1.19,1.19,0,0,0,.45.93,1.67,1.67,0,0,0,1.18.4h33.13a2.42,2.42,0,0,1,1.78.74,2.58,2.58,0,0,1,0,3.62,2.39,2.39,0,0,1-1.78.74Z"/><path class="cls-2" d="M1384.18,204.51a3.27,3.27,0,0,1,5.57-2.34,3.36,3.36,0,0,1,0,4.68,3.26,3.26,0,0,1-4.62,0A3.18,3.18,0,0,1,1384.18,204.51Zm0,14.88a3.27,3.27,0,0,1,5.57-2.34,3.36,3.36,0,0,1,0,4.68,3.26,3.26,0,0,1-4.62,0A3.18,3.18,0,0,1,1384.18,219.39Z"/><path class="cls-2" d="M1188.58,274.13a13.16,13.16,0,0,1-.66,4.06,12,12,0,0,1-1.92,3.72,10.46,10.46,0,0,1-3,2.74,7.8,7.8,0,0,1-4,1.06h-24a7,7,0,0,1-3.84-1.06,9.94,9.94,0,0,1-2.86-2.74,12.87,12.87,0,0,1-1.82-3.74,13.85,13.85,0,0,1-.63-4,13.22,13.22,0,0,1,.66-4.07,12.64,12.64,0,0,1,1.92-3.72,10.34,10.34,0,0,1,3.05-2.73,7.75,7.75,0,0,1,4-1.07h24a7.57,7.57,0,0,1,3.84,1.2,10.53,10.53,0,0,1,2.87,2.74,12.9,12.9,0,0,1,1.81,3.66A13.38,13.38,0,0,1,1188.58,274.13Zm-7.89,5.82a5.65,5.65,0,0,0,1.82-1.62,5.75,5.75,0,0,0,.89-2.1,9.31,9.31,0,0,0,0-4.2,5.75,5.75,0,0,0-.89-2.1,5.43,5.43,0,0,0-1.82-1.62,5.87,5.87,0,0,0-2.94-.67h-21.14a5.83,5.83,0,0,0-3,.67,5.51,5.51,0,0,0-1.79,1.62,5.93,5.93,0,0,0-.89,2.1,9.31,9.31,0,0,0,0,4.2,5.93,5.93,0,0,0,.89,2.1,5.75,5.75,0,0,0,1.79,1.62,5.83,5.83,0,0,0,3,.66h21.14A5.87,5.87,0,0,0,1180.69,280Zm-1.73-7.63a2.49,2.49,0,0,1,.74,1.81,2.45,2.45,0,0,1-.74,1.8,2.42,2.42,0,0,1-1.79.75h-20a2.42,2.42,0,0,1-1.79-.75,2.44,2.44,0,0,1-.73-1.8,2.48,2.48,0,0,1,.73-1.81,2.45,2.45,0,0,1,1.79-.74h20A2.45,2.45,0,0,1,1179,272.32Z"/><path class="cls-2" d="M1236.64,274.13a13.16,13.16,0,0,1-.66,4.06,12.39,12.39,0,0,1-1.92,3.72,10.5,10.5,0,0,1-3,2.74,7.75,7.75,0,0,1-4,1.06h-24a7,7,0,0,1-3.84-1.06,10.11,10.11,0,0,1-2.87-2.74,12.85,12.85,0,0,1-1.81-3.74,13.85,13.85,0,0,1-.63-4,13.22,13.22,0,0,1,.66-4.07,12.18,12.18,0,0,1,1.92-3.72,10.43,10.43,0,0,1,3-2.73,7.81,7.81,0,0,1,4-1.07h24a7.57,7.57,0,0,1,3.84,1.2,10.36,10.36,0,0,1,2.86,2.74,12.66,12.66,0,0,1,1.82,3.66A13.38,13.38,0,0,1,1236.64,274.13Zm-7.89,5.82a5.65,5.65,0,0,0,1.82-1.62,5.93,5.93,0,0,0,.89-2.1,9.31,9.31,0,0,0,0-4.2,5.93,5.93,0,0,0-.89-2.1,5.43,5.43,0,0,0-1.82-1.62,5.87,5.87,0,0,0-2.94-.67h-21.14a5.83,5.83,0,0,0-3,.67,5.51,5.51,0,0,0-1.79,1.62,5.75,5.75,0,0,0-.89,2.1,9.31,9.31,0,0,0,0,4.2,5.45,5.45,0,0,0,2.68,3.72,5.83,5.83,0,0,0,3,.66h21.14A5.87,5.87,0,0,0,1228.75,280Zm-1.73-7.63a2.48,2.48,0,0,1,.73,1.81,2.44,2.44,0,0,1-.73,1.8,2.42,2.42,0,0,1-1.79.75h-20a2.42,2.42,0,0,1-1.79-.75,2.45,2.45,0,0,1-.74-1.8,2.49,2.49,0,0,1,.74-1.81,2.45,2.45,0,0,1,1.79-.74h20A2.45,2.45,0,0,1,1227,272.32Z"/><path class="cls-2" d="M1248.84,269.66a1.93,1.93,0,0,0-.61-1.4,1.9,1.9,0,0,0-1.39-.62h-2.42a2.41,2.41,0,0,1-1.79-.74,2.6,2.6,0,0,1,0-3.61,2.42,2.42,0,0,1,1.79-.75h2.37a6.91,6.91,0,0,1,2.76.56,7.31,7.31,0,0,1,2.26,1.52,6.88,6.88,0,0,1,1.52,2.25,7.05,7.05,0,0,1,.55,2.79v13.5a2.48,2.48,0,0,1-.73,1.81,2.53,2.53,0,0,1-3.58,0,2.48,2.48,0,0,1-.73-1.81Z"/></svg>
