<svg id="Layer_1" data-name="Layer 1" xmlns="http://www.w3.org/2000/svg" viewBox="0 0 1920 1080"><defs><style>.cls-1{fill:#2fa01c;}.cls-2{fill:#fff;}</style></defs><title>time</title><rect class="cls-1" x="840" y="522" width="245" height="140" rx="12"/><path class="cls-2" d="M901,535a2.39,2.39,0,0,1,1.78.75,2.55,2.55,0,0,1,.06,3.53,2.59,2.59,0,0,1-1.63.82H890.66a5.5,5.5,0,0,0-2.6.77,5.1,5.1,0,0,0-1.61,1.63,6.18,6.18,0,0,0-.79,2.07,10.92,10.92,0,0,0-.21,2v9a2.48,2.48,0,0,1-.73,1.81,2.53,2.53,0,0,1-3.58,0,2.48,2.48,0,0,1-.73-1.81v-9a13.08,13.08,0,0,1,.42-3.32,12.79,12.79,0,0,1,1.26-3.17H864.84a2.41,2.41,0,0,1-1.79-.74,2.48,2.48,0,0,1-.73-1.81,2.44,2.44,0,0,1,.73-1.8,2.42,2.42,0,0,1,1.79-.75Z"/><path class="cls-2" d="M913.11,557.44a2.53,2.53,0,0,1-3.58,0,2.48,2.48,0,0,1-.73-1.81V537.56a2.44,2.44,0,0,1,.73-1.8,2.51,2.51,0,0,1,3.58,0,2.45,2.45,0,0,1,.74,1.8v18.07A2.49,2.49,0,0,1,913.11,557.44Z"/><path class="cls-2" d="M963.48,555.63a2.51,2.51,0,0,1-2.52,2.55,2.45,2.45,0,0,1-1.79-.74,2.49,2.49,0,0,1-.74-1.81V544.05c0-1.46-.08-2.18-.26-2.18s-.63.48-1.47,1.43l-11.57,13.29a4.27,4.27,0,0,1-1.68,1.19,5.72,5.72,0,0,1-2.16.4,5.63,5.63,0,0,1-2.15-.4,4.23,4.23,0,0,1-1.69-1.19L925.89,543.3c-.81-.95-1.3-1.43-1.48-1.43s-.26.72-.26,2.18v11.58a2.51,2.51,0,0,1-2.52,2.55,2.45,2.45,0,0,1-1.79-.74,2.49,2.49,0,0,1-.74-1.81V540.11a5.58,5.58,0,0,1,1.21-3.61,4.05,4.05,0,0,1,3.32-1.49,4.17,4.17,0,0,1,2.26.64,9.53,9.53,0,0,1,1.84,1.54l12.09,13.92a4.92,4.92,0,0,0,.66.56,1.3,1.3,0,0,0,.81.29,1.35,1.35,0,0,0,.82-.29,4.78,4.78,0,0,0,.65-.56l12-13.92h.05a5.44,5.44,0,0,1,1.79-1.59A4.67,4.67,0,0,1,959,535a4,4,0,0,1,3.31,1.49,5.53,5.53,0,0,1,1.21,3.61Z"/><path class="cls-2" d="M968.74,537.56a2.44,2.44,0,0,1,.73-1.8,2.42,2.42,0,0,1,1.79-.75h37.28a2.42,2.42,0,0,1,1.79.75,2.45,2.45,0,0,1,.74,1.8,2.49,2.49,0,0,1-.74,1.81,2.41,2.41,0,0,1-1.79.74H971.26a2.41,2.41,0,0,1-1.79-.74A2.48,2.48,0,0,1,968.74,537.56Zm6.41,20.62a5.83,5.83,0,0,1-2.31-.5,6.58,6.58,0,0,1-2.05-1.41,7.21,7.21,0,0,1-1.47-2.18,6.81,6.81,0,0,1-.58-2.87v-4.78a2,2,0,0,1,.81-1.92,5.37,5.37,0,0,1,2.55-.47h35.28a2.39,2.39,0,0,1,1.79.74,2.49,2.49,0,0,1,.74,1.81,2.45,2.45,0,0,1-.74,1.8,2.4,2.4,0,0,1-1.79.75H973.79v2.6a1.18,1.18,0,0,0,.44.93,1.7,1.7,0,0,0,1.19.4h33.12a2.45,2.45,0,0,1,1.79.74,2.58,2.58,0,0,1,0,3.62,2.45,2.45,0,0,1-1.79.74Z"/><path class="cls-2" d="M1016.32,540.75a3.21,3.21,0,0,1,.95-2.34,3.3,3.3,0,0,1,4.63,0,3.38,3.38,0,0,1,0,4.68,3.27,3.27,0,0,1-4.63,0A3.21,3.21,0,0,1,1016.32,540.75Zm0,14.88a3.21,3.21,0,0,1,.95-2.34,3.3,3.3,0,0,1,4.63,0,3.38,3.38,0,0,1,0,4.68,3.27,3.27,0,0,1-4.63,0A3.21,3.21,0,0,1,1016.32,555.63Z"/><path class="cls-2" d="M905.12,610.37a13.16,13.16,0,0,1-.66,4.06,12.39,12.39,0,0,1-1.92,3.72,10.5,10.5,0,0,1-3,2.74,7.75,7.75,0,0,1-4,1.06h-24a7,7,0,0,1-3.84-1.06,10.11,10.11,0,0,1-2.87-2.74A12.79,12.79,0,0,1,863,614.4a13.79,13.79,0,0,1-.63-4,13.51,13.51,0,0,1,.65-4.07,12.64,12.64,0,0,1,1.92-3.72,10.78,10.78,0,0,1,3.05-2.74,7.87,7.87,0,0,1,4-1.06h24a7.57,7.57,0,0,1,3.84,1.2,10.61,10.61,0,0,1,2.86,2.73,12.72,12.72,0,0,1,1.82,3.67A13.38,13.38,0,0,1,905.12,610.37Zm-7.89,5.82a5.43,5.43,0,0,0,1.81-1.63,5.65,5.65,0,0,0,.9-2.09,10.4,10.4,0,0,0,.24-2.1,10.25,10.25,0,0,0-.24-2.1,5.77,5.77,0,0,0-.9-2.1,5.3,5.3,0,0,0-1.81-1.62,5.76,5.76,0,0,0-2.94-.67H873.15a5.73,5.73,0,0,0-3,.67,5.41,5.41,0,0,0-1.79,1.62,5.58,5.58,0,0,0-.89,2.1,10.25,10.25,0,0,0-.24,2.1,10.4,10.4,0,0,0,.24,2.1,5.47,5.47,0,0,0,.89,2.09,5.55,5.55,0,0,0,1.79,1.63,5.83,5.83,0,0,0,3,.66h21.14A5.87,5.87,0,0,0,897.23,616.19Zm-1.73-7.63a2.48,2.48,0,0,1,.73,1.81,2.53,2.53,0,0,1-2.52,2.55h-20a2.42,2.42,0,0,1-1.79-.75,2.45,2.45,0,0,1-.74-1.8,2.49,2.49,0,0,1,.74-1.81,2.41,2.41,0,0,1,1.79-.74h20A2.42,2.42,0,0,1,895.5,608.56Z"/><path class="cls-2" d="M950.76,617.59a2.61,2.61,0,0,1,0,3.62A2.45,2.45,0,0,1,949,622H912.9a2.45,2.45,0,0,1-1.79-.74,2.48,2.48,0,0,1-.73-1.81v-5.1a6.73,6.73,0,0,1,.47-2.53,6.11,6.11,0,0,1,1.34-2.07,6.62,6.62,0,0,1,2-1.38,6,6,0,0,1,2.5-.5h27.92a2,2,0,0,0,1.39-.56,1.84,1.84,0,0,0,.6-1.41,1.86,1.86,0,0,0-.6-1.38,2,2,0,0,0-1.39-.59H912.9a2.41,2.41,0,0,1-1.79-.74,2.48,2.48,0,0,1-.73-1.81,2.44,2.44,0,0,1,.73-1.8,2.42,2.42,0,0,1,1.79-.75h31.49a6.93,6.93,0,0,1,2.77.56,7.59,7.59,0,0,1,2.26,1.51,7.22,7.22,0,0,1,1.52,2.24,7.2,7.2,0,0,1,0,5.52,7.06,7.06,0,0,1-1.52,2.23,7.43,7.43,0,0,1-2.26,1.52,6.93,6.93,0,0,1-2.77.56H917a1.88,1.88,0,0,0-1.16.64,1.92,1.92,0,0,0-.47,1.32v2H949A2.45,2.45,0,0,1,950.76,617.59Z"/><path class="cls-2" d="M956.75,604.52a3.21,3.21,0,0,1,1-2.34,3.3,3.3,0,1,1,0,4.68A3.21,3.21,0,0,1,956.75,604.52Zm0,14.88a3.21,3.21,0,0,1,1-2.34,3.28,3.28,0,0,1,4.62,0,3.36,3.36,0,0,1,0,4.68,3.28,3.28,0,0,1-4.62,0A3.21,3.21,0,0,1,956.75,619.4Z"/><path class="cls-2" d="M1011.33,610.37a13.16,13.16,0,0,1-.66,4.06,12.39,12.39,0,0,1-1.92,3.72,10.5,10.5,0,0,1-3,2.74,7.75,7.75,0,0,1-4.05,1.06h-24a7,7,0,0,1-3.84-1.06,10.11,10.11,0,0,1-2.87-2.74,12.79,12.79,0,0,1-1.81-3.75,13.79,13.79,0,0,1-.63-4,13.22,13.22,0,0,1,.66-4.07,12.18,12.18,0,0,1,1.92-3.72,10.6,10.6,0,0,1,3-2.74,7.89,7.89,0,0,1,4.05-1.06h24A7.57,7.57,0,0,1,1006,600a10.61,10.61,0,0,1,2.86,2.73,12.72,12.72,0,0,1,1.82,3.67A13.38,13.38,0,0,1,1011.33,610.37Zm-7.89,5.82a5.56,5.56,0,0,0,1.82-1.63,5.8,5.8,0,0,0,.89-2.09,10.4,10.4,0,0,0,.24-2.1,10.25,10.25,0,0,0-.24-2.1,5.93,5.93,0,0,0-.89-2.1,5.43,5.43,0,0,0-1.82-1.62,5.76,5.76,0,0,0-2.94-.67H979.36a5.73,5.73,0,0,0-3,.67,5.41,5.41,0,0,0-1.79,1.62,5.75,5.75,0,0,0-.89,2.1,10.25,10.25,0,0,0-.24,2.1,10.4,10.4,0,0,0,.24,2.1,5.63,5.63,0,0,0,.89,2.09,5.55,5.55,0,0,0,1.79,1.63,5.83,5.83,0,0,0,3,.66h21.14A5.87,5.87,0,0,0,1003.44,616.19Zm-1.73-7.63a2.48,2.48,0,0,1,.73,1.81,2.53,2.53,0,0,1-2.52,2.55h-20a2.42,2.42,0,0,1-1.79-.75,2.45,2.45,0,0,1-.74-1.8,2.49,2.49,0,0,1,.74-1.81,2.41,2.41,0,0,1,1.79-.74h20A2.42,2.42,0,0,1,1001.71,608.56Z"/><path class="cls-2" d="M1059.39,610.37a13.16,13.16,0,0,1-.66,4.06,12.39,12.39,0,0,1-1.92,3.72,10.5,10.5,0,0,1-3,2.74,7.75,7.75,0,0,1-4,1.06h-24a7,7,0,0,1-3.83-1.06,10,10,0,0,1-2.87-2.74,12.79,12.79,0,0,1-1.81-3.75,13.79,13.79,0,0,1-.63-4,13.21,13.21,0,0,1,.65-4.07,12.64,12.64,0,0,1,1.92-3.72,10.64,10.64,0,0,1,3.05-2.74,7.84,7.84,0,0,1,4-1.06h24a7.63,7.63,0,0,1,3.84,1.2,10.61,10.61,0,0,1,2.86,2.73,13,13,0,0,1,1.82,3.67A13.38,13.38,0,0,1,1059.39,610.37Zm-7.89,5.82a5.43,5.43,0,0,0,1.81-1.63,5.65,5.65,0,0,0,.9-2.09,10.34,10.34,0,0,0,.23-2.1,10.19,10.19,0,0,0-.23-2.1,5.77,5.77,0,0,0-.9-2.1,5.3,5.3,0,0,0-1.81-1.62,5.78,5.78,0,0,0-3-.67h-21.13a5.73,5.73,0,0,0-3,.67,5.41,5.41,0,0,0-1.79,1.62,5.58,5.58,0,0,0-.89,2.1,10.25,10.25,0,0,0-.24,2.1,10.4,10.4,0,0,0,.24,2.1,5.47,5.47,0,0,0,.89,2.09,5.55,5.55,0,0,0,1.79,1.63,5.83,5.83,0,0,0,3,.66h21.13A5.88,5.88,0,0,0,1051.5,616.19Zm-1.74-7.63a2.49,2.49,0,0,1,.74,1.81,2.45,2.45,0,0,1-.74,1.8,2.39,2.39,0,0,1-1.78.75h-20a2.4,2.4,0,0,1-1.79-.75,2.45,2.45,0,0,1-.74-1.8,2.49,2.49,0,0,1,.74-1.81,2.39,2.39,0,0,1,1.79-.74h20A2.39,2.39,0,0,1,1049.76,608.56Z"/></svg>
