<svg id="Layer_1" data-name="Layer 1" xmlns="http://www.w3.org/2000/svg" viewBox="0 0 1920 1080"><defs><style>.cls-1{fill:#2fa01c;}.cls-2{fill:#fff;}</style></defs><title>try_again</title><rect class="cls-1" x="722.68" y="548.5" width="422.63" height="60" rx="12"/><path class="cls-2" d="M791.91,567.5a2.42,2.42,0,0,1,1.78.74,2.49,2.49,0,0,1,.74,1.81,2.4,2.4,0,0,1-.69,1.73,2.6,2.6,0,0,1-1.62.83H781.59a5.29,5.29,0,0,0-2.6.77A4.91,4.91,0,0,0,777.4,575a6.13,6.13,0,0,0-.79,2.07,11.11,11.11,0,0,0-.21,2v9a2.51,2.51,0,0,1-.73,1.81,2.5,2.5,0,0,1-3.57,0,2.47,2.47,0,0,1-.73-1.81v-9a13.69,13.69,0,0,1,.42-3.33,12.57,12.57,0,0,1,1.26-3.16H755.86a2.38,2.38,0,0,1-1.78-.75,2.58,2.58,0,0,1,0-3.62,2.41,2.41,0,0,1,1.78-.74Z"/><path class="cls-2" d="M836.24,583.59c1,.69,2,1.45,3,2.26a5.16,5.16,0,0,1,1,1,2.11,2.11,0,0,1,.42,1.3,2.47,2.47,0,0,1-.73,1.81,2.39,2.39,0,0,1-1.78.75,2.75,2.75,0,0,1-1.78-.75c-1.44-1.06-2.9-2.09-4.41-3.08a38,38,0,0,0-4.69-2.66,28.35,28.35,0,0,0-5-1.87,21.37,21.37,0,0,0-5.45-.69H806.32a1.93,1.93,0,0,0-1.62,2v4.52a2.58,2.58,0,0,1-2.52,2.56,2.39,2.39,0,0,1-1.78-.75,2.47,2.47,0,0,1-.73-1.81V583a6.54,6.54,0,0,1,.49-2.52,6.7,6.7,0,0,1,1.34-2.08,6.18,6.18,0,0,1,4.51-1.89h27.77a2,2,0,0,0,1.39-.56,1.84,1.84,0,0,0,.6-1.41,1.86,1.86,0,0,0-.6-1.38,1.94,1.94,0,0,0-1.39-.58h-31.6a2.39,2.39,0,0,1-1.78-.75,2.61,2.61,0,0,1,0-3.62,2.42,2.42,0,0,1,1.78-.74h31.39a6.7,6.7,0,0,1,2.75.56,7.12,7.12,0,0,1,2.25,1.51,7.05,7.05,0,0,1,0,10,7.29,7.29,0,0,1-2.25,1.51,6.86,6.86,0,0,1-2.75.56h-.21C834.3,582.25,835.26,582.9,836.24,583.59Z"/><path class="cls-2" d="M868.73,590a2.49,2.49,0,0,1-3.56,0,2.47,2.47,0,0,1-.74-1.81v-6.49a14.42,14.42,0,0,1-3.88-.53,18.83,18.83,0,0,1-3.95-1.68,35,35,0,0,1-4.43-3c-1.57-1.21-3.34-2.68-5.29-4.42a3.18,3.18,0,0,1-.71-.9,2.37,2.37,0,0,1-.29-1.12,2.49,2.49,0,0,1,.74-1.81,2.41,2.41,0,0,1,1.78-.74,2.06,2.06,0,0,1,.94.21,5.56,5.56,0,0,1,.84.53q3.35,3,5.63,4.66a22,22,0,0,0,4.09,2.47,12.14,12.14,0,0,0,3.43,1,33.61,33.61,0,0,0,3.67.18,35.3,35.3,0,0,0,3.62-.16,10.88,10.88,0,0,0,3.35-1A23.23,23.23,0,0,0,878,573c1.52-1.12,3.41-2.69,5.69-4.71a2.79,2.79,0,0,1,1.78-.74,2.42,2.42,0,0,1,1.78.74,2.48,2.48,0,0,1,.73,1.81,2.26,2.26,0,0,1-.29,1.12,3.15,3.15,0,0,1-.7.9q-2.88,2.56-5.3,4.39a33.31,33.31,0,0,1-4.53,3,19.59,19.59,0,0,1-4,1.68,14,14,0,0,1-3.7.53v6.49A2.47,2.47,0,0,1,868.73,590Z"/><path class="cls-2" d="M921.29,589.74a2.42,2.42,0,0,1-1.94,1,2.39,2.39,0,0,1-1.78-.75,2.47,2.47,0,0,1-.74-1.81,2.22,2.22,0,0,1,.53-1.54l12.73-17.4a6.84,6.84,0,0,1,8.49-2.08,6.27,6.27,0,0,1,2.31,1.92l12.73,17.29a3.74,3.74,0,0,1,.52.83,2.3,2.3,0,0,1,.21,1,2.47,2.47,0,0,1-.73,1.81,2.39,2.39,0,0,1-1.78.75,2.33,2.33,0,0,1-2-1l-12.21-16.55a10,10,0,0,0-.92-.93,1.66,1.66,0,0,0-1.13-.51,1.64,1.64,0,0,0-1.12.51,6,6,0,0,0-.87.93Z"/><path class="cls-2" d="M972.12,579.1a2.48,2.48,0,0,1,.73-1.81,2.39,2.39,0,0,1,1.78-.75H994.7a6,6,0,0,1,2.47.51,6.55,6.55,0,0,1,2,1.38,6.2,6.2,0,0,1,1.34,2.08A6.92,6.92,0,0,1,1001,583v1.18a6.92,6.92,0,0,1-.47,2.52,6.2,6.2,0,0,1-1.34,2.08,6.55,6.55,0,0,1-2,1.38,6,6,0,0,1-2.47.51H967.4a7,7,0,0,1-3.82-1.07,10.07,10.07,0,0,1-2.86-2.74,13,13,0,0,1-1.81-3.75,13.85,13.85,0,0,1-.63-4,13.17,13.17,0,0,1,.66-4.07,12.31,12.31,0,0,1,1.91-3.73,10.46,10.46,0,0,1,3-2.74,7.7,7.7,0,0,1,4-1.06h30.55a2.45,2.45,0,0,1,1.79.74,2.61,2.61,0,0,1,0,3.62,2.42,2.42,0,0,1-1.79.75H969.08a5.79,5.79,0,0,0-3,.66,5.38,5.38,0,0,0-1.78,1.62,5.74,5.74,0,0,0-.9,2.11,9.7,9.7,0,0,0,0,4.2,5.77,5.77,0,0,0,.9,2.1,5.38,5.38,0,0,0,1.78,1.62,5.69,5.69,0,0,0,3,.67h25.41a1.47,1.47,0,0,0,1.13-.59,2.07,2.07,0,0,0,.5-1.38,2.2,2.2,0,0,0-.45-1.38,1.42,1.42,0,0,0-1.18-.59H974.63a2.42,2.42,0,0,1-1.78-.74A2.48,2.48,0,0,1,972.12,579.1Z"/><path class="cls-2" d="M1010.68,589.74a2.46,2.46,0,0,1-3.72.21,2.47,2.47,0,0,1-.73-1.81,2.26,2.26,0,0,1,.52-1.54l12.74-17.4a6.84,6.84,0,0,1,8.49-2.08,6.16,6.16,0,0,1,2.3,1.92L1043,586.33a3.74,3.74,0,0,1,.52.83,2.3,2.3,0,0,1,.21,1A2.51,2.51,0,0,1,1043,590a2.42,2.42,0,0,1-1.79.75,2.35,2.35,0,0,1-2-1L1027,573.14a9.73,9.73,0,0,0-.91-.93,1.51,1.51,0,0,0-2.26,0,6.42,6.42,0,0,0-.86.93Z"/><path class="cls-2" d="M1053.29,590a2.5,2.5,0,0,1-3.57,0,2.47,2.47,0,0,1-.73-1.81V570.05a2.48,2.48,0,0,1,.73-1.81,2.52,2.52,0,0,1,3.57,0,2.48,2.48,0,0,1,.73,1.81v18.09A2.47,2.47,0,0,1,1053.29,590Z"/><path class="cls-2" d="M1095.68,568.24a2.51,2.51,0,0,1,3.56,0,2.49,2.49,0,0,1,.74,1.81v15.49a5.06,5.06,0,0,1-1.45,3.67,5.09,5.09,0,0,1-6.31.69l-24-14.9q-1-.59-1.65-.93a2.52,2.52,0,0,0-1.07-.35c-.53,0-.86.34-1,1a15.44,15.44,0,0,0-.21,2.93v10.48a2.47,2.47,0,0,1-.73,1.81,2.5,2.5,0,0,1-3.57,0,2.47,2.47,0,0,1-.73-1.81V572.66a5.06,5.06,0,0,1,1.44-3.67,4.77,4.77,0,0,1,3.59-1.49,5,5,0,0,1,1.44.21,4.84,4.84,0,0,1,1.28.59l24,14.89c.67.39,1.22.71,1.66.94a2.4,2.4,0,0,0,1.07.34c.52,0,.86-.34,1-1a15.37,15.37,0,0,0,.21-2.93V570.05A2.48,2.48,0,0,1,1095.68,568.24Z"/><path class="cls-2" d="M1105.22,574.57a6.68,6.68,0,0,1,.57-2.76,7.36,7.36,0,0,1,1.57-2.24,7.63,7.63,0,0,1,2.31-1.51,6.87,6.87,0,0,1,2.78-.56H1136a6.73,6.73,0,0,1,2.75.56,7.35,7.35,0,0,1,2.25,1.51,7.05,7.05,0,0,1,1.52,2.24,7.23,7.23,0,0,1,0,5.53,7.05,7.05,0,0,1-1.52,2.24,7.54,7.54,0,0,1-2.25,1.51,6.9,6.9,0,0,1-2.75.56h-15.67a2.41,2.41,0,0,1-1.78-.74,2.58,2.58,0,0,1,0-3.62,2.38,2.38,0,0,1,1.78-.75h15.87a1.94,1.94,0,0,0,1.39-.56,1.85,1.85,0,0,0,.61-1.41,1.88,1.88,0,0,0-.61-1.38,1.92,1.92,0,0,0-1.39-.58h-24.1a2.26,2.26,0,0,0-1.28.63,1.77,1.77,0,0,0-.55,1.33,2.47,2.47,0,0,1-.74,1.81,2.49,2.49,0,0,1-3.56,0A2.47,2.47,0,0,1,1105.22,574.57Zm12.57,13.57a3.21,3.21,0,0,1,1-2.34,3.08,3.08,0,0,1,2.3-1,3.12,3.12,0,0,1,2.31,1,3.38,3.38,0,0,1,0,4.68,3.12,3.12,0,0,1-2.31,1,3.08,3.08,0,0,1-2.3-1A3.18,3.18,0,0,1,1117.79,588.14Z"/></svg>
